<svg width="109" height="109" viewBox="0 0 109 109" fill="none" xmlns="http://www.w3.org/2000/svg">
<path opacity="0.1" d="M12 52C12 74.0902 29.9098 92 52 92C74.0902 92 92 74.0902 92 52C92 29.9098 74.0902 12 52 12C29.9098 12 12 29.9052 12 52Z" fill="#EEAD30"/>
<g filter="url(#filter0_ddd)">
<path d="M20.158 55.1545C18.4171 37.5674 31.2631 21.8988 48.8502 20.158C66.4374 18.4171 82.1059 31.2631 83.8467 48.8503C85.5876 66.4375 72.7416 82.1059 55.1545 83.8467C37.5673 85.5876 21.8988 72.7417 20.158 55.1545Z" fill="url(#paint0_linear)"/>
</g>
<g filter="url(#filter1_i)">
<path d="M58.6471 55.9254C58.3088 54.5561 57.5139 53.4931 56.2703 52.7397C59.2788 52.8992 61.3341 51.7098 62.4356 49.1617C63.1758 47.4496 63.1875 45.7922 62.4732 44.1951C62.433 44.1033 62.3831 44.0123 62.3371 43.9229C61.9369 43.1424 61.3777 42.458 60.6479 41.8747C60.3679 41.6529 60.0651 41.4406 59.7357 41.2459L61.2161 37.8217L58.4488 36.7021L57.0137 40.0218L55.5741 39.4394L57.0092 36.1196L54.242 35L52.8069 38.3197L49.7437 37.0804L40 59.6192L43.0631 60.8585L41.628 64.1783L44.3952 65.2979L45.8304 61.9782L47.27 62.5606L45.8348 65.8804L48.602 67L50.0563 63.6361C50.3347 63.7203 50.6062 63.7877 50.8772 63.8454C52.2467 64.1445 53.5052 64.0918 54.6481 63.6759C55.8966 63.2225 56.8904 62.4016 57.6382 61.2262C57.8598 60.8767 58.0625 60.5054 58.2398 60.0955C58.8536 58.6864 58.9894 57.2964 58.6471 55.9254ZM50.6678 48.093L52.7789 43.2099L55.95 44.4929C56.6458 44.7744 57.1193 45.2116 57.3625 45.801C57.3692 45.818 57.368 45.8316 57.3748 45.8486C57.598 46.4299 57.5448 47.1073 57.206 47.891C56.8585 48.6948 56.3859 49.2119 55.7866 49.4463C55.1872 49.6807 54.5348 49.6576 53.839 49.3761L50.6678 48.093ZM52.2245 58.8705C51.5941 59.1443 50.9529 59.1493 50.2931 58.8823L46.6421 57.4051L48.8626 52.2688L52.5696 53.7687C53.2294 54.0356 53.6627 54.4896 53.8753 55.128C54.0879 55.7665 54.0231 56.4817 53.6808 57.2734C53.3385 58.0652 52.851 58.5951 52.2245 58.8705Z" fill="#FFEFC1"/>
</g>
<path opacity="0.32" d="M44.6584 21.0005C38.9031 26.7448 34.3724 35.1549 34.3724 43.9122C34.3724 61.4409 42.1582 72.1483 57 76.0005C63.2384 77.6197 71.0086 76.2757 73.5 75.6515C67.7353 81.4005 60.2665 84.0005 51.4687 84.0005C33.8087 83.6317 20 69.2165 20 52.3161C20 37.4625 29.3702 24.9771 44.6584 21.0005Z" fill="#40434C"/>
<path opacity="0.16" d="M74.1484 38.4546C76.53 40.9067 77.4538 44.3266 78.0263 47.6267C78.5267 50.5212 78.825 53.5079 78.1321 56.3656C77.4393 59.2232 75.6207 61.9518 72.8446 63.1824C70.0637 64.413 66.3254 63.7539 64.6559 61.2927C64.093 60.463 63.7899 59.4997 63.6023 58.5272C63.0202 55.5359 63.4868 52.4386 62.9768 49.4381C62.5871 47.1751 61.6538 45.0318 60.6386 42.9577C60.119 41.893 59.5706 40.8283 59.3107 39.6807C59.0509 38.533 59.1135 37.2701 59.7582 36.2699C60.5039 35.1177 61.9232 34.4816 63.3329 34.3526C67.153 33.9977 71.5696 35.8044 74.1484 38.4546Z" fill="white"/>
<defs>
<filter id="filter0_ddd" x="0" y="0" width="108.005" height="108.005" filterUnits="userSpaceOnUse" color-interpolation-filters="sRGB">
<feFlood flood-opacity="0" result="BackgroundImageFix"/>
<feColorMatrix in="SourceAlpha" type="matrix" values="0 0 0 0 0 0 0 0 0 0 0 0 0 0 0 0 0 0 127 0"/>
<feOffset dx="-4" dy="-4"/>
<feGaussianBlur stdDeviation="8"/>
<feColorMatrix type="matrix" values="0 0 0 0 0.996078 0 0 0 0 0.4 0 0 0 0 0.0627451 0 0 0 1 0"/>
<feBlend mode="normal" in2="BackgroundImageFix" result="effect1_dropShadow"/>
<feColorMatrix in="SourceAlpha" type="matrix" values="0 0 0 0 0 0 0 0 0 0 0 0 0 0 0 0 0 0 127 0"/>
<feOffset dx="4" dy="4"/>
<feGaussianBlur stdDeviation="10"/>
<feColorMatrix type="matrix" values="0 0 0 0 0.94902 0 0 0 0 0.854902 0 0 0 0 0.117647 0 0 0 0.5 0"/>
<feBlend mode="normal" in2="effect1_dropShadow" result="effect2_dropShadow"/>
<feColorMatrix in="SourceAlpha" type="matrix" values="0 0 0 0 0 0 0 0 0 0 0 0 0 0 0 0 0 0 127 0"/>
<feOffset/>
<feGaussianBlur stdDeviation="2.00651"/>
<feColorMatrix type="matrix" values="0 0 0 0 1 0 0 0 0 1 0 0 0 0 1 0 0 0 0.29 0"/>
<feBlend mode="hard-light" in2="effect2_dropShadow" result="effect3_dropShadow"/>
<feBlend mode="normal" in="SourceGraphic" in2="effect3_dropShadow" result="shape"/>
</filter>
<filter id="filter1_i" x="39" y="35" width="24" height="33" filterUnits="userSpaceOnUse" color-interpolation-filters="sRGB">
<feFlood flood-opacity="0" result="BackgroundImageFix"/>
<feBlend mode="normal" in="SourceGraphic" in2="BackgroundImageFix" result="shape"/>
<feColorMatrix in="SourceAlpha" type="matrix" values="0 0 0 0 0 0 0 0 0 0 0 0 0 0 0 0 0 0 127 0" result="hardAlpha"/>
<feOffset dx="-1" dy="1"/>
<feGaussianBlur stdDeviation="0.5"/>
<feComposite in2="hardAlpha" operator="arithmetic" k2="-1" k3="1"/>
<feColorMatrix type="matrix" values="0 0 0 0 0 0 0 0 0 0 0 0 0 0 0 0 0 0 0.61 0"/>
<feBlend mode="normal" in2="shape" result="effect1_innerShadow"/>
</filter>
<linearGradient id="paint0_linear" x1="82.0237" y1="30.4215" x2="26.0638" y2="64.8192" gradientUnits="userSpaceOnUse">
<stop stop-color="#FAFF00"/>
<stop offset="0.213542" stop-color="#EEC430"/>
<stop offset="0.598958" stop-color="#EE8F30"/>
<stop offset="1" stop-color="#FF630E"/>
</linearGradient>
</defs>
</svg>
