<svg width="109" height="109" viewBox="0 0 109 109" fill="none" xmlns="http://www.w3.org/2000/svg">
<path opacity="0.1" d="M12 52C12 74.0902 29.9098 92 52 92C74.0902 92 92 74.0902 92 52C92 29.9098 74.0902 12 52 12C29.9098 12 12 29.9052 12 52Z" fill="#EEAD30"/>
<g filter="url(#filter0_ddd)">
<path d="M20.158 55.1545C18.4171 37.5674 31.2631 21.8988 48.8502 20.158C66.4374 18.4171 82.1059 31.2631 83.8467 48.8503C85.5876 66.4375 72.7416 82.1059 55.1545 83.8467C37.5673 85.5876 21.8988 72.7417 20.158 55.1545Z" fill="url(#paint0_linear)"/>
</g>
<g filter="url(#filter1_i)">
<path fill-rule="evenodd" clip-rule="evenodd" d="M43 49.3383L52.4059 45.3619L61.5225 49.4399L52.3915 35L43 49.3383ZM43.0289 53.7501L52.4204 59.2068L62 53.7501L52.5072 67L43.0289 53.7501Z" fill="#CEFFE2"/>
<path fill-rule="evenodd" clip-rule="evenodd" d="M52.6352 47.549L43 51.607L52.6352 56.9608L62 51.721L52.6352 47.549Z" fill="#CEFFE2"/>
</g>
<path opacity="0.32" d="M44.6584 21.0005C38.9031 26.7448 34.3724 35.1549 34.3724 43.9122C34.3724 61.4409 42.1582 72.1483 57 76.0005C63.2384 77.6197 71.0086 76.2757 73.5 75.6515C67.7353 81.4005 60.2665 84.0005 51.4687 84.0005C33.8087 83.6317 20 69.2165 20 52.3161C20 37.4625 29.3702 24.9771 44.6584 21.0005Z" fill="#40434C"/>
<path opacity="0.16" d="M74.1484 38.4546C76.53 40.9067 77.4538 44.3266 78.0263 47.6267C78.5267 50.5212 78.825 53.5079 78.1321 56.3656C77.4393 59.2232 75.6207 61.9518 72.8446 63.1824C70.0637 64.413 66.3254 63.7539 64.6559 61.2927C64.093 60.463 63.7899 59.4997 63.6023 58.5272C63.0202 55.5359 63.4868 52.4386 62.9768 49.4381C62.5871 47.1751 61.6538 45.0318 60.6386 42.9577C60.119 41.893 59.5706 40.8283 59.3107 39.6807C59.0509 38.533 59.1135 37.2701 59.7582 36.2699C60.5039 35.1177 61.9232 34.4816 63.3329 34.3526C67.153 33.9977 71.5696 35.8044 74.1484 38.4546Z" fill="white"/>
<defs>
<filter id="filter0_ddd" x="0" y="0" width="108.005" height="108.005" filterUnits="userSpaceOnUse" color-interpolation-filters="sRGB">
<feFlood flood-opacity="0" result="BackgroundImageFix"/>
<feColorMatrix in="SourceAlpha" type="matrix" values="0 0 0 0 0 0 0 0 0 0 0 0 0 0 0 0 0 0 127 0"/>
<feOffset dx="-4" dy="-4"/>
<feGaussianBlur stdDeviation="8"/>
<feColorMatrix type="matrix" values="0 0 0 0 0.156863 0 0 0 0 0.827451 0 0 0 0 0.431373 0 0 0 1 0"/>
<feBlend mode="normal" in2="BackgroundImageFix" result="effect1_dropShadow"/>
<feColorMatrix in="SourceAlpha" type="matrix" values="0 0 0 0 0 0 0 0 0 0 0 0 0 0 0 0 0 0 127 0"/>
<feOffset dx="4" dy="4"/>
<feGaussianBlur stdDeviation="10"/>
<feColorMatrix type="matrix" values="0 0 0 0 0.105882 0 0 0 0 0.384314 0 0 0 0 0.356863 0 0 0 1 0"/>
<feBlend mode="normal" in2="effect1_dropShadow" result="effect2_dropShadow"/>
<feColorMatrix in="SourceAlpha" type="matrix" values="0 0 0 0 0 0 0 0 0 0 0 0 0 0 0 0 0 0 127 0"/>
<feOffset/>
<feGaussianBlur stdDeviation="2.00651"/>
<feColorMatrix type="matrix" values="0 0 0 0 1 0 0 0 0 1 0 0 0 0 1 0 0 0 0.29 0"/>
<feBlend mode="hard-light" in2="effect2_dropShadow" result="effect3_dropShadow"/>
<feBlend mode="normal" in="SourceGraphic" in2="effect3_dropShadow" result="shape"/>
</filter>
<filter id="filter1_i" x="42" y="35" width="20" height="33" filterUnits="userSpaceOnUse" color-interpolation-filters="sRGB">
<feFlood flood-opacity="0" result="BackgroundImageFix"/>
<feBlend mode="normal" in="SourceGraphic" in2="BackgroundImageFix" result="shape"/>
<feColorMatrix in="SourceAlpha" type="matrix" values="0 0 0 0 0 0 0 0 0 0 0 0 0 0 0 0 0 0 127 0" result="hardAlpha"/>
<feOffset dx="-1" dy="1"/>
<feGaussianBlur stdDeviation="0.5"/>
<feComposite in2="hardAlpha" operator="arithmetic" k2="-1" k3="1"/>
<feColorMatrix type="matrix" values="0 0 0 0 0 0 0 0 0 0 0 0 0 0 0 0 0 0 0.61 0"/>
<feBlend mode="normal" in2="shape" result="effect1_innerShadow"/>
</filter>
<linearGradient id="paint0_linear" x1="70.5222" y1="20" x2="41.802" y2="79.0804" gradientUnits="userSpaceOnUse">
<stop stop-color="#61FCA0"/>
<stop offset="0.161458" stop-color="#2FE077"/>
<stop offset="0.540611" stop-color="#12A24D"/>
<stop offset="1" stop-color="#0C533E"/>
</linearGradient>
</defs>
</svg>
