<svg width="109" height="109" viewBox="0 0 109 109" fill="none" xmlns="http://www.w3.org/2000/svg">
<path opacity="0.1" d="M12 52C12 74.0902 29.9098 92 52 92C74.0902 92 92 74.0902 92 52C92 29.9098 74.0902 12 52 12C29.9098 12 12 29.9052 12 52Z" fill="#EEAD30"/>
<g filter="url(#filter0_ddd)">
<path d="M20.158 55.1545C18.4171 37.5674 31.2631 21.8988 48.8502 20.158C66.4374 18.4171 82.1059 31.2631 83.8467 48.8503C85.5876 66.4375 72.7416 82.1059 55.1545 83.8467C37.5673 85.5876 21.8988 72.7417 20.158 55.1545Z" fill="url(#paint0_linear)"/>
</g>
<g filter="url(#filter1_i)">
<path d="M54.8542 46.7381V42.8794H64.1021V37H38.9196V42.8794H48.1687V46.735C40.6519 47.0644 35 48.4848 35 50.1864C35 51.8881 40.6546 53.3085 48.1687 53.64V66H54.8563V53.6389C62.3595 53.3085 68 51.8891 68 50.189C68 48.489 62.3595 47.0696 54.8563 46.7391L54.8542 46.7381ZM54.8563 52.592V52.5889C54.6677 52.6003 53.6982 52.6559 51.5397 52.6559C49.814 52.6559 48.5998 52.6092 48.1719 52.5879V52.5931C41.5311 52.3124 36.574 51.209 36.574 49.8887C36.574 48.5684 41.5316 47.4665 48.1719 47.1853V51.4938C48.6069 51.5223 49.8509 51.5923 51.568 51.5923C53.6303 51.5923 54.6671 51.5104 54.8574 51.4938V47.1853C61.4853 47.467 66.4309 48.5715 66.4309 49.8871C66.4309 51.2027 61.4831 52.3077 54.8574 52.5894" fill="#D1FFF1"/>
</g>
<path opacity="0.32" d="M44.6584 21.0005C38.9031 26.7448 34.3724 35.1549 34.3724 43.9122C34.3724 61.4409 42.1582 72.1483 57 76.0005C63.2384 77.6197 71.0086 76.2757 73.5 75.6515C67.7353 81.4005 60.2665 84.0005 51.4687 84.0005C33.8087 83.6317 20 69.2165 20 52.3161C20 37.4625 29.3702 24.9771 44.6584 21.0005Z" fill="#40434C"/>
<path opacity="0.16" d="M74.1484 38.4546C76.53 40.9067 77.4538 44.3266 78.0263 47.6267C78.5267 50.5212 78.825 53.5079 78.1321 56.3656C77.4393 59.2232 75.6207 61.9518 72.8446 63.1824C70.0637 64.413 66.3254 63.7539 64.6559 61.2927C64.093 60.463 63.7899 59.4997 63.6023 58.5272C63.0202 55.5359 63.4868 52.4386 62.9768 49.4381C62.5871 47.1751 61.6538 45.0318 60.6386 42.9577C60.119 41.893 59.5706 40.8283 59.3107 39.6807C59.0509 38.533 59.1135 37.2701 59.7582 36.2699C60.5039 35.1177 61.9232 34.4816 63.3329 34.3526C67.153 33.9977 71.5696 35.8044 74.1484 38.4546Z" fill="white"/>
<defs>
<filter id="filter0_ddd" x="0" y="0" width="108.005" height="108.005" filterUnits="userSpaceOnUse" color-interpolation-filters="sRGB">
<feFlood flood-opacity="0" result="BackgroundImageFix"/>
<feColorMatrix in="SourceAlpha" type="matrix" values="0 0 0 0 0 0 0 0 0 0 0 0 0 0 0 0 0 0 127 0"/>
<feOffset dx="-4" dy="-4"/>
<feGaussianBlur stdDeviation="8"/>
<feColorMatrix type="matrix" values="0 0 0 0 0.262745 0 0 0 0 0.788235 0 0 0 0 0.631373 0 0 0 1 0"/>
<feBlend mode="normal" in2="BackgroundImageFix" result="effect1_dropShadow"/>
<feColorMatrix in="SourceAlpha" type="matrix" values="0 0 0 0 0 0 0 0 0 0 0 0 0 0 0 0 0 0 127 0"/>
<feOffset dx="4" dy="4"/>
<feGaussianBlur stdDeviation="10"/>
<feColorMatrix type="matrix" values="0 0 0 0 0.105882 0 0 0 0 0.384314 0 0 0 0 0.356863 0 0 0 1 0"/>
<feBlend mode="normal" in2="effect1_dropShadow" result="effect2_dropShadow"/>
<feColorMatrix in="SourceAlpha" type="matrix" values="0 0 0 0 0 0 0 0 0 0 0 0 0 0 0 0 0 0 127 0"/>
<feOffset/>
<feGaussianBlur stdDeviation="2.00651"/>
<feColorMatrix type="matrix" values="0 0 0 0 1 0 0 0 0 1 0 0 0 0 1 0 0 0 0.29 0"/>
<feBlend mode="hard-light" in2="effect2_dropShadow" result="effect3_dropShadow"/>
<feBlend mode="normal" in="SourceGraphic" in2="effect3_dropShadow" result="shape"/>
</filter>
<filter id="filter1_i" x="34" y="37" width="34" height="30" filterUnits="userSpaceOnUse" color-interpolation-filters="sRGB">
<feFlood flood-opacity="0" result="BackgroundImageFix"/>
<feBlend mode="normal" in="SourceGraphic" in2="BackgroundImageFix" result="shape"/>
<feColorMatrix in="SourceAlpha" type="matrix" values="0 0 0 0 0 0 0 0 0 0 0 0 0 0 0 0 0 0 127 0" result="hardAlpha"/>
<feOffset dx="-1" dy="1"/>
<feGaussianBlur stdDeviation="0.5"/>
<feComposite in2="hardAlpha" operator="arithmetic" k2="-1" k3="1"/>
<feColorMatrix type="matrix" values="0 0 0 0 0 0 0 0 0 0 0 0 0 0 0 0 0 0 0.61 0"/>
<feBlend mode="normal" in2="shape" result="effect1_innerShadow"/>
</filter>
<linearGradient id="paint0_linear" x1="82.0226" y1="30.4217" x2="26.0627" y2="64.8194" gradientUnits="userSpaceOnUse">
<stop stop-color="#59FFCE"/>
<stop offset="0.203125" stop-color="#47CEA6"/>
<stop offset="0.540611" stop-color="#209D78"/>
<stop offset="0.776042" stop-color="#117C69"/>
<stop offset="1" stop-color="#005858"/>
</linearGradient>
</defs>
</svg>
