<svg width="18" height="18" viewBox="0 0 18 18" fill="none" xmlns="http://www.w3.org/2000/svg">
<path d="M2.75389 2.00007H2.75238C2.58214 2.00007 2.42203 2.06643 2.30112 2.18703C2.17889 2.30897 2.11156 2.47132 2.11156 2.64417V12.3022C2.11156 12.6564 2.40082 12.9452 2.75644 12.9461C4.25564 12.9497 6.7674 13.2622 8.50017 15.0755V4.96806C8.50017 4.848 8.4695 4.73522 8.41163 4.64189C6.98945 2.35157 4.25649 2.00359 2.75389 2.00007Z" fill="white"/>
<path d="M15.8888 12.3022V2.64409C15.8888 2.47125 15.8214 2.30889 15.6992 2.18696C15.5783 2.06636 15.4181 2 15.248 2H15.2464C13.7439 2.00358 11.0109 2.35156 9.58869 4.64188C9.53082 4.73521 9.50021 4.84799 9.50021 4.96805V15.0754C11.233 13.2621 13.7447 12.9496 15.2439 12.946C15.5995 12.9451 15.8888 12.6563 15.8888 12.3022Z" fill="white"/>
<path d="M17.356 4.22739H16.889V12.3022C16.889 13.2065 16.1523 13.9439 15.2466 13.9461C13.975 13.9491 11.8782 14.1978 10.3933 15.6032C12.9615 14.9744 15.6689 15.3832 17.2119 15.7348C17.4045 15.7787 17.6036 15.7334 17.758 15.6103C17.9118 15.4876 18 15.3042 18 15.1073V4.87136C18.0001 4.51629 17.7111 4.22739 17.356 4.22739Z" fill="white"/>
<path d="M1.11098 12.3022V4.22739H0.64397C0.288956 4.22739 0 4.51629 0 4.87136V15.1071C0 15.304 0.0882384 15.4874 0.242049 15.6101C0.396285 15.7331 0.595185 15.7786 0.788146 15.7346C2.3311 15.3829 5.03856 14.9742 7.60668 15.6031C6.12178 14.1977 4.02503 13.9491 2.75339 13.946C1.84779 13.9439 1.11098 13.2065 1.11098 12.3022Z" fill="white"/>
</svg>
