<svg width="9" height="10" viewBox="0 0 9 10" fill="none" xmlns="http://www.w3.org/2000/svg">
<path d="M8.24745 0.984894L8.81596 0.999977C8.96597 0.999977 9.05366 1.18615 8.96366 1.3195L4.1035 9.66589C4.03557 9.76925 3.94602 9.85347 3.84228 9.91157C3.73853 9.96967 3.62358 9.99998 3.50694 9.99998C3.39031 9.99998 3.27536 9.96967 3.17161 9.91157C3.06786 9.85347 2.97831 9.76925 2.91039 9.66589L0.0349088 5.31843C-0.0527863 5.18509 0.0349088 4.99892 0.184914 4.99892L0.725088 4.98382C0.962788 4.98382 1.18433 5.10961 1.3228 5.31843L3.5 8.5L7.64974 1.31951C7.7882 1.10817 8.01205 0.984894 8.24745 0.984894Z" fill="#00A08A"/>
</svg>
