<svg width="18" height="18" viewBox="0 0 18 18" fill="none" xmlns="http://www.w3.org/2000/svg">
<path d="M13.8754 5.26653L13.8753 5.26641L13.8718 5.27247L9.01308 13.7611C8.95411 13.8516 8.87739 13.9243 8.78987 13.9742C8.7017 14.0244 8.60475 14.0502 8.50694 14.0502C8.40914 14.0502 8.31219 14.0244 8.22402 13.9742C8.13576 13.9239 8.05847 13.8504 7.99931 13.7588L7.99914 13.7585L5.12381 9.33588C5.12378 9.33583 5.12374 9.33578 5.12371 9.33572C5.1016 9.3014 5.10085 9.25904 5.11687 9.22436C5.13287 9.18974 5.15912 9.17416 5.18491 9.17416H6.26726C6.46555 9.17416 6.65525 9.28089 6.77621 9.46641C6.77624 9.46645 6.77626 9.46648 6.77628 9.46652L8.41933 11.9952L8.51566 12.1435L8.60086 11.9885L12.2268 5.39476C12.3474 5.20962 12.5379 5.10586 12.7336 5.10586H13.816C13.8418 5.10586 13.8679 5.12147 13.8835 5.1557C13.8992 5.18997 13.8983 5.23206 13.8754 5.26653ZM0.105861 5C0.105861 2.29704 2.29704 0.105861 5 0.105861H13C15.703 0.105861 17.8941 2.29704 17.8941 5V13C17.8941 15.703 15.703 17.8941 13 17.8941H5C2.29704 17.8941 0.105861 15.703 0.105861 13V5ZM13 0.894139H5C2.7324 0.894139 0.894139 2.7324 0.894139 5V13C0.894139 15.2676 2.7324 17.1059 5 17.1059H13C15.2676 17.1059 17.1059 15.2676 17.1059 13V5C17.1059 2.7324 15.2676 0.894139 13 0.894139Z" fill="url(#paint0_linear)" stroke="url(#paint1_linear)" stroke-width="0.211722"/>
<defs>
<linearGradient id="paint0_linear" x1="3.62338" y1="5.1458" x2="14.9755" y2="5.37411" gradientUnits="userSpaceOnUse">
<stop stop-color="#DBFF00"/>
<stop offset="1" stop-color="#74FF00"/>
</linearGradient>
<linearGradient id="paint1_linear" x1="3.62338" y1="5.1458" x2="14.9755" y2="5.37411" gradientUnits="userSpaceOnUse">
<stop stop-color="#DBFF00"/>
<stop offset="1" stop-color="#74FF00"/>
</linearGradient>
</defs>
</svg>
