<svg width="18" height="18" viewBox="0 0 18 18" fill="none" xmlns="http://www.w3.org/2000/svg">
<path fill-rule="evenodd" clip-rule="evenodd" d="M18 13.6217V4.99779C18 4.77554 17.934 4.56368 17.816 4.38545L10.0512 8.09561V18C10.2138 18 10.3768 17.9641 10.5273 17.892L17.3697 14.623C17.3715 14.6221 17.3735 14.6212 17.3754 14.6202C17.3774 14.6193 17.3793 14.6184 17.3811 14.6175C17.7595 14.4311 18 14.0447 18 13.6217ZM14.6939 10.1261C15.0588 10.1757 15.3003 10.6185 15.2334 11.1152C15.1664 11.612 14.8164 11.9745 14.4516 11.925C14.0867 11.8755 13.8452 11.4327 13.9121 10.9359C13.9791 10.4392 14.3291 10.0766 14.6939 10.1261Z" fill="white"/>
<path fill-rule="evenodd" clip-rule="evenodd" d="M9.07384 8.09561V18C8.91121 18 8.74855 17.9641 8.5981 17.892L1.75546 14.6228C1.3703 14.4388 1.125 14.0492 1.125 13.6215V4.99779C1.125 4.77557 1.19103 4.56368 1.30904 4.38545L9.07384 8.09561ZM6.91406 10.4637C7.27997 10.4435 7.55433 10.0211 7.52686 9.52039C7.49939 9.01964 7.18049 8.63008 6.81458 8.6503C6.44867 8.67052 6.17431 9.09285 6.20178 9.59361C6.22925 10.0944 6.54815 10.4839 6.91406 10.4637ZM3.73181 12.8147C3.75928 13.3154 3.48492 13.7378 3.11901 13.758C2.75309 13.7782 2.4342 13.3886 2.40673 12.8879C2.37926 12.3871 2.65362 11.9648 3.01953 11.9446C3.38544 11.9244 3.70434 12.3139 3.73181 12.8147Z" fill="white"/>
<path fill-rule="evenodd" clip-rule="evenodd" d="M17.3485 3.75899C17.2839 3.56432 17.1074 3.36444 16.9225 3.27662L10.0708 0.107665C9.7699 -0.0358883 9.42076 -0.0358883 9.12025 0.107665L2.28768 3.37073C2.10282 3.45859 1.94999 3.59438 1.8417 3.75897L9.59508 7.46182L17.3485 3.75899ZM6.4293 4.19395C6.92754 4.16644 7.31513 3.84701 7.29501 3.4805C7.2749 3.11398 6.85469 2.83916 6.35645 2.86668C5.85822 2.89419 5.47063 3.21362 5.49074 3.58014C5.51086 3.94666 5.93107 4.22147 6.4293 4.19395ZM10.4224 1.92818C10.4425 2.2947 10.0549 2.61412 9.55669 2.64164C9.05845 2.66915 8.63824 2.39434 8.61813 2.02782C8.59801 1.6613 8.9856 1.34188 9.48384 1.31436C9.98207 1.28685 10.4023 1.56166 10.4224 1.92818ZM12.8334 4.30144C13.3317 4.27393 13.7193 3.9545 13.6992 3.58798C13.679 3.22147 13.2588 2.94665 12.7606 2.97417C12.2624 3.00168 11.8748 3.32111 11.8949 3.68763C11.915 4.05414 12.3352 4.32896 12.8334 4.30144ZM10.645 5.02947C10.6652 5.39599 10.2776 5.71542 9.77932 5.74293C9.28109 5.77045 8.86088 5.49563 8.84076 5.12911C8.82065 4.7626 9.20824 4.44317 9.70648 4.41566C10.2047 4.38814 10.6249 4.66295 10.645 5.02947Z" fill="white"/>
</svg>
