<svg width="22" height="22" viewBox="0 0 22 22" fill="none" xmlns="http://www.w3.org/2000/svg">
<g clip-path="url(#clip0)">
<path d="M21.9963 11C21.9963 4.92479 17.0724 0 10.9982 0C4.92412 0 0 4.92479 0 11C0 17.0752 4.92412 22 10.9982 22C17.0724 22 21.9963 17.0752 21.9963 11Z" fill="#FF4242"/>
<path d="M4.21339 2.34204C2.74675 4.21118 1.87193 6.56724 1.87193 9.12775C1.87193 15.2028 6.79605 20.1277 12.8701 20.1277C15.4303 20.1277 17.7858 19.2528 19.6548 17.7858C17.6413 20.3517 14.5121 22.0001 10.9981 22.0001C4.92389 22.0001 -6.10352e-05 17.0753 -6.10352e-05 11.0001C-6.10352e-05 7.48537 1.64803 4.3557 4.21339 2.34204Z" fill="#AE0000"/>
<path d="M11.6965 12.8478H10.2997C10.0231 12.8478 9.79883 12.6235 9.79883 12.3467V6.02177C9.79883 5.745 10.0231 5.52075 10.2997 5.52075H11.6965C11.9731 5.52075 12.1975 5.745 12.1975 6.02177V12.3467C12.1975 12.6235 11.9733 12.8478 11.6965 12.8478Z" fill="white"/>
<path d="M10.0343 5.52075H10.9395C10.6628 5.52075 10.4386 5.745 10.4386 6.02177V12.3467C10.4386 12.6235 10.6628 12.8478 10.9395 12.8478H10.0343C9.75764 12.8478 9.5334 12.6234 9.5334 12.3467V6.02177C9.5334 5.745 9.75764 5.52075 10.0343 5.52075Z" fill="#FFC2C2"/>
<path d="M10.9981 16.8352C10.3358 16.8352 9.79883 16.2981 9.79883 15.6358V15.6355C9.79883 14.9731 10.3358 14.436 10.9981 14.436C11.6604 14.436 12.1975 14.9731 12.1975 15.6355V15.6358C12.1975 16.2981 11.6604 16.8352 10.9981 16.8352Z" fill="white"/>
<path d="M10.7329 14.436C10.8294 14.436 10.9232 14.4478 11.0132 14.4693C10.486 14.5957 10.0941 15.0697 10.0941 15.6356C10.0941 16.2014 10.486 16.6756 11.0132 16.8018C10.9232 16.8235 10.8294 16.8352 10.7329 16.8352C10.0704 16.8352 9.53345 16.2981 9.53345 15.6356C9.53345 14.9731 10.0706 14.436 10.7329 14.436Z" fill="#FFC2C2"/>
</g>
<defs>
<clipPath id="clip0">
<rect width="22" height="22" fill="white"/>
</clipPath>
</defs>
</svg>
