<svg width="30" height="30" viewBox="0 0 30 30" fill="none" xmlns="http://www.w3.org/2000/svg">
<g clip-path="url(#clip0)">
<path d="M14.9975 0.5C23.0043 0.5 29.495 6.99168 29.495 15C29.495 23.0083 23.0043 29.5 14.9975 29.5C6.99092 29.5 0.5 23.0083 0.5 15C0.5 6.99169 6.99092 0.5 14.9975 0.5Z" fill="#FF4242" stroke="black"/>
<path d="M5.7458 3.1936C3.74583 5.74243 2.5529 8.95525 2.5529 12.4468C2.5529 20.731 9.26761 27.4468 17.5504 27.4468C21.0415 27.4468 24.2536 26.2537 26.8022 24.2533C24.0566 27.7522 19.7895 30 14.9977 30C6.71466 30 0.000183105 23.2844 0.000183105 15C0.000183105 10.2072 2.24757 5.9395 5.7458 3.1936Z" fill="#AE0000"/>
<path d="M15.95 17.5195H14.0453C13.6681 17.5195 13.3623 17.2137 13.3623 16.8362V8.21129C13.3623 7.83386 13.6681 7.52808 14.0453 7.52808H15.95C16.3272 7.52808 16.6333 7.83386 16.6333 8.21129V16.8362C16.6333 17.2137 16.3275 17.5195 15.95 17.5195Z" fill="white"/>
<path d="M13.6826 7.52808H14.917C14.5398 7.52808 14.234 7.83386 14.234 8.21129V16.8362C14.234 17.2137 14.5398 17.5195 14.917 17.5195H13.6826C13.3054 17.5195 12.9996 17.2134 12.9996 16.8362V8.21129C12.9996 7.83386 13.3054 7.52808 13.6826 7.52808Z" fill="#FFC2C2"/>
<path d="M14.9977 22.9572C14.0945 22.9572 13.3623 22.2248 13.3623 21.3216V21.3211C13.3623 20.418 14.0945 19.6855 14.9977 19.6855C15.9008 19.6855 16.6333 20.418 16.6333 21.3211V21.3216C16.6333 22.2248 15.9008 22.9572 14.9977 22.9572Z" fill="white"/>
<path d="M14.6358 19.6855C14.7674 19.6855 14.8954 19.7016 15.0181 19.7309C14.2991 19.9032 13.7647 20.5496 13.7647 21.3214C13.7647 22.0929 14.2991 22.7395 15.0181 22.9116C14.8954 22.9412 14.7674 22.9572 14.6358 22.9572C13.7324 22.9572 13.0002 22.2248 13.0002 21.3214C13.0002 20.418 13.7327 19.6855 14.6358 19.6855Z" fill="#FFC2C2"/>
</g>
<defs>
<clipPath id="clip0">
<rect width="30" height="30" fill="white"/>
</clipPath>
</defs>
</svg>
