<svg width="222" height="141" viewBox="0 0 222 141" fill="none" xmlns="http://www.w3.org/2000/svg">
<path opacity="0.1" d="M112 190.001C63.3989 190.001 24 150.602 24 102.001C24 53.3994 63.3989 14.0005 112 14.0005C160.601 14.0005 200 53.3994 200 102.001C200 150.602 160.601 190.001 112 190.001Z" fill="white"/>
<g filter="url(#filter0_dddi)">
<path d="M61.0883 152.912C32.9705 124.794 32.9706 79.2061 61.0883 51.0883C89.2061 22.9706 134.794 22.9705 162.912 51.0883C191.029 79.2061 191.029 124.794 162.912 152.912C134.794 181.029 89.206 181.029 61.0883 152.912Z" fill="url(#paint0_linear)"/>
</g>
<path d="M65.6145 46.5942C69.5435 47.0986 73.72 48.9015 76.888 50.0249C80.5482 51.3205 84.8094 54.0354 84.1238 57.8587C83.8128 59.5862 82.481 61.0448 82.3783 62.7994C82.2333 65.3392 84.6886 67.2539 87.0653 68.1689C89.442 69.084 92.1268 69.5762 93.9056 71.3973C94.6515 72.1583 95.189 73.1156 95.9923 73.8163C98.0852 75.6403 101.214 75.2326 103.986 75.3474C106.985 75.4742 109.899 76.3319 112.78 77.1835C117.788 78.6664 122.795 80.1492 127.805 81.632C131.033 82.5863 134.358 83.595 136.94 85.7542C139.522 87.9135 141.18 91.5496 140.024 94.7115C139.374 96.4842 137.961 97.8553 136.955 99.4559C135.18 102.28 134.705 105.756 133.017 108.634C130.849 112.33 126.962 114.613 123.239 116.736C121.937 117.479 120.593 118.237 119.107 118.451C115.677 118.947 112.506 116.431 110.518 113.592C108.528 110.754 107.205 107.432 104.808 104.928C102.443 102.458 98.9911 100.942 95.5907 101.298C92.1902 101.654 88.983 104.055 88.0589 107.35C87.1348 110.642 88.8531 114.58 92.0422 115.815C93.9115 116.54 95.9924 116.341 97.9916 116.504C99.9908 116.667 102.189 117.385 103.074 119.182C103.624 120.297 103.554 121.61 103.853 122.818C105.369 128.967 115.311 130.314 116.096 136.595C116.41 139.117 114.991 141.56 113.191 143.354C108.042 148.485 99.5318 150.137 96.1705 156.579C95.1438 158.548 94.6696 160.873 93.1022 162.443C91.5288 164.023 89.2004 164.497 87.0683 165.149C85.5432 165.617 84.4284 167.287 83 168C75.7188 164.775 67.9277 159.367 62.1656 154.025C62.5582 151.772 64.4608 149.548 64.7869 147.256C65.5872 141.606 61.5647 136.571 59.3329 131.32C57.1404 126.158 56.6421 120.294 57.9376 114.84C58.6504 111.838 60.0093 108.815 62.5461 107.057C63.9625 106.076 65.7835 105.432 66.5355 103.883C67.52 101.86 66.0644 99.4105 64.18 98.1784C62.2985 96.9463 60.0184 96.4449 58.0977 95.2762C56.177 94.1075 54.5764 91.8032 55.3586 89.6923C51.2182 89.5956 47.564 93.582 43.5052 92.7636C42.4361 92.5492 41.509 92.0026 40.748 91.2536C43.2938 73.3935 52.4293 57.6624 65.6145 46.5942Z" fill="#155053"/>
<path d="M184.191 102.099C184.191 131.574 165.51 156.234 144 166.5C142.62 164.504 139.638 163.024 140.127 160.563C141.549 153.381 145.451 146.713 151.014 141.954C154.109 139.302 158.029 136.666 158.313 132.598C158.57 128.934 155.671 125.869 152.832 123.535C152.183 123 151.494 122.435 151.21 121.641C150.751 120.355 151.518 118.963 152.406 117.927C154.285 115.74 156.873 114.17 159.681 113.511C161.258 113.143 162.928 113.043 164.362 112.297C166.331 111.277 167.606 109.169 169.644 108.293C171.737 107.393 174.37 107.915 176.179 106.532C178.212 104.977 178.013 101.583 176.252 99.7223C174.491 97.8619 171.716 97.3153 169.164 97.4995C166.86 97.6656 164.507 98.3361 162.278 97.717C160.756 97.2942 159.452 96.2976 158.319 95.1953C151.712 88.7628 150.211 77.7157 154.861 69.7551C155.65 68.4081 156.61 67.0914 156.852 65.5512C157.057 64.2315 156.71 62.8937 156.568 61.5649C155.885 55.232 157.839 51.5114 161.237 49.5786C175.355 62.6521 184.191 81.3427 184.191 102.099Z" fill="#155053"/>
<path d="M158 46.5C155.977 48.8133 149.892 47.5189 147.189 47.4132C142.747 47.238 142.856 50.252 139.781 53.1964C136.922 55.9355 133.243 57.7203 129.716 59.4296C127.475 60.5138 124.395 61.441 122.824 59.5082C122.1 58.6143 121.942 57.2945 121.04 56.5788C119.454 55.3195 117.252 56.8325 115.61 58.0133C111.904 60.6799 107.114 61.7882 102.612 61.0272C99.7155 60.538 96.463 58.5357 96.7378 55.6124C96.8103 54.8514 97.1214 54.0632 96.8375 53.3535C96.3452 52.1243 94.6329 52.1666 93.3102 52.2179C90.7251 52.3206 88.0312 51.5687 86.1649 49.7808C84.2985 47.993 83.4318 45.0818 84.4193 42.6899C84.8361 41.6813 85.5458 40.7994 85.8629 39.7545C86.2404 38.5043 86.0139 37.1332 86.3914 35.8829C86.5847 35.2427 87.5953 34.4651 88 34C95.5892 31.2609 103.077 30 111.611 30C128.922 29.997 145.621 36.2683 158 46.5Z" fill="#155053"/>
<path opacity="0.16" d="M160.026 73.7407C165.156 79.2492 167.146 86.9397 168.382 94.3671C169.464 100.872 170.103 107.593 168.612 114.018C167.122 120.443 163.204 126.584 157.217 129.349C151.232 132.113 143.172 130.632 139.58 125.103C138.371 123.24 137.711 121.067 137.306 118.882C136.055 112.161 137.061 105.186 135.955 98.4415C135.121 93.353 133.107 88.5364 130.917 83.8676C129.796 81.4756 128.613 79.0777 128.057 76.4935C127.501 73.9093 127.637 71.0678 129.024 68.8207C130.627 66.2246 133.69 64.7965 136.727 64.5067C144.964 63.7173 154.473 67.7769 160.026 73.7407Z" fill="#CBFFF3"/>
<path opacity="0.38" d="M126.531 50.8249C128.201 52.1761 129.742 53.7876 130.517 55.7893C131.291 57.791 131.161 60.2481 129.757 61.8714C128.429 63.4089 126.3 63.9263 124.313 64.361C122.105 64.8429 119.866 65.3278 117.607 65.2509C115.348 65.1741 113.024 64.4733 111.419 62.8826C110.115 61.5905 109.39 59.8371 108.722 58.1281C107.676 55.4611 106.673 52.4925 107.655 49.7989C110.688 41.4815 122.211 47.33 126.531 50.8249Z" fill="#ACFFEC" fill-opacity="0.24"/>
<g filter="url(#filter1_i)">
<path d="M55.7675 95.2H58.4275L60.7375 99.96L63.0475 95.2H65.7075L61.9975 102.41V105H59.4775V102.41L55.7675 95.2ZM72.9929 97.86C72.9929 97.3 72.7129 97.02 72.1529 97.02H69.7729C69.2129 97.02 68.9329 97.3 68.9329 97.86V102.34C68.9329 102.9 69.2129 103.18 69.7729 103.18H72.1529C72.7129 103.18 72.9929 102.9 72.9929 102.34V97.86ZM75.5129 102.34C75.5129 103.32 75.2889 104.034 74.8409 104.482C74.4023 104.921 73.6929 105.14 72.7129 105.14H69.2129C68.2329 105.14 67.5189 104.921 67.0709 104.482C66.6323 104.034 66.4129 103.32 66.4129 102.34V97.86C66.4129 96.88 66.6323 96.1707 67.0709 95.732C67.5189 95.284 68.2329 95.06 69.2129 95.06H72.7129C73.6929 95.06 74.4023 95.284 74.8409 95.732C75.2889 96.1707 75.5129 96.88 75.5129 97.86V102.34ZM83.9195 95.2H86.4395V102.34C86.4395 103.32 86.2155 104.034 85.7675 104.482C85.3288 104.921 84.6195 105.14 83.6395 105.14H80.4195C79.4395 105.14 78.7255 104.921 78.2775 104.482C77.8388 104.034 77.6195 103.32 77.6195 102.34V95.2H80.1395V102.34C80.1395 102.9 80.4195 103.18 80.9795 103.18H83.0795C83.6395 103.18 83.9195 102.9 83.9195 102.34V95.2ZM95.4668 105H92.7368L96.4468 95.2H99.2468L102.957 105H100.227L99.5968 103.25H96.0968L95.4668 105ZM96.7268 101.43H98.9668L97.8468 98.14L96.7268 101.43ZM104.356 95.2H110.236C111.216 95.2 111.926 95.424 112.364 95.872C112.812 96.3107 113.036 97.02 113.036 98V99.26C113.036 100.035 112.906 100.637 112.644 101.066C112.392 101.495 111.986 101.78 111.426 101.92L113.176 105H110.446L108.836 102.06H106.876V105H104.356V95.2ZM110.516 98C110.516 97.44 110.236 97.16 109.676 97.16H106.876V100.1H109.676C110.236 100.1 110.516 99.82 110.516 99.26V98ZM122.902 105H115.132V95.2H122.902V97.16H117.652V99.05H121.782V101.01H117.652V103.04H122.902V105ZM138.156 105H135.636V101.01H132.136V105H129.616V95.2H132.136V99.05H135.636V95.2H138.156V105ZM148.313 105H140.543V95.2H148.313V97.16H143.063V99.05H147.193V101.01H143.063V103.04H148.313V105ZM150.13 95.2H156.01C156.99 95.2 157.699 95.424 158.138 95.872C158.586 96.3107 158.81 97.02 158.81 98V99.26C158.81 100.035 158.679 100.637 158.418 101.066C158.166 101.495 157.76 101.78 157.2 101.92L158.95 105H156.22L154.61 102.06H152.65V105H150.13V95.2ZM156.29 98C156.29 97.44 156.01 97.16 155.45 97.16H152.65V100.1H155.45C156.01 100.1 156.29 99.82 156.29 99.26V98ZM168.676 105H160.906V95.2H168.676V97.16H163.426V99.05H167.556V101.01H163.426V103.04H168.676V105Z" fill="white"/>
</g>
<g filter="url(#filter2_i)">
<path d="M106.395 62H96.405V49.4H106.395V51.92H99.645V54.35H104.955V56.87H99.645V59.48H106.395V62ZM115.751 62H112.511V51.92H108.731V49.4H119.531V51.92H115.751V62ZM132.313 61.82C129.637 62.06 127.417 62.18 125.653 62.18C124.477 62.18 123.613 61.904 123.061 61.352C122.509 60.8 122.233 59.936 122.233 58.76V53C122.233 51.74 122.515 50.828 123.079 50.264C123.655 49.688 124.573 49.4 125.833 49.4H132.313V51.92H126.553C125.833 51.92 125.473 52.28 125.473 53V58.76C125.473 59.036 125.551 59.258 125.707 59.426C125.875 59.582 126.085 59.66 126.337 59.66C126.589 59.66 126.865 59.66 127.165 59.66C127.465 59.648 127.777 59.636 128.101 59.624C128.425 59.612 128.749 59.6 129.073 59.588C129.409 59.576 129.835 59.552 130.351 59.516C130.879 59.48 131.533 59.438 132.313 59.39V61.82Z" fill="white"/>
</g>
<path opacity="0.32" d="M93.5 32.5C80.6273 45.4008 72.99 64.2613 72.99 83.9358C72.99 123.315 104.88 155.237 144.219 155.237C150.223 155.237 156.929 154.902 162.5 153.5C149.609 166.419 130.914 174 111.229 174C72 173.5 40.5 142 40 102.699C40 69 62.5744 40.2723 93.5 32.5Z" fill="#40434C"/>
<path opacity="0.1" d="M0 54C0 76.0902 17.9098 94 40 94C62.0902 94 80 76.0902 80 54C80 31.9098 62.0902 14 40 14C17.9098 14 0 31.9052 0 54Z" fill="#EEAD30"/>
<path d="M8.15798 57.1545C6.41711 39.5674 19.2631 23.8988 36.8502 22.158C54.4374 20.4171 70.1059 33.2631 71.8467 50.8503C73.5876 68.4375 60.7416 84.1059 43.1545 85.8467C25.5673 87.5876 9.89885 74.7417 8.15798 57.1545Z" fill="url(#paint1_linear)"/>
<g filter="url(#filter3_i)">
<path fill-rule="evenodd" clip-rule="evenodd" d="M31 51.3383L40.4059 47.3619L49.5225 51.4399L40.3915 37L31 51.3383ZM31.0289 55.7501L40.4204 61.2068L50 55.7501L40.5072 69L31.0289 55.7501Z" fill="#CEFFE2"/>
<path fill-rule="evenodd" clip-rule="evenodd" d="M40.6352 49.549L31 53.607L40.6352 58.9608L50 53.721L40.6352 49.549Z" fill="#CEFFE2"/>
</g>
<path opacity="0.32" d="M32.6584 23.0005C26.9031 28.7448 22.3724 37.1549 22.3724 45.9122C22.3724 63.4409 30.1582 74.1483 45 78.0005C51.2384 79.6197 59.0086 78.2757 61.5 77.6515C55.7353 83.4005 48.2665 86.0005 39.4687 86.0005C21.8087 85.6317 8 71.2165 8 54.3161C8 39.4625 17.3702 26.9771 32.6584 23.0005Z" fill="#40434C"/>
<path opacity="0.16" d="M62.1484 40.4546C64.53 42.9067 65.4538 46.3266 66.0263 49.6267C66.5267 52.5212 66.825 55.5079 66.1321 58.3656C65.4393 61.2232 63.6207 63.9518 60.8446 65.1824C58.0637 66.413 54.3254 65.7539 52.6559 63.2927C52.093 62.463 51.7899 61.4997 51.6023 60.5272C51.0202 57.5359 51.4868 54.4386 50.9768 51.4381C50.5871 49.1751 49.6538 47.0318 48.6386 44.9577C48.119 43.893 47.5706 42.8283 47.3107 41.6807C47.0509 40.533 47.1135 39.2701 47.7582 38.2699C48.5039 37.1177 49.9232 36.4816 51.3329 36.3526C55.153 35.9977 59.5696 37.8044 62.1484 40.4546Z" fill="white"/>
<g filter="url(#filter4_dd)">
<path d="M170.03 28.591C169.703 25.2936 172.112 22.356 175.409 22.0296C178.706 21.7032 181.644 24.1117 181.97 27.409C182.297 30.7064 179.888 33.644 176.591 33.9704C173.294 34.2968 170.356 31.8883 170.03 28.591Z" fill="url(#paint2_linear)"/>
</g>
<g filter="url(#filter5_i)">
<path d="M100.294 79H98.1345V70.6H104.794V72.28H100.294V74.26H103.834V75.94H100.294V79ZM106.234 70.6H111.274C112.114 70.6 112.722 70.792 113.098 71.176C113.482 71.552 113.674 72.16 113.674 73V74.08C113.674 74.744 113.562 75.26 113.338 75.628C113.122 75.996 112.774 76.24 112.294 76.36L113.794 79H111.454L110.074 76.48H108.394V79H106.234V70.6ZM111.514 73C111.514 72.52 111.274 72.28 110.794 72.28H108.394V74.8H110.794C111.274 74.8 111.514 74.56 111.514 74.08V73ZM122.131 79H115.471V70.6H122.131V72.28H117.631V73.9H121.171V75.58H117.631V77.32H122.131V79ZM130.348 79H123.688V70.6H130.348V72.28H125.848V73.9H129.388V75.58H125.848V77.32H130.348V79Z" fill="white"/>
</g>
<defs>
<filter id="filter0_dddi" x="10.5216" y="0.521588" width="211.379" height="211.379" filterUnits="userSpaceOnUse" color-interpolation-filters="sRGB">
<feFlood flood-opacity="0" result="BackgroundImageFix"/>
<feColorMatrix in="SourceAlpha" type="matrix" values="0 0 0 0 0 0 0 0 0 0 0 0 0 0 0 0 0 0 127 0"/>
<feOffset dx="4.2112" dy="4.2112"/>
<feGaussianBlur stdDeviation="16.8448"/>
<feColorMatrix type="matrix" values="0 0 0 0 0.138902 0 0 0 0 0.992157 0 0 0 0 0 0 0 0 1 0"/>
<feBlend mode="normal" in2="BackgroundImageFix" result="effect1_dropShadow"/>
<feColorMatrix in="SourceAlpha" type="matrix" values="0 0 0 0 0 0 0 0 0 0 0 0 0 0 0 0 0 0 127 0"/>
<feOffset dx="-4.2112" dy="-4.2112"/>
<feGaussianBlur stdDeviation="8.4224"/>
<feColorMatrix type="matrix" values="0 0 0 0 0 0 0 0 0 1 0 0 0 0 0.879699 0 0 0 1 0"/>
<feBlend mode="normal" in2="effect1_dropShadow" result="effect2_dropShadow"/>
<feColorMatrix in="SourceAlpha" type="matrix" values="0 0 0 0 0 0 0 0 0 0 0 0 0 0 0 0 0 0 127 0"/>
<feOffset/>
<feGaussianBlur stdDeviation="4.2112"/>
<feColorMatrix type="matrix" values="0 0 0 0 1 0 0 0 0 1 0 0 0 0 1 0 0 0 1 0"/>
<feBlend mode="normal" in2="effect2_dropShadow" result="effect3_dropShadow"/>
<feBlend mode="normal" in="SourceGraphic" in2="effect3_dropShadow" result="shape"/>
<feColorMatrix in="SourceAlpha" type="matrix" values="0 0 0 0 0 0 0 0 0 0 0 0 0 0 0 0 0 0 127 0" result="hardAlpha"/>
<feMorphology radius="4.2112" operator="erode" in="SourceAlpha" result="effect4_innerShadow"/>
<feOffset dx="4.2112" dy="-4.2112"/>
<feGaussianBlur stdDeviation="2.1056"/>
<feComposite in2="hardAlpha" operator="arithmetic" k2="-1" k3="1"/>
<feColorMatrix type="matrix" values="0 0 0 0 0 0 0 0 0 0.0241379 0 0 0 0 0.025 0 0 0 0.6 0"/>
<feBlend mode="normal" in2="shape" result="effect4_innerShadow"/>
</filter>
<filter id="filter1_i" x="55.2656" y="95.0601" width="113.408" height="10.58" filterUnits="userSpaceOnUse" color-interpolation-filters="sRGB">
<feFlood flood-opacity="0" result="BackgroundImageFix"/>
<feBlend mode="normal" in="SourceGraphic" in2="BackgroundImageFix" result="shape"/>
<feColorMatrix in="SourceAlpha" type="matrix" values="0 0 0 0 0 0 0 0 0 0 0 0 0 0 0 0 0 0 127 0" result="hardAlpha"/>
<feOffset dx="-0.5" dy="0.5"/>
<feGaussianBlur stdDeviation="0.25"/>
<feComposite in2="hardAlpha" operator="arithmetic" k2="-1" k3="1"/>
<feColorMatrix type="matrix" values="0 0 0 0 0.0666667 0 0 0 0 0.305882 0 0 0 0 0.298039 0 0 0 1 0"/>
<feBlend mode="normal" in2="shape" result="effect1_innerShadow"/>
</filter>
<filter id="filter2_i" x="95.9062" y="49.3999" width="36.4079" height="13.28" filterUnits="userSpaceOnUse" color-interpolation-filters="sRGB">
<feFlood flood-opacity="0" result="BackgroundImageFix"/>
<feBlend mode="normal" in="SourceGraphic" in2="BackgroundImageFix" result="shape"/>
<feColorMatrix in="SourceAlpha" type="matrix" values="0 0 0 0 0 0 0 0 0 0 0 0 0 0 0 0 0 0 127 0" result="hardAlpha"/>
<feOffset dx="-0.5" dy="0.5"/>
<feGaussianBlur stdDeviation="0.25"/>
<feComposite in2="hardAlpha" operator="arithmetic" k2="-1" k3="1"/>
<feColorMatrix type="matrix" values="0 0 0 0 0.0666667 0 0 0 0 0.305882 0 0 0 0 0.298039 0 0 0 1 0"/>
<feBlend mode="normal" in2="shape" result="effect1_innerShadow"/>
</filter>
<filter id="filter3_i" x="30" y="37" width="20" height="33" filterUnits="userSpaceOnUse" color-interpolation-filters="sRGB">
<feFlood flood-opacity="0" result="BackgroundImageFix"/>
<feBlend mode="normal" in="SourceGraphic" in2="BackgroundImageFix" result="shape"/>
<feColorMatrix in="SourceAlpha" type="matrix" values="0 0 0 0 0 0 0 0 0 0 0 0 0 0 0 0 0 0 127 0" result="hardAlpha"/>
<feOffset dx="-1" dy="1"/>
<feGaussianBlur stdDeviation="0.5"/>
<feComposite in2="hardAlpha" operator="arithmetic" k2="-1" k3="1"/>
<feColorMatrix type="matrix" values="0 0 0 0 0 0 0 0 0 0 0 0 0 0 0 0 0 0 0.61 0"/>
<feBlend mode="normal" in2="shape" result="effect1_innerShadow"/>
</filter>
<filter id="filter4_dd" x="165.877" y="17.8769" width="27.1231" height="26.1231" filterUnits="userSpaceOnUse" color-interpolation-filters="sRGB">
<feFlood flood-opacity="0" result="BackgroundImageFix"/>
<feColorMatrix in="SourceAlpha" type="matrix" values="0 0 0 0 0 0 0 0 0 0 0 0 0 0 0 0 0 0 127 0"/>
<feOffset dx="5" dy="4"/>
<feGaussianBlur stdDeviation="3"/>
<feColorMatrix type="matrix" values="0 0 0 0 0.956863 0 0 0 0 0.494118 0 0 0 0 0.137255 0 0 0 0.35 0"/>
<feBlend mode="normal" in2="BackgroundImageFix" result="effect1_dropShadow"/>
<feColorMatrix in="SourceAlpha" type="matrix" values="0 0 0 0 0 0 0 0 0 0 0 0 0 0 0 0 0 0 127 0"/>
<feOffset/>
<feGaussianBlur stdDeviation="2.06153"/>
<feColorMatrix type="matrix" values="0 0 0 0 1 0 0 0 0 1 0 0 0 0 1 0 0 0 0.29 0"/>
<feBlend mode="hard-light" in2="effect1_dropShadow" result="effect2_dropShadow"/>
<feBlend mode="normal" in="SourceGraphic" in2="effect2_dropShadow" result="shape"/>
</filter>
<filter id="filter5_i" x="97.9328" y="70.6001" width="32.4139" height="8.7" filterUnits="userSpaceOnUse" color-interpolation-filters="sRGB">
<feFlood flood-opacity="0" result="BackgroundImageFix"/>
<feBlend mode="normal" in="SourceGraphic" in2="BackgroundImageFix" result="shape"/>
<feColorMatrix in="SourceAlpha" type="matrix" values="0 0 0 0 0 0 0 0 0 0 0 0 0 0 0 0 0 0 127 0" result="hardAlpha"/>
<feOffset dx="-0.2" dy="0.3"/>
<feGaussianBlur stdDeviation="0.25"/>
<feComposite in2="hardAlpha" operator="arithmetic" k2="-1" k3="1"/>
<feColorMatrix type="matrix" values="0 0 0 0 0.0666667 0 0 0 0 0.305882 0 0 0 0 0.298039 0 0 0 1 0"/>
<feBlend mode="normal" in2="shape" result="effect1_innerShadow"/>
</filter>
<linearGradient id="paint0_linear" x1="112" y1="30" x2="112" y2="174" gradientUnits="userSpaceOnUse">
<stop stop-color="#17473E"/>
<stop offset="1" stop-color="#0C1A1D"/>
</linearGradient>
<linearGradient id="paint1_linear" x1="58.5222" y1="22" x2="29.802" y2="81.0804" gradientUnits="userSpaceOnUse">
<stop stop-color="#61FCA0"/>
<stop offset="0.161458" stop-color="#2FE077"/>
<stop offset="0.540611" stop-color="#12A24D"/>
<stop offset="1" stop-color="#0C533E"/>
</linearGradient>
<linearGradient id="paint2_linear" x1="181.629" y1="23.9539" x2="171.137" y2="30.403" gradientUnits="userSpaceOnUse">
<stop stop-color="#FAFF00"/>
<stop offset="0.213542" stop-color="#EEC430"/>
<stop offset="0.598958" stop-color="#EE8F30"/>
<stop offset="1" stop-color="#FF630E"/>
</linearGradient>
</defs>
</svg>
