<svg width="227" height="154" viewBox="0 0 227 154" fill="none" xmlns="http://www.w3.org/2000/svg">
<path opacity="0.1" d="M139 203.001C90.3989 203.001 51 163.602 51 115.001C51 66.3994 90.3989 27.0005 139 27.0005C187.601 27.0005 227 66.3994 227 115.001C227 163.602 187.601 203.001 139 203.001Z" fill="white"/>
<g opacity="0.9" filter="url(#filter0_dii)">
<path d="M88.0883 165.912C59.9705 137.794 59.9706 92.2061 88.0883 64.0883C116.206 35.9706 161.794 35.9705 189.912 64.0883C218.029 92.2061 218.029 137.794 189.912 165.912C161.794 194.029 116.206 194.029 88.0883 165.912Z" fill="url(#paint0_linear)"/>
</g>
<path opacity="0.16" d="M187.026 86.7407C192.156 92.2492 194.146 99.9397 195.382 107.367C196.464 113.872 197.103 120.593 195.612 127.018C194.122 133.443 190.204 139.584 184.217 142.349C178.232 145.113 170.172 143.632 166.58 138.103C165.371 136.24 164.711 134.067 164.306 131.882C163.055 125.161 164.061 118.186 162.955 111.442C162.121 106.353 160.107 101.536 157.917 96.8676C156.796 94.4756 155.613 92.0777 155.057 89.4935C154.501 86.9093 154.637 84.0678 156.024 81.8207C157.627 79.2246 160.69 77.7965 163.727 77.5067C171.964 76.7173 181.473 80.7769 187.026 86.7407Z" fill="#CBFFF3"/>
<path opacity="0.38" d="M153.531 63.8249C155.201 65.1761 156.742 66.7876 157.517 68.7893C158.291 70.791 158.161 73.2481 156.757 74.8714C155.429 76.4089 153.3 76.9263 151.313 77.361C149.105 77.8429 146.866 78.3278 144.607 78.2509C142.348 78.1741 140.024 77.4733 138.419 75.8826C137.115 74.5905 136.39 72.8371 135.722 71.1281C134.676 68.4611 133.673 65.4925 134.655 62.7989C137.688 54.4815 149.211 60.33 153.531 63.8249Z" fill="#ACFFEC" fill-opacity="0.3"/>
<g filter="url(#filter1_i)">
<path d="M100.57 103.4H112.33C114.29 103.4 115.709 103.848 116.586 104.744C117.482 105.621 117.93 107.04 117.93 109V111.8C117.93 113.76 117.482 115.188 116.586 116.084C115.709 116.961 114.29 117.4 112.33 117.4H105.61V123H100.57V103.4ZM112.89 109C112.89 107.88 112.33 107.32 111.21 107.32H105.61V113.48H111.21C112.33 113.48 112.89 112.92 112.89 111.8V109ZM127.729 119.08H137.949V123H122.689V103.4H127.729V119.08ZM145.655 123H140.195L147.615 103.4H153.215L160.635 123H155.175L153.915 119.5H146.915L145.655 123ZM148.175 115.86H152.655L150.415 109.28L148.175 115.86ZM159.792 103.4H165.112L169.732 112.92L174.352 103.4H179.672L172.252 117.82V123H167.212V117.82L159.792 103.4Z" fill="white"/>
</g>
<g filter="url(#filter2_i)">
<path d="M132.402 75H122.412V62.4H132.402V64.92H125.652V67.35H130.962V69.87H125.652V72.48H132.402V75ZM141.758 75H138.518V64.92H134.738V62.4H145.538V64.92H141.758V75ZM159.58 75H156.34V69.87H151.84V75H148.6V62.4H151.84V67.35H156.34V62.4H159.58V75Z" fill="white"/>
</g>
<g filter="url(#filter3_i)">
<path d="M127.294 92H125.134V83.6H131.794V85.28H127.294V87.26H130.834V88.94H127.294V92ZM133.234 83.6H138.274C139.114 83.6 139.722 83.792 140.098 84.176C140.482 84.552 140.674 85.16 140.674 86V87.08C140.674 87.744 140.562 88.26 140.338 88.628C140.122 88.996 139.774 89.24 139.294 89.36L140.794 92H138.454L137.074 89.48H135.394V92H133.234V83.6ZM138.514 86C138.514 85.52 138.274 85.28 137.794 85.28H135.394V87.8H137.794C138.274 87.8 138.514 87.56 138.514 87.08V86ZM149.131 92H142.471V83.6H149.131V85.28H144.631V86.9H148.171V88.58H144.631V90.32H149.131V92ZM157.348 92H150.688V83.6H157.348V85.28H152.848V86.9H156.388V88.58H152.848V90.32H157.348V92Z" fill="white"/>
</g>
<path opacity="0.32" d="M120.5 45.5C107.627 58.4008 99.99 77.2613 99.99 96.9358C99.99 136.315 131.88 168.237 171.219 168.237C177.223 168.237 183.929 167.902 189.5 166.5C176.609 179.419 157.914 187 138.229 187C98.8902 187 67 155.078 67 115.699C66.997 82.3296 89.5744 53.2723 120.5 45.5Z" fill="#40434C"/>
<path opacity="0.1" d="M27 67C27 89.0902 44.9098 107 67 107C89.0902 107 107 89.0902 107 67C107 44.9098 89.0902 27 67 27C44.9098 27 27 44.9052 27 67Z" fill="#EEAD30"/>
<g filter="url(#filter4_ddd)">
<path d="M35.158 70.1545C33.4171 52.5674 46.2631 36.8988 63.8502 35.158C81.4374 33.4171 97.1059 46.2631 98.8467 63.8503C100.588 81.4375 87.7416 97.1059 70.1545 98.8467C52.5673 100.588 36.8988 87.7417 35.158 70.1545Z" fill="url(#paint1_linear)"/>
</g>
<g filter="url(#filter5_i)">
<path d="M66.4977 69.84L76 65.0317L71.0382 57.1815L66.4977 50L57.009 65.0172L57 65.0317L66.4977 69.84Z" fill="#D7D8FF"/>
<path d="M57.8954 68.0301L57.7917 68.1082L66.8327 82L76 67.92L66.8327 72.4216L57.8954 68.0301Z" fill="#D7D8FF"/>
</g>
<path opacity="0.32" d="M59.6584 36.0005C53.9031 41.7448 49.3724 50.1549 49.3724 58.9122C49.3724 76.4409 57.1582 87.1483 72 91.0005C78.2384 92.6197 86.0086 91.2757 88.5 90.6515C82.7353 96.4005 75.2665 99.0005 66.4687 99.0005C48.8087 98.6317 35 84.2165 35 67.3161C35 52.4625 44.3702 39.9771 59.6584 36.0005Z" fill="#40434C"/>
<path opacity="0.16" d="M89.1484 53.4546C91.53 55.9067 92.4538 59.3266 93.0263 62.6267C93.5267 65.5212 93.825 68.5079 93.1321 71.3656C92.4393 74.2232 90.6207 76.9518 87.8446 78.1824C85.0637 79.413 81.3254 78.7539 79.6559 76.2927C79.093 75.463 78.7899 74.4997 78.6023 73.5272C78.0202 70.5359 78.4868 67.4386 77.9768 64.4381C77.5871 62.1751 76.6538 60.0318 75.6386 57.9577C75.119 56.893 74.5706 55.8283 74.3107 54.6807C74.0509 53.533 74.1135 52.2701 74.7582 51.2699C75.5039 50.1177 76.9232 49.4816 78.3329 49.3526C82.153 48.9977 86.5696 50.8044 89.1484 53.4546Z" fill="white"/>
<g filter="url(#filter6_dd)">
<path d="M197.03 41.591C196.703 38.2936 199.112 35.356 202.409 35.0296C205.706 34.7032 208.644 37.1117 208.97 40.409C209.297 43.7064 206.888 46.644 203.591 46.9704C200.294 47.2968 197.356 44.8883 197.03 41.591Z" fill="url(#paint2_linear)"/>
</g>
<defs>
<filter id="filter0_dii" x="43.9108" y="28.157" width="181.932" height="181.932" filterUnits="userSpaceOnUse" color-interpolation-filters="sRGB">
<feFlood flood-opacity="0" result="BackgroundImageFix"/>
<feColorMatrix in="SourceAlpha" type="matrix" values="0 0 0 0 0 0 0 0 0 0 0 0 0 0 0 0 0 0 127 0"/>
<feMorphology radius="2.47384" operator="dilate" in="SourceAlpha" result="effect1_dropShadow"/>
<feOffset dx="-4.12306" dy="4.12306"/>
<feGaussianBlur stdDeviation="8.24613"/>
<feColorMatrix type="matrix" values="0 0 0 0 0 0 0 0 0 0.0231884 0 0 0 0 0.0333333 0 0 0 1 0"/>
<feBlend mode="normal" in2="BackgroundImageFix" result="effect1_dropShadow"/>
<feBlend mode="normal" in="SourceGraphic" in2="effect1_dropShadow" result="shape"/>
<feColorMatrix in="SourceAlpha" type="matrix" values="0 0 0 0 0 0 0 0 0 0 0 0 0 0 0 0 0 0 127 0" result="hardAlpha"/>
<feMorphology radius="4.12306" operator="erode" in="SourceAlpha" result="effect2_innerShadow"/>
<feOffset dx="-0.824613"/>
<feGaussianBlur stdDeviation="4.12306"/>
<feComposite in2="hardAlpha" operator="arithmetic" k2="-1" k3="1"/>
<feColorMatrix type="matrix" values="0 0 0 0 0 0 0 0 0 1 0 0 0 0 0.761589 0 0 0 1 0"/>
<feBlend mode="normal" in2="shape" result="effect2_innerShadow"/>
<feColorMatrix in="SourceAlpha" type="matrix" values="0 0 0 0 0 0 0 0 0 0 0 0 0 0 0 0 0 0 127 0" result="hardAlpha"/>
<feMorphology radius="4.12306" operator="erode" in="SourceAlpha" result="effect3_innerShadow"/>
<feOffset dx="4.12306" dy="-4.12306"/>
<feGaussianBlur stdDeviation="2.06153"/>
<feComposite in2="hardAlpha" operator="arithmetic" k2="-1" k3="1"/>
<feColorMatrix type="matrix" values="0 0 0 0 0.12549 0 0 0 0 0.105882 0 0 0 0 0.231373 0 0 0 1 0"/>
<feBlend mode="normal" in2="effect2_innerShadow" result="effect3_innerShadow"/>
</filter>
<filter id="filter1_i" x="99.5703" y="103.4" width="80.1022" height="19.6" filterUnits="userSpaceOnUse" color-interpolation-filters="sRGB">
<feFlood flood-opacity="0" result="BackgroundImageFix"/>
<feBlend mode="normal" in="SourceGraphic" in2="BackgroundImageFix" result="shape"/>
<feColorMatrix in="SourceAlpha" type="matrix" values="0 0 0 0 0 0 0 0 0 0 0 0 0 0 0 0 0 0 127 0" result="hardAlpha"/>
<feOffset dx="-1"/>
<feGaussianBlur stdDeviation="0.5"/>
<feComposite in2="hardAlpha" operator="arithmetic" k2="-1" k3="1"/>
<feColorMatrix type="matrix" values="0 0 0 0 0.0666667 0 0 0 0 0.305882 0 0 0 0 0.298039 0 0 0 1 0"/>
<feBlend mode="normal" in2="shape" result="effect1_innerShadow"/>
</filter>
<filter id="filter2_i" x="121.91" y="62.3999" width="37.6679" height="13.1" filterUnits="userSpaceOnUse" color-interpolation-filters="sRGB">
<feFlood flood-opacity="0" result="BackgroundImageFix"/>
<feBlend mode="normal" in="SourceGraphic" in2="BackgroundImageFix" result="shape"/>
<feColorMatrix in="SourceAlpha" type="matrix" values="0 0 0 0 0 0 0 0 0 0 0 0 0 0 0 0 0 0 127 0" result="hardAlpha"/>
<feOffset dx="-0.5" dy="0.5"/>
<feGaussianBlur stdDeviation="0.25"/>
<feComposite in2="hardAlpha" operator="arithmetic" k2="-1" k3="1"/>
<feColorMatrix type="matrix" values="0 0 0 0 0.0666667 0 0 0 0 0.305882 0 0 0 0 0.298039 0 0 0 1 0"/>
<feBlend mode="normal" in2="shape" result="effect1_innerShadow"/>
</filter>
<filter id="filter3_i" x="124.933" y="83.6001" width="32.4139" height="8.7" filterUnits="userSpaceOnUse" color-interpolation-filters="sRGB">
<feFlood flood-opacity="0" result="BackgroundImageFix"/>
<feBlend mode="normal" in="SourceGraphic" in2="BackgroundImageFix" result="shape"/>
<feColorMatrix in="SourceAlpha" type="matrix" values="0 0 0 0 0 0 0 0 0 0 0 0 0 0 0 0 0 0 127 0" result="hardAlpha"/>
<feOffset dx="-0.2" dy="0.3"/>
<feGaussianBlur stdDeviation="0.25"/>
<feComposite in2="hardAlpha" operator="arithmetic" k2="-1" k3="1"/>
<feColorMatrix type="matrix" values="0 0 0 0 0.0666667 0 0 0 0 0.305882 0 0 0 0 0.298039 0 0 0 1 0"/>
<feBlend mode="normal" in2="shape" result="effect1_innerShadow"/>
</filter>
<filter id="filter4_ddd" x="0.779831" y="0.779831" width="142.222" height="142.222" filterUnits="userSpaceOnUse" color-interpolation-filters="sRGB">
<feFlood flood-opacity="0" result="BackgroundImageFix"/>
<feColorMatrix in="SourceAlpha" type="matrix" values="0 0 0 0 0 0 0 0 0 0 0 0 0 0 0 0 0 0 127 0"/>
<feOffset dx="-4.8886" dy="-4.8886"/>
<feGaussianBlur stdDeviation="9.77719"/>
<feColorMatrix type="matrix" values="0 0 0 0 0.44969 0 0 0 0 0.379097 0 0 0 0 0.883333 0 0 0 1 0"/>
<feBlend mode="normal" in2="BackgroundImageFix" result="effect1_dropShadow"/>
<feColorMatrix in="SourceAlpha" type="matrix" values="0 0 0 0 0 0 0 0 0 0 0 0 0 0 0 0 0 0 127 0"/>
<feOffset dx="4.8886" dy="4.8886"/>
<feGaussianBlur stdDeviation="19.5544"/>
<feColorMatrix type="matrix" values="0 0 0 0 0.207843 0 0 0 0 0.278431 0 0 0 0 0.603922 0 0 0 1 0"/>
<feBlend mode="normal" in2="effect1_dropShadow" result="effect2_dropShadow"/>
<feColorMatrix in="SourceAlpha" type="matrix" values="0 0 0 0 0 0 0 0 0 0 0 0 0 0 0 0 0 0 127 0"/>
<feOffset/>
<feGaussianBlur stdDeviation="2.4443"/>
<feColorMatrix type="matrix" values="0 0 0 0 1 0 0 0 0 1 0 0 0 0 1 0 0 0 0.29 0"/>
<feBlend mode="hard-light" in2="effect2_dropShadow" result="effect3_dropShadow"/>
<feBlend mode="normal" in="SourceGraphic" in2="effect3_dropShadow" result="shape"/>
</filter>
<filter id="filter5_i" x="56" y="50" width="20" height="33" filterUnits="userSpaceOnUse" color-interpolation-filters="sRGB">
<feFlood flood-opacity="0" result="BackgroundImageFix"/>
<feBlend mode="normal" in="SourceGraphic" in2="BackgroundImageFix" result="shape"/>
<feColorMatrix in="SourceAlpha" type="matrix" values="0 0 0 0 0 0 0 0 0 0 0 0 0 0 0 0 0 0 127 0" result="hardAlpha"/>
<feOffset dx="-1" dy="1"/>
<feGaussianBlur stdDeviation="0.5"/>
<feComposite in2="hardAlpha" operator="arithmetic" k2="-1" k3="1"/>
<feColorMatrix type="matrix" values="0 0 0 0 0 0 0 0 0 0 0 0 0 0 0 0 0 0 0.61 0"/>
<feBlend mode="normal" in2="shape" result="effect1_innerShadow"/>
</filter>
<filter id="filter6_dd" x="192.877" y="30.8769" width="27.1231" height="26.1231" filterUnits="userSpaceOnUse" color-interpolation-filters="sRGB">
<feFlood flood-opacity="0" result="BackgroundImageFix"/>
<feColorMatrix in="SourceAlpha" type="matrix" values="0 0 0 0 0 0 0 0 0 0 0 0 0 0 0 0 0 0 127 0"/>
<feOffset dx="5" dy="4"/>
<feGaussianBlur stdDeviation="3"/>
<feColorMatrix type="matrix" values="0 0 0 0 0.956863 0 0 0 0 0.494118 0 0 0 0 0.137255 0 0 0 0.35 0"/>
<feBlend mode="normal" in2="BackgroundImageFix" result="effect1_dropShadow"/>
<feColorMatrix in="SourceAlpha" type="matrix" values="0 0 0 0 0 0 0 0 0 0 0 0 0 0 0 0 0 0 127 0"/>
<feOffset/>
<feGaussianBlur stdDeviation="2.06153"/>
<feColorMatrix type="matrix" values="0 0 0 0 1 0 0 0 0 1 0 0 0 0 1 0 0 0 0.29 0"/>
<feBlend mode="hard-light" in2="effect1_dropShadow" result="effect2_dropShadow"/>
<feBlend mode="normal" in="SourceGraphic" in2="effect2_dropShadow" result="shape"/>
</filter>
<linearGradient id="paint0_linear" x1="189.909" y1="64.0883" x2="88.0854" y2="165.912" gradientUnits="userSpaceOnUse">
<stop stop-color="#00A08A"/>
<stop offset="1" stop-color="#00362F"/>
</linearGradient>
<linearGradient id="paint1_linear" x1="85.5222" y1="35" x2="56.802" y2="94.0804" gradientUnits="userSpaceOnUse">
<stop stop-color="#B1AFFF"/>
<stop offset="0.526042" stop-color="#626FE5"/>
<stop offset="1" stop-color="#283C85"/>
</linearGradient>
<linearGradient id="paint2_linear" x1="208.629" y1="36.9539" x2="198.137" y2="43.403" gradientUnits="userSpaceOnUse">
<stop stop-color="#FAFF00"/>
<stop offset="0.213542" stop-color="#EEC430"/>
<stop offset="0.598958" stop-color="#EE8F30"/>
<stop offset="1" stop-color="#FF630E"/>
</linearGradient>
</defs>
</svg>
