<svg width="88" height="111" viewBox="0 0 88 111" fill="none" xmlns="http://www.w3.org/2000/svg">
<g filter="url(#filter0_i)">
<path d="M44 110.759C19.6995 110.759 0 91.0593 0 66.7588C0 42.4582 19.6995 22.7588 44 22.7588C68.3005 22.7588 88 42.4582 88 66.7588C88 91.0593 68.3005 110.759 44 110.759Z" fill="url(#paint0_linear)"/>
</g>
<mask id="mask0" mask-type="alpha" maskUnits="userSpaceOnUse" x="0" y="0" width="88" height="111">
<path d="M44 110.999C19.6995 110.999 0 91.2994 0 66.9989V0H88V66.9989C88 91.2994 68.3005 110.999 44 110.999Z" fill="url(#paint1_linear)"/>
</mask>
<g mask="url(#mask0)">
<path d="M10.0926 95.4042C9.85915 99.9648 10.0926 112.465 10.4155 113.465C20.4155 119.465 32.207 121.965 43.4155 121.965C54.4114 121.965 69.7003 118.123 77.4155 111.465C78.9155 110.17 78.3024 97.9648 78.1712 95.4042C77.8272 88.6837 76.028 82.8363 70.1013 79.0527C67.1379 77.1476 63.0103 75.9041 58.4329 75.1103C53.8555 74.3165 48.8548 73.999 44.1187 73.999C34.6729 73.999 24.0629 75.2691 18.1361 79.0527C12.2357 82.8363 10.4365 88.6837 10.0926 95.4042Z" fill="url(#paint2_linear)"/>
<path d="M31.7734 51.3607C31.7734 48.9 30.3976 45.9102 28.7042 45.9102C27.0108 45.9102 25.2646 46.3864 25.2646 48.8471C25.2646 50.0377 25.7937 52.6836 26.3229 53.8478C26.8786 55.0914 27.8311 55.8322 28.7042 55.8322C30.3976 55.8322 31.7734 53.8478 31.7734 51.3607Z" fill="#E9B999"/>
<path d="M44.1035 26.4897C56.0893 26.4897 59.3438 36.8087 59.3438 49.5619C59.3438 58.0023 56.6979 64.0349 51.7765 67.501C48.3104 69.9352 46.8816 70.6496 44.1035 70.6496C41.3253 70.6496 39.8965 69.9617 36.4304 67.501C31.509 64.0349 28.8631 58.0023 28.8631 49.5619C28.8631 36.8352 32.1176 26.4897 44.1035 26.4897Z" fill="#FDDDC8"/>
<path d="M55.2195 43.2267C52.8928 42.7078 50.0763 43.7609 49.2548 43.7988C48.7363 43.9416 48.61 44.4462 48.8498 44.7893C49.3036 45.3484 50.8372 45.3943 52.1897 44.7543C55.8906 43.0031 56.1452 44.7412 57.6004 46.4356C57.8142 46.5706 57.8912 46.4017 57.8912 46.4017C58.1602 46.1167 56.5129 43.5151 55.2195 43.2267Z" fill="#1D2247"/>
<path d="M35.1973 43.4914C37.5241 42.9726 40.77 43.9907 41.5915 44.0285C42.11 44.1713 42.2363 44.6759 41.9964 45.019C41.5427 45.5782 39.5796 45.659 38.2271 45.019C34.5262 43.2678 34.2716 45.0059 32.8164 46.7004C32.6026 46.8353 32.5256 46.6664 32.5256 46.6664C32.2567 46.3814 33.904 43.7798 35.1973 43.4914Z" fill="#1D2247"/>
<path d="M56.4325 51.3607C56.4325 48.9 57.8084 45.9102 59.5018 45.9102C61.1951 45.9102 62.9414 46.3864 62.9414 48.8471C62.9414 50.0377 62.4122 52.6836 61.8831 53.8478C61.3274 55.0914 60.3749 55.8322 59.5018 55.8322C57.8348 55.8322 56.4325 53.8478 56.4325 51.3607Z" fill="#FDDDC8"/>
<path d="M36.9846 72.8721V66.9453H51.2195V72.8721C51.2195 73.6659 51.6693 74.3802 52.3572 74.7242C53.9447 75.4915 59.3424 76.1265 60.4007 79.8308C62.6233 87.6626 50.8491 96.9232 44.1021 96.9232C37.0905 96.9232 26.1894 87.7684 27.7769 79.8308C28.5178 76.1794 34.2593 75.518 35.8469 74.7242C36.5613 74.3802 36.9846 73.6394 36.9846 72.8721Z" fill="#FDDDC8"/>
<path d="M36.9878 67.8975V72.7923C39.3426 74.327 40.7185 74.8032 43.0204 74.8032C45.7986 74.8032 47.2274 74.0888 50.6935 71.6546C50.8787 71.5223 51.0374 71.39 51.2227 71.2577V67.8975C48.1534 70.0142 46.7247 70.6492 44.1052 70.6492C41.4858 70.6492 40.057 70.0142 36.9878 67.8975Z" fill="#E9B999"/>
<path d="M44.1041 24.6375C37.353 24.6375 31.8801 19.982 31.8801 14.2391C31.8801 8.49631 37.353 3.84082 44.1041 3.84082C50.8553 3.84082 56.3281 8.49631 56.3281 14.2391C56.3281 19.982 50.8553 24.6375 44.1041 24.6375Z" fill="#1D2247"/>
<path d="M28.9414 52.1279C28.9149 51.6781 28.8885 51.2018 28.862 50.7256C28.8885 51.1754 28.9149 51.6517 28.9414 52.1279Z" fill="#29235C"/>
<path d="M51.6449 15.2445C51.6449 19.3985 48.7874 22.9705 44.6598 24.6374C51.1687 24.3993 56.3281 19.8483 56.3281 14.2655C56.3281 8.52394 50.8512 3.86719 44.1041 3.86719C42.2256 3.86719 40.4528 4.23761 38.8653 4.87262C47.5967 3.33801 51.6449 9.50292 51.6449 15.2445Z" fill="#3843A1"/>
<path d="M44.1042 26.4897C44.3158 26.4897 44.5275 26.4897 44.7391 26.5162C34.1821 26.8866 31.2716 37.0468 31.2716 49.5619C31.2716 58.0023 33.7058 64.0349 38.2567 67.501C41.1937 69.75 42.5431 70.5173 44.7656 70.6231C44.554 70.6231 44.3687 70.6496 44.1306 70.6496C41.3524 70.6496 39.9236 69.9617 36.4575 67.501C31.5362 64.0349 28.8903 58.0023 28.8903 49.5619C28.8639 36.8352 32.1183 26.4897 44.1042 26.4897Z" fill="#E9B999"/>
<path d="M59.3694 49.5618C59.3694 36.8086 51.6963 32.1519 51.6963 32.1519C51.6963 32.1519 47.9921 36.7557 44.1291 37.8934C37.2762 39.9308 28.8888 42.709 28.8888 49.5618C28.8888 50.4349 28.9152 51.3081 28.9946 52.1283C26.2429 48.6622 24.4701 42.656 24.2055 38.5285C23.5176 28.1301 26.0312 17.917 44.1555 17.917C62.5444 17.917 65.0316 28.871 63.8674 40.3541C63.4176 44.8521 62.0417 49.0591 59.29 52.4458C59.3164 51.5197 59.3694 50.5672 59.3694 49.5618Z" fill="#1D2247"/>
<path d="M51.7768 25.1138C47.5699 23.7115 27.1701 23.3411 35.7428 19.7427C37.7007 18.9224 41.8547 17.917 45.1356 17.917C62.2545 17.917 66.2763 26.4632 65.4296 37.6288C65.0856 42.1533 61.99 49.0591 59.2382 52.4458C62.5456 39.2428 56.3013 26.622 51.7768 25.1138Z" fill="#3843A1"/>
<path d="M40.8789 62.535C43.5262 63.3372 46.4676 63.6046 50.1444 62.2676L49.7032 63.2035C46.6142 65.8985 44.664 65.8027 41.3201 63.3372L40.8789 62.535Z" fill="white"/>
<path d="M45.1778 65.5425C48.649 65.5038 50.4672 62.5669 50.4672 62.5669C50.4672 62.5669 50.7023 62.3907 50.4512 62.2845C49.6283 62.0708 49.0852 64.529 46.2338 65.0943C43.8682 65.4288 42.4427 63.8522 41.0287 62.5669C40.6819 62.5282 40.6263 62.6194 40.6263 62.6194C40.335 62.7906 42.8974 65.582 45.1778 65.5425Z" fill="#1D2247"/>
<path d="M44.9979 63.344C47.6138 63.3943 50.8132 62.1082 50.8132 62.1082C50.8132 62.1082 51.0935 62.0417 50.8074 62.0076C49.8637 61.9437 49.0947 62.8486 45.7662 63.0936C43.366 63.1894 42.6297 62.6876 40.5066 62.4151C40.1065 62.4066 40.038 62.44 40.038 62.44C39.6929 62.5055 42.9277 63.3042 44.9979 63.344Z" fill="#1D2247"/>
<path d="M32.0926 76.497C32.0926 76.9468 32.2249 77.4231 32.4894 77.8993C33.8388 80.3864 38.5485 82.9794 44.1049 82.9794C49.8994 82.9794 54.7149 80.2012 55.8526 77.6347C56.0378 77.2378 56.1172 76.8674 56.1172 76.497C56.1172 76.3118 56.0907 76.1266 56.0378 75.9414C55.6674 74.6449 53.974 73.6924 51.2223 73.1367C51.3017 73.7717 51.6986 74.3538 52.2542 74.6713C52.8098 74.9888 53.2597 74.9888 53.6565 75.1741C54.4768 75.5709 54.9795 76.0207 54.9795 76.497C54.953 78.2697 50.2169 81.7623 44.052 81.7623C37.887 81.7623 33.4155 78.4285 33.1509 76.6822C33.1509 76.6293 33.1245 76.5499 33.1245 76.497C33.1245 76.0207 33.75 75.5974 34.5703 75.2005C34.9672 75.0153 35.499 74.999 35.999 74.6713C36.5547 74.3538 36.8932 73.7717 36.999 73.1367C34.2738 73.6924 32.4894 74.6449 32.119 75.9149C32.119 76.1001 32.0926 76.3118 32.0926 76.497Z" fill="white"/>
<path d="M45.2162 60.0859C46.6824 59.9167 47.3417 58.3367 47.3417 58.3367C47.3417 58.3367 47.4132 58.0891 47.2896 57.9531C46.9063 57.6899 46.6501 58.5354 45.912 59.0987C44.9622 59.6332 44.5308 59.203 43.3226 58.423C43.1693 58.3821 43.1603 58.508 43.1603 58.508C43.0642 58.7506 44.4011 60.1799 45.2162 60.0859Z" fill="#1D2247"/>
<path d="M39.1488 47.3216C37.7347 47.1336 37.5244 47.1578 36.6386 47.4566C34.7657 48.3372 34.3565 50.4717 35.4976 50.2917C35.9083 50.1567 36.0909 49.2566 36.5473 48.8517C38.2816 47.0516 40.8166 48.6009 41.6198 49.197C41.6933 49.2863 42.0105 49.4486 42.0305 49.287C42.2189 49.0559 40.1775 47.4584 39.1488 47.3216Z" fill="#1D2247"/>
<path d="M40.1073 50.4717C39.8985 51.1138 36.2711 51.1882 36.5473 50.3817C36.8235 49.5752 40.016 50.2917 40.1073 50.4717Z" fill="#1D2247"/>
<path d="M51.8228 47.0837C53.2369 46.8957 52.7857 46.9027 53.6715 47.2015C55.5444 48.0821 56.261 49.5011 55.12 49.3211C54.7092 49.1861 54.2811 48.9018 53.8247 48.4968C52.2114 47.1018 50.5275 48.8515 49.4179 49.1004C49.3443 49.1898 49.0271 49.352 49.0071 49.1905C48.8187 48.9594 50.7941 47.2205 51.8228 47.0837Z" fill="#1D2247"/>
<path d="M50.1115 50.4715C50.3203 51.1137 53.9477 51.188 53.6715 50.3815C53.3954 49.575 50.2028 50.2915 50.1115 50.4715Z" fill="#1D2247"/>
<ellipse rx="1.64862" ry="1.4131" transform="matrix(-1 0 0 1 38.8709 49.3208)" fill="#1D2247"/>
<ellipse cx="52.5275" cy="49.3208" rx="1.64862" ry="1.4131" fill="#1D2247"/>
<g filter="url(#filter1_i)">
<circle cx="44" cy="67" r="44" fill="url(#paint3_radial)" style="mix-blend-mode:multiply"/>
</g>
</g>
<defs>
<filter id="filter0_i" x="-19.637" y="22.7588" width="107.637" height="107.637" filterUnits="userSpaceOnUse" color-interpolation-filters="sRGB">
<feFlood flood-opacity="0" result="BackgroundImageFix"/>
<feBlend mode="normal" in="SourceGraphic" in2="BackgroundImageFix" result="shape"/>
<feColorMatrix in="SourceAlpha" type="matrix" values="0 0 0 0 0 0 0 0 0 0 0 0 0 0 0 0 0 0 127 0" result="hardAlpha"/>
<feMorphology radius="7.85482" operator="erode" in="SourceAlpha" result="effect1_innerShadow"/>
<feOffset dx="-19.637" dy="19.637"/>
<feGaussianBlur stdDeviation="19.637"/>
<feComposite in2="hardAlpha" operator="arithmetic" k2="-1" k3="1"/>
<feColorMatrix type="matrix" values="0 0 0 0 0.0588235 0 0 0 0 0.129412 0 0 0 0 0.160784 0 0 0 1 0"/>
<feBlend mode="normal" in2="shape" result="effect1_innerShadow"/>
</filter>
<filter id="filter1_i" x="-15.519" y="23" width="103.519" height="103.519" filterUnits="userSpaceOnUse" color-interpolation-filters="sRGB">
<feFlood flood-opacity="0" result="BackgroundImageFix"/>
<feBlend mode="normal" in="SourceGraphic" in2="BackgroundImageFix" result="shape"/>
<feColorMatrix in="SourceAlpha" type="matrix" values="0 0 0 0 0 0 0 0 0 0 0 0 0 0 0 0 0 0 127 0" result="hardAlpha"/>
<feMorphology radius="6.20758" operator="erode" in="SourceAlpha" result="effect1_innerShadow"/>
<feOffset dx="-15.519" dy="15.519"/>
<feGaussianBlur stdDeviation="15.519"/>
<feComposite in2="hardAlpha" operator="arithmetic" k2="-1" k3="1"/>
<feColorMatrix type="matrix" values="0 0 0 0 0.0588235 0 0 0 0 0.129412 0 0 0 0 0.160784 0 0 0 1 0"/>
<feBlend mode="normal" in2="shape" result="effect1_innerShadow"/>
</filter>
<linearGradient id="paint0_linear" x1="5.14285" y1="22.7588" x2="41.8804" y2="108.779" gradientUnits="userSpaceOnUse">
<stop stop-color="#0A6053"/>
<stop offset="1" stop-color="#132431"/>
</linearGradient>
<linearGradient id="paint1_linear" x1="5.14285" y1="23.0003" x2="41.8803" y2="109.02" gradientUnits="userSpaceOnUse">
<stop stop-color="#0A6053"/>
<stop offset="1" stop-color="#132431"/>
</linearGradient>
<linearGradient id="paint2_linear" x1="4.25325" y1="67.0747" x2="15.6889" y2="130.504" gradientUnits="userSpaceOnUse">
<stop stop-color="#00FCCE"/>
<stop offset="0.273881" stop-color="#4972C2"/>
<stop offset="0.748874" stop-color="#441A8C"/>
<stop offset="1" stop-color="#5A2293"/>
</linearGradient>
<radialGradient id="paint3_radial" cx="0" cy="0" r="1" gradientUnits="userSpaceOnUse" gradientTransform="translate(65 32.5) rotate(115.761) scale(111.591 87.6192)">
<stop offset="0.643346" stop-color="#4650AD" stop-opacity="0"/>
<stop offset="1" stop-color="#0313AC"/>
</radialGradient>
</defs>
</svg>
