<svg width="18" height="18" viewBox="0 0 18 18" fill="none" xmlns="http://www.w3.org/2000/svg">
<path d="M1.125 9.55176V16.3018C1.125 16.9228 1.63013 17.4268 2.25 17.4268H7.875V9.55176H1.125Z" fill="white"/>
<path d="M16.875 5.05159H13.3155C13.5709 4.87721 13.7902 4.70396 13.9432 4.54871C14.8511 3.63634 14.8511 2.15134 13.9432 1.23896C13.0612 0.350211 11.5245 0.352461 10.6436 1.23896C10.1554 1.72834 8.86163 3.72071 9.0405 5.05159H8.9595C9.13725 3.72071 7.8435 1.72834 7.35638 1.23896C6.47438 0.352461 4.93762 0.352461 4.05675 1.23896C3.15 2.15134 3.15 3.63634 4.05562 4.54871C4.20975 4.70396 4.42913 4.87721 4.6845 5.05159H1.125C0.505125 5.05159 0 5.55671 0 6.17659V7.86409C0 8.17459 0.252 8.42659 0.5625 8.42659H7.875V6.17659H10.125V8.42659H17.4375C17.748 8.42659 18 8.17459 18 7.86409V6.17659C18 5.55671 17.496 5.05159 16.875 5.05159ZM7.80863 5.01446C7.80863 5.01446 7.76137 5.05159 7.6005 5.05159C6.82312 5.05159 5.33925 4.24384 4.85437 3.75559C4.383 3.28084 4.383 2.50684 4.85437 2.03209C5.08275 1.80259 5.38537 1.67659 5.70712 1.67659C6.02775 1.67659 6.33038 1.80259 6.55875 2.03209C7.317 2.79484 8.07075 4.74334 7.80863 5.01446ZM10.3984 5.05159C10.2386 5.05159 10.1914 5.01446 10.1914 5.01446C9.92925 4.74334 10.683 2.79484 11.4412 2.03209C11.8946 1.57421 12.6877 1.57196 13.1456 2.03209C13.6181 2.50684 13.6181 3.28084 13.1456 3.75559C12.6608 4.24384 11.1769 5.05159 10.3984 5.05159Z" fill="white"/>
<path d="M10.125 9.55176V17.4268H15.75C16.371 17.4268 16.875 16.9228 16.875 16.3018V9.55176H10.125Z" fill="white"/>
</svg>
