<svg width="18" height="18" viewBox="0 0 18 18" fill="none" xmlns="http://www.w3.org/2000/svg">
<path d="M8.24782 16.3633L13.0274 18.0003L17.2121 13.8159L12.3994 12.2118L8.24782 16.3633ZM10.4001 16.1078C10.1469 16.3609 9.73435 16.4705 9.47834 16.3524C9.22259 16.2344 9.22021 15.9336 9.47354 15.6804C9.72671 15.4272 10.1392 15.3177 10.3953 15.4357C10.6512 15.5538 10.6532 15.8546 10.4001 16.1078ZM11.9435 16.6484C11.6903 16.9016 11.2778 17.0112 11.0218 16.8931C10.766 16.775 10.7637 16.4742 11.017 16.2211C11.2704 15.9679 11.6827 15.8583 11.9387 15.9764C12.1945 16.0945 12.1967 16.3953 11.9435 16.6484ZM15.0555 14.2276C15.3086 13.9744 15.7212 13.8648 15.9772 13.9829C16.233 14.101 16.2353 14.4018 15.9822 14.655C15.7291 14.9081 15.3165 15.0177 15.0605 14.8996C14.8045 14.7815 14.8024 14.4808 15.0555 14.2276ZM13.5166 13.7217C13.7697 13.4686 14.1823 13.359 14.4383 13.4771C14.694 13.5952 14.6964 13.8959 14.4431 14.1491C14.1899 14.4023 13.7774 14.5119 13.5214 14.3938C13.2656 14.2757 13.2635 13.9749 13.5166 13.7217ZM13.4777 16.4823C13.7334 16.6003 13.7358 16.9011 13.4825 17.1543C13.2293 17.4074 12.8168 17.517 12.5608 17.399C12.3047 17.2809 12.3026 16.9801 12.5557 16.7269C12.8091 16.474 13.2217 16.3644 13.4777 16.4823ZM12.8948 12.9362C13.1505 13.0543 13.1529 13.3551 12.8996 13.6082C12.6464 13.8614 12.2339 13.971 11.9779 13.8529C11.7221 13.7348 11.7197 13.434 11.9731 13.1809C12.2262 12.9277 12.6388 12.8183 12.8948 12.9362Z" fill="url(#paint0_linear)"/>
<path d="M17.29 13.2374L15.7097 8.49642L10.9688 6.91597L12.549 11.6567L17.29 13.2374ZM13.7696 9.51991C13.9466 9.34287 14.3024 9.41138 14.5642 9.67326C14.8261 9.93513 14.8948 10.2909 14.7176 10.4679C14.5405 10.645 14.1847 10.5765 13.9229 10.3146C13.661 10.0527 13.5923 9.69692 13.7696 9.51991Z" fill="url(#paint1_linear)"/>
<path d="M5.95102 0L1.48104 2.23486L5.95097 4.46972L10.4207 2.23486L5.95102 0ZM5.95102 2.6883C5.58087 2.6883 5.28051 2.48518 5.28051 2.23486C5.28051 1.98433 5.58066 1.78141 5.95102 1.78141C6.32137 1.78141 6.62152 1.98454 6.62152 2.23486C6.62126 2.48539 6.32116 2.6883 5.95102 2.6883Z" fill="url(#paint2_linear)"/>
<path d="M7.09919 8.56913C7.31276 8.49042 7.49129 8.61501 7.55306 8.85382L10.2301 6.17681L10.774 6.35819V2.69881L6.2366 4.96761V10.1703L6.69527 9.7116C6.6485 9.62873 6.62047 9.5213 6.62047 9.39408C6.62047 9.03587 6.83494 8.66658 7.09919 8.56913ZM10.0189 3.6901C10.2834 3.59266 10.4976 3.80386 10.4976 4.16182C10.4976 4.51977 10.2834 4.88907 10.0189 4.98651C9.75444 5.08396 9.54023 4.87276 9.54023 4.5148C9.54018 4.1568 9.75444 3.78755 10.0189 3.6901ZM8.65483 6.03218C8.91929 5.93473 9.13351 6.14593 9.13351 6.50389C9.13351 6.86184 8.91929 7.23114 8.65483 7.32858C8.39037 7.42603 8.17616 7.21483 8.17616 6.85687C8.17616 6.49892 8.39058 6.12962 8.65483 6.03218ZM6.62047 5.95453C6.62047 5.59657 6.83468 5.22727 7.09914 5.12983C7.36361 5.03239 7.57782 5.24359 7.57782 5.60154C7.57782 5.95954 7.36361 6.3288 7.09914 6.42624C6.83472 6.52368 6.62047 6.31253 6.62047 5.95453Z" fill="url(#paint3_linear)"/>
<path d="M1.125 8.61632L5.59841 10.8073L5.66255 10.7431V4.96761L1.125 2.69881V8.61632ZM4.78892 8.56913C5.05339 8.66657 5.2676 9.03587 5.2676 9.39383C5.2676 9.75178 5.05339 9.96298 4.78892 9.86554C4.52446 9.76809 4.31025 9.3988 4.31025 9.04084C4.31025 8.68288 4.52471 8.47169 4.78892 8.56913ZM3.3938 5.95975C3.65826 6.05719 3.87247 6.42645 3.87247 6.78445C3.87247 7.1424 3.65826 7.3536 3.3938 7.25616C3.12933 7.15871 2.91512 6.78942 2.91512 6.43146C2.91508 6.0735 3.12955 5.86231 3.3938 5.95975ZM1.95794 3.6901C2.2224 3.78755 2.43661 4.1568 2.43661 4.5148C2.43661 4.87276 2.2224 5.08395 1.95794 4.98651C1.69347 4.88907 1.47926 4.51981 1.47926 4.16182C1.47926 3.80386 1.69347 3.59266 1.95794 3.6901Z" fill="url(#paint4_linear)"/>
<path d="M10.3934 6.99347L6.20875 11.1776L7.84595 15.9577L11.9975 11.8058L10.3934 6.99347ZM8.6063 14.3814C8.35313 14.6345 8.05214 14.6324 7.93426 14.3764C7.81639 14.1204 7.92577 13.7078 8.17893 13.4546C8.4321 13.2015 8.73309 13.2036 8.85096 13.4594C8.96884 13.7152 8.85946 14.1282 8.6063 14.3814ZM10.0025 9.42036C9.74936 9.67353 9.44837 9.67132 9.33049 9.41556C9.2124 9.15981 9.322 8.74701 9.57516 8.49385C9.82832 8.24068 10.1293 8.24289 10.2472 8.49865C10.3653 8.75462 10.2557 9.1672 10.0025 9.42036Z" fill="url(#paint5_linear)"/>
<defs>
<linearGradient id="paint0_linear" x1="4.37899" y1="5.14589" x2="14.5746" y2="5.33003" gradientUnits="userSpaceOnUse">
<stop stop-color="white"/>
<stop offset="1" stop-color="white"/>
</linearGradient>
<linearGradient id="paint1_linear" x1="4.37899" y1="5.14589" x2="14.5746" y2="5.33003" gradientUnits="userSpaceOnUse">
<stop stop-color="white"/>
<stop offset="1" stop-color="white"/>
</linearGradient>
<linearGradient id="paint2_linear" x1="4.37899" y1="5.14589" x2="14.5746" y2="5.33003" gradientUnits="userSpaceOnUse">
<stop stop-color="white"/>
<stop offset="1" stop-color="white"/>
</linearGradient>
<linearGradient id="paint3_linear" x1="4.37899" y1="5.14589" x2="14.5746" y2="5.33003" gradientUnits="userSpaceOnUse">
<stop stop-color="white"/>
<stop offset="1" stop-color="white"/>
</linearGradient>
<linearGradient id="paint4_linear" x1="4.37899" y1="5.14589" x2="14.5746" y2="5.33003" gradientUnits="userSpaceOnUse">
<stop stop-color="white"/>
<stop offset="1" stop-color="white"/>
</linearGradient>
<linearGradient id="paint5_linear" x1="4.37899" y1="5.14589" x2="14.5746" y2="5.33003" gradientUnits="userSpaceOnUse">
<stop stop-color="white"/>
<stop offset="1" stop-color="white"/>
</linearGradient>
</defs>
</svg>
