<svg width="280" height="77" viewBox="0 0 280 77" fill="none" xmlns="http://www.w3.org/2000/svg">
<g filter="url(#filter0_dddi)">
<path fill-rule="evenodd" clip-rule="evenodd" d="M11.1866 61.3266C10.6659 61.3219 10.3504 60.7497 10.6245 60.3069L41.2328 10.8506C41.4835 10.4456 42.0653 10.4255 42.3433 10.8121L47.1759 17.5314C47.3353 17.7529 47.3439 18.0491 47.1976 18.2795L37.8585 32.9969C37.7171 33.2197 37.7201 33.5049 37.8662 33.7247L40.6128 37.8571C40.8816 38.2615 41.4783 38.2532 41.7357 37.8414L50.174 24.3443C50.4364 23.9246 51.0483 23.926 51.3087 24.347L58.4517 35.8944C58.5869 36.1129 58.5847 36.3896 58.4463 36.606L54.1085 43.3858C53.8496 43.7906 53.2609 43.7978 52.992 43.3997L50.6658 39.9548C50.3923 39.5498 49.7908 39.5659 49.5393 39.9848L42.3669 51.931C42.0995 52.3763 42.4203 52.943 42.9397 52.943H46.9033H53.7093H57.5989C58.117 52.943 58.4379 52.379 58.1732 51.9336L56.767 49.5674C56.6397 49.353 56.6422 49.0856 56.7737 48.8737L61.0458 41.9902C61.3074 41.5688 61.9207 41.5692 62.1817 41.991L73.5064 60.2963C73.7818 60.7414 73.4616 61.3159 72.9382 61.3159H28.2654C27.7406 61.3159 27.4207 60.7386 27.6989 60.2936L35.7618 47.3968C35.9004 47.1752 35.897 46.8932 35.7532 46.675L32.9824 42.4702C32.7132 42.0616 32.1105 42.0715 31.8549 42.4887L20.4595 61.0855C20.3369 61.2855 20.1184 61.4066 19.8838 61.4045L11.1866 61.3266Z" fill="url(#paint0_linear)"/>
</g>
<g filter="url(#filter1_d)">
<path d="M94.3802 45.365H109.781V38.4021C109.781 36.9126 109.694 35.8136 109.521 35.105C109.362 34.3964 109.058 33.8108 108.61 33.348C108.205 32.9287 107.742 32.625 107.221 32.437C106.715 32.249 106.043 32.1333 105.204 32.0899V31.591H119.065V32.0899C118.241 32.1333 117.568 32.249 117.048 32.437C116.541 32.625 116.086 32.9287 115.681 33.348C115.233 33.8108 114.922 34.4037 114.748 35.1267C114.589 35.8353 114.51 36.9271 114.51 38.4021V54.3886C114.51 55.8636 114.589 56.9554 114.748 57.664C114.922 58.3726 115.233 58.9655 115.681 59.4427C116.086 59.8476 116.541 60.1513 117.048 60.3537C117.568 60.5417 118.241 60.6574 119.065 60.7008V61.1997H105.204V60.7008C106.043 60.6574 106.715 60.5417 107.221 60.3537C107.742 60.1513 108.205 59.8476 108.61 59.4427C109.058 58.98 109.362 58.3943 109.521 57.6857C109.694 56.9771 109.781 55.8781 109.781 54.3886V46.3845H94.3802V54.3886C94.3802 55.8636 94.4597 56.9627 94.6188 57.6857C94.7923 58.3943 95.1032 58.98 95.5515 59.4427C95.942 59.8476 96.3902 60.1513 96.8964 60.3537C97.417 60.5417 98.0966 60.6574 98.9354 60.7008V61.1997H85.0746V60.7008C85.9133 60.6574 86.5858 60.5417 87.0919 60.3537C87.6125 60.1513 88.068 59.8476 88.4584 59.4427C88.9212 58.98 89.2321 58.3943 89.3912 57.6857C89.5502 56.9771 89.6298 55.8781 89.6298 54.3886V38.4021C89.6298 36.9126 89.5502 35.8136 89.3912 35.105C89.2321 34.3964 88.9212 33.8108 88.4584 33.348C88.068 32.9287 87.6125 32.625 87.0919 32.437C86.5713 32.249 85.8989 32.1333 85.0746 32.0899V31.591H98.9354V32.0899C98.1111 32.1333 97.4387 32.249 96.9181 32.437C96.4119 32.625 95.9564 32.9287 95.5515 33.348C95.1032 33.8108 94.7923 34.4037 94.6188 35.1267C94.4597 35.8353 94.3802 36.9271 94.3802 38.4021V45.365ZM140.17 59.0956L140.538 59.3126C140.018 60.831 138.825 61.5902 136.959 61.5902C135.933 61.5902 135.079 61.3371 134.4 60.831C133.952 60.4984 133.489 59.9199 133.012 59.0956C132.043 59.9633 131.312 60.5345 130.821 60.8093C129.881 61.3299 128.789 61.5902 127.545 61.5902C125.955 61.5902 124.689 61.2069 123.749 60.4405C122.824 59.6741 122.361 58.6401 122.361 57.3386C122.361 56.1384 122.744 55.1334 123.511 54.3236C123.945 53.8753 124.444 53.521 125.007 53.2607C125.571 52.9859 126.388 52.7112 127.459 52.4364C128.717 52.1183 129.642 51.8507 130.235 51.6338C130.842 51.4169 131.349 51.1566 131.753 50.8529C132.216 50.5203 132.534 50.1299 132.708 49.6816C132.881 49.2333 132.968 48.6115 132.968 47.8162C132.968 46.1242 132.65 44.8878 132.014 44.1069C131.725 43.7454 131.349 43.4562 130.886 43.2393C130.438 43.0224 129.968 42.9139 129.476 42.9139C128.883 42.9139 128.355 43.0657 127.892 43.3694C127.43 43.6731 127.083 44.0925 126.851 44.6275L126.309 45.8856C126.02 46.5653 125.499 46.9051 124.747 46.9051C124.256 46.9051 123.843 46.746 123.511 46.4279C123.178 46.0953 123.012 45.6832 123.012 45.1915C123.012 44.454 123.532 43.8322 124.574 43.326C125.138 43.0657 125.832 42.8561 126.656 42.697C127.495 42.5235 128.312 42.4367 129.107 42.4367C130.004 42.4367 130.936 42.5524 131.905 42.7838C132.874 43.0151 133.684 43.3116 134.335 43.6731C135.275 44.2082 135.86 44.9023 136.092 45.7555C136.207 46.1893 136.265 46.9196 136.265 47.9463V55.9721C136.265 57.3314 136.323 58.2569 136.439 58.7486C136.685 59.7753 137.278 60.2887 138.218 60.2887C138.666 60.2887 139.013 60.2091 139.259 60.0501C139.519 59.891 139.823 59.5729 140.17 59.0956ZM133.012 50.5493C132.231 51.2 131.37 51.7712 130.43 52.2629C129.375 52.8269 128.644 53.2534 128.239 53.5427C127.835 53.8319 127.466 54.1789 127.133 54.5838C126.454 55.4226 126.114 56.3987 126.114 57.5122C126.114 58.4666 126.374 59.2547 126.895 59.8765C127.43 60.4984 128.102 60.8093 128.912 60.8093C129.621 60.8093 130.286 60.5923 130.908 60.1585C131.544 59.7102 132.021 59.1173 132.339 58.3798C132.787 57.411 133.012 56.0082 133.012 54.1717V50.5493ZM142.967 61.1997V55.0611H143.314C143.719 56.565 144.225 57.7652 144.832 58.6618C145.946 60.2959 147.247 61.1129 148.737 61.1129C149.648 61.1129 150.436 60.8382 151.101 60.2887C151.824 59.6813 152.186 58.8209 152.186 57.7074C152.186 56.7964 151.926 56.001 151.405 55.3214C151.116 54.9598 150.747 54.6272 150.299 54.3236C149.865 54.0199 149.127 53.5933 148.086 53.0438C146.264 52.0749 145.049 51.2651 144.442 50.6143C143.574 49.6888 143.141 48.6187 143.141 47.404C143.141 46.1025 143.574 44.9818 144.442 44.0419C145.44 42.9718 146.763 42.4367 148.412 42.4367C149.149 42.4367 149.836 42.5668 150.472 42.8271L151.21 43.1525C151.441 43.2393 151.644 43.2827 151.817 43.2827C152.092 43.2827 152.352 43.0657 152.598 42.6319H153.032L153.27 47.5559H152.815C152.656 46.8617 152.482 46.305 152.294 45.8856C152.121 45.4663 151.868 45.0614 151.535 44.6709C151.087 44.1214 150.566 43.6948 149.973 43.3911C149.38 43.073 148.795 42.9139 148.216 42.9139C147.407 42.9139 146.712 43.2104 146.134 43.8033C145.57 44.3817 145.288 45.0975 145.288 45.9507C145.288 46.6593 145.541 47.3028 146.047 47.8812C146.568 48.4452 147.363 48.9658 148.433 49.443L150.733 50.4842C152.106 51.106 153.133 51.8797 153.813 52.8052C154.492 53.7307 154.832 54.8225 154.832 56.0806C154.832 57.5989 154.341 58.857 153.357 59.8548C152.229 61.0117 150.783 61.5902 149.019 61.5902C148.065 61.5902 147.096 61.4022 146.112 61.0262C145.476 60.7803 145.093 60.643 144.963 60.614C144.832 60.5707 144.666 60.549 144.464 60.549C143.958 60.549 143.574 60.7659 143.314 61.1997H142.967ZM164.527 30.7234V45.5819C165.033 44.9601 165.482 44.4757 165.872 44.1286C166.263 43.7816 166.733 43.4779 167.282 43.2176C168.338 42.697 169.538 42.4367 170.883 42.4367C172.589 42.4367 173.999 42.7765 175.113 43.4562C175.908 43.9623 176.45 44.5841 176.74 45.3216C177.043 46.0447 177.195 47.1365 177.195 48.597V54.9309L177.217 56.5795C177.217 57.5628 177.275 58.2858 177.39 58.7486C177.506 59.1969 177.73 59.5729 178.063 59.8765C178.468 60.267 179.212 60.5634 180.297 60.7659V61.1997H170.731V60.7659C171.498 60.6647 172.04 60.5417 172.358 60.3971C172.691 60.2525 172.987 60.0067 173.247 59.6596C173.508 59.2981 173.688 58.8064 173.79 58.1846C173.891 57.5628 173.941 56.6445 173.941 55.4298V48.5537C173.941 47.5125 173.862 46.6882 173.703 46.0808C173.544 45.4735 173.276 44.9457 172.9 44.4974C172.163 43.6442 171.122 43.2176 169.777 43.2176C166.277 43.2176 164.527 45.9796 164.527 51.5037V54.9743L164.549 56.5795C164.549 57.5628 164.607 58.2858 164.723 58.7486C164.838 59.1969 165.062 59.5729 165.395 59.8765C165.8 60.267 166.545 60.5634 167.629 60.7659V61.1997H158.063V60.7659C158.931 60.6502 159.553 60.4911 159.929 60.2887C160.305 60.0718 160.608 59.7102 160.84 59.2041C160.999 58.8715 161.107 58.3726 161.165 57.7074C161.238 57.0277 161.274 56.0516 161.274 54.7791V37.7514C161.274 36.2764 161.238 35.2352 161.165 34.6278C161.093 34.0205 160.934 33.5288 160.688 33.1528C160.442 32.7479 160.146 32.4587 159.799 32.2852C159.452 32.1116 158.953 32.0032 158.302 31.9598V31.5043L164.527 30.7234ZM198.473 57.1L198.907 57.2519C198.401 58.7847 197.627 59.891 196.586 60.5707C195.545 61.2503 194.113 61.5902 192.291 61.5902C189.37 61.5902 187.078 60.7225 185.415 58.9872C183.796 57.2808 182.986 55.1261 182.986 52.5232C182.986 51.2506 183.21 49.9925 183.658 48.7489C184.107 47.5052 184.721 46.4424 185.502 45.5603C186.384 44.548 187.461 43.7743 188.734 43.2393C190.021 42.7042 191.424 42.4367 192.942 42.4367C195.039 42.4367 196.68 42.9067 197.866 43.8466C198.589 44.4251 198.951 45.0614 198.951 45.7555C198.951 46.2182 198.799 46.6087 198.495 46.9268C198.191 47.2305 197.823 47.3823 197.389 47.3823C196.449 47.3823 195.755 46.6954 195.307 45.3216C195.104 44.6854 194.938 44.2515 194.808 44.0202C194.692 43.7888 194.518 43.5863 194.287 43.4128C193.839 43.0802 193.289 42.9139 192.638 42.9139C191.785 42.9139 190.997 43.1525 190.274 43.6297C189.638 44.0491 189.096 44.5769 188.647 45.2132C188.213 45.835 187.83 46.6231 187.498 47.5775C186.991 49.0381 186.738 50.4697 186.738 51.8724C186.738 53.1595 186.97 54.4175 187.433 55.6467C187.895 56.8759 188.524 57.9026 189.32 58.7269C190.563 60.0284 192.024 60.6791 193.701 60.6791C195.09 60.6791 196.239 60.2381 197.15 59.3559C197.613 58.8932 198.054 58.1412 198.473 57.1ZM201.856 31.5043L208.082 30.7234V54.9309L208.104 56.5795C208.104 57.5628 208.161 58.2858 208.277 58.7486C208.393 59.1969 208.617 59.5729 208.949 59.8765C209.354 60.267 210.099 60.5634 211.184 60.7659V61.1997H201.618V60.7659C202.485 60.6502 203.107 60.4911 203.483 60.2887C203.859 60.0718 204.163 59.7102 204.394 59.2041C204.553 58.8715 204.662 58.3726 204.72 57.7074C204.792 57.0277 204.828 56.0516 204.828 54.7791V37.7514C204.828 36.2764 204.792 35.2352 204.72 34.6278C204.647 34.0205 204.488 33.5288 204.242 33.1528C203.997 32.7479 203.7 32.4587 203.353 32.2852C203.006 32.1116 202.507 32.0032 201.856 31.9598V31.5043ZM231.811 59.0956L232.18 59.3126C231.659 60.831 230.466 61.5902 228.601 61.5902C227.574 61.5902 226.721 61.3371 226.041 60.831C225.593 60.4984 225.13 59.9199 224.653 59.0956C223.684 59.9633 222.954 60.5345 222.462 60.8093C221.522 61.3299 220.431 61.5902 219.187 61.5902C217.596 61.5902 216.331 61.2069 215.391 60.4405C214.465 59.6741 214.003 58.6401 214.003 57.3386C214.003 56.1384 214.386 55.1334 215.152 54.3236C215.586 53.8753 216.085 53.521 216.649 53.2607C217.213 52.9859 218.03 52.7112 219.1 52.4364C220.358 52.1183 221.284 51.8507 221.877 51.6338C222.484 51.4169 222.99 51.1566 223.395 50.8529C223.858 50.5203 224.176 50.1299 224.349 49.6816C224.523 49.2333 224.61 48.6115 224.61 47.8162C224.61 46.1242 224.292 44.8878 223.655 44.1069C223.366 43.7454 222.99 43.4562 222.527 43.2393C222.079 43.0224 221.609 42.9139 221.117 42.9139C220.525 42.9139 219.997 43.0657 219.534 43.3694C219.071 43.6731 218.724 44.0925 218.493 44.6275L217.951 45.8856C217.661 46.5653 217.141 46.9051 216.389 46.9051C215.897 46.9051 215.485 46.746 215.152 46.4279C214.82 46.0953 214.653 45.6832 214.653 45.1915C214.653 44.454 215.174 43.8322 216.215 43.326C216.779 43.0657 217.473 42.8561 218.298 42.697C219.136 42.5235 219.953 42.4367 220.749 42.4367C221.645 42.4367 222.578 42.5524 223.547 42.7838C224.516 43.0151 225.326 43.3116 225.976 43.6731C226.916 44.2082 227.502 44.9023 227.733 45.7555C227.849 46.1893 227.907 46.9196 227.907 47.9463V55.9721C227.907 57.3314 227.965 58.2569 228.08 58.7486C228.326 59.7753 228.919 60.2887 229.859 60.2887C230.307 60.2887 230.654 60.2091 230.9 60.0501C231.161 59.891 231.464 59.5729 231.811 59.0956ZM224.653 50.5493C223.872 51.2 223.012 51.7712 222.072 52.2629C221.016 52.8269 220.286 53.2534 219.881 53.5427C219.476 53.8319 219.107 54.1789 218.775 54.5838C218.095 55.4226 217.755 56.3987 217.755 57.5122C217.755 58.4666 218.016 59.2547 218.536 59.8765C219.071 60.4984 219.744 60.8093 220.553 60.8093C221.262 60.8093 221.927 60.5923 222.549 60.1585C223.185 59.7102 223.663 59.1173 223.981 58.3798C224.429 57.411 224.653 56.0082 224.653 54.1717V50.5493ZM234.609 61.1997V55.0611H234.956C235.361 56.565 235.867 57.7652 236.474 58.6618C237.588 60.2959 238.889 61.1129 240.378 61.1129C241.29 61.1129 242.078 60.8382 242.743 60.2887C243.466 59.6813 243.827 58.8209 243.827 57.7074C243.827 56.7964 243.567 56.001 243.047 55.3214C242.757 54.9598 242.389 54.6272 241.94 54.3236C241.506 54.0199 240.769 53.5933 239.728 53.0438C237.906 52.0749 236.691 51.2651 236.084 50.6143C235.216 49.6888 234.782 48.6187 234.782 47.404C234.782 46.1025 235.216 44.9818 236.084 44.0419C237.081 42.9718 238.405 42.4367 240.053 42.4367C240.791 42.4367 241.478 42.5668 242.114 42.8271L242.851 43.1525C243.083 43.2393 243.285 43.2827 243.459 43.2827C243.733 43.2827 243.994 43.0657 244.24 42.6319H244.673L244.912 47.5559H244.456C244.297 46.8617 244.124 46.305 243.936 45.8856C243.762 45.4663 243.509 45.0614 243.177 44.6709C242.728 44.1214 242.208 43.6948 241.615 43.3911C241.022 43.073 240.436 42.9139 239.858 42.9139C239.048 42.9139 238.354 43.2104 237.776 43.8033C237.212 44.3817 236.93 45.0975 236.93 45.9507C236.93 46.6593 237.183 47.3028 237.689 47.8812C238.209 48.4452 239.005 48.9658 240.075 49.443L242.374 50.4842C243.748 51.106 244.775 51.8797 245.454 52.8052C246.134 53.7307 246.474 54.8225 246.474 56.0806C246.474 57.5989 245.982 58.857 244.999 59.8548C243.871 61.0117 242.425 61.5902 240.66 61.5902C239.706 61.5902 238.737 61.4022 237.754 61.0262C237.118 60.7803 236.734 60.643 236.604 60.614C236.474 60.5707 236.308 60.549 236.105 60.549C235.599 60.549 235.216 60.7659 234.956 61.1997H234.609ZM256.169 30.7234V45.5819C256.675 44.9601 257.123 44.4757 257.514 44.1286C257.904 43.7816 258.374 43.4779 258.924 43.2176C259.979 42.697 261.18 42.4367 262.524 42.4367C264.231 42.4367 265.641 42.7765 266.754 43.4562C267.55 43.9623 268.092 44.5841 268.381 45.3216C268.685 46.0447 268.837 47.1365 268.837 48.597V54.9309L268.858 56.5795C268.858 57.5628 268.916 58.2858 269.032 58.7486C269.148 59.1969 269.372 59.5729 269.704 59.8765C270.109 60.267 270.854 60.5634 271.939 60.7659V61.1997H262.373V60.7659C263.139 60.6647 263.681 60.5417 263.999 60.3971C264.332 60.2525 264.629 60.0067 264.889 59.6596C265.149 59.2981 265.33 58.8064 265.431 58.1846C265.532 57.5628 265.583 56.6445 265.583 55.4298V48.5537C265.583 47.5125 265.503 46.6882 265.344 46.0808C265.185 45.4735 264.918 44.9457 264.542 44.4974C263.804 43.6442 262.763 43.2176 261.418 43.2176C257.919 43.2176 256.169 45.9796 256.169 51.5037V54.9743L256.191 56.5795C256.191 57.5628 256.248 58.2858 256.364 58.7486C256.48 59.1969 256.704 59.5729 257.037 59.8765C257.441 60.267 258.186 60.5634 259.271 60.7659V61.1997H249.705V60.7659C250.573 60.6502 251.194 60.4911 251.57 60.2887C251.946 60.0718 252.25 59.7102 252.481 59.2041C252.64 58.8715 252.749 58.3726 252.807 57.7074C252.879 57.0277 252.915 56.0516 252.915 54.7791V37.7514C252.915 36.2764 252.879 35.2352 252.807 34.6278C252.734 34.0205 252.575 33.5288 252.33 33.1528C252.084 32.7479 251.787 32.4587 251.44 32.2852C251.093 32.1116 250.594 32.0032 249.944 31.9598V31.5043L256.169 30.7234Z" fill="white"/>
</g>
<defs>
<filter id="filter0_dddi" x="0.460534" y="0.471276" width="88.3685" height="76.155" filterUnits="userSpaceOnUse" color-interpolation-filters="sRGB">
<feFlood flood-opacity="0" result="BackgroundImageFix"/>
<feColorMatrix in="SourceAlpha" type="matrix" values="0 0 0 0 0 0 0 0 0 0 0 0 0 0 0 0 0 0 127 0"/>
<feOffset dx="-2.07021" dy="-2.07021"/>
<feGaussianBlur stdDeviation="3.22421"/>
<feColorMatrix type="matrix" values="0 0 0 0 0 0 0 0 0 1 0 0 0 0 0.879699 0 0 0 1 0"/>
<feBlend mode="normal" in2="BackgroundImageFix" result="effect1_dropShadow"/>
<feColorMatrix in="SourceAlpha" type="matrix" values="0 0 0 0 0 0 0 0 0 0 0 0 0 0 0 0 0 0 127 0"/>
<feMorphology radius="1.03511" operator="dilate" in="SourceAlpha" result="effect2_dropShadow"/>
<feOffset dx="2.57937" dy="2.57937"/>
<feGaussianBlur stdDeviation="5.80358"/>
<feColorMatrix type="matrix" values="0 0 0 0 0.853255 0 0 0 0 0 0 0 0 0 0.992157 0 0 0 0.66 0"/>
<feBlend mode="normal" in2="effect1_dropShadow" result="effect2_dropShadow"/>
<feColorMatrix in="SourceAlpha" type="matrix" values="0 0 0 0 0 0 0 0 0 0 0 0 0 0 0 0 0 0 127 0"/>
<feOffset/>
<feGaussianBlur stdDeviation="1.28969"/>
<feColorMatrix type="matrix" values="0 0 0 0 1 0 0 0 0 1 0 0 0 0 1 0 0 0 1 0"/>
<feBlend mode="normal" in2="effect2_dropShadow" result="effect3_dropShadow"/>
<feBlend mode="normal" in="SourceGraphic" in2="effect3_dropShadow" result="shape"/>
<feColorMatrix in="SourceAlpha" type="matrix" values="0 0 0 0 0 0 0 0 0 0 0 0 0 0 0 0 0 0 127 0" result="hardAlpha"/>
<feOffset dx="0.668122" dy="1.33624"/>
<feGaussianBlur stdDeviation="0.835153"/>
<feComposite in2="hardAlpha" operator="arithmetic" k2="-1" k3="1"/>
<feColorMatrix type="matrix" values="0 0 0 0 0 0 0 0 0 0.94 0 0 0 0 1 0 0 0 1 0"/>
<feBlend mode="normal" in2="shape" result="effect4_innerShadow"/>
</filter>
<filter id="filter1_d" x="79.9155" y="24.2747" width="199.761" height="43.7636" filterUnits="userSpaceOnUse" color-interpolation-filters="sRGB">
<feFlood flood-opacity="0" result="BackgroundImageFix"/>
<feColorMatrix in="SourceAlpha" type="matrix" values="0 0 0 0 0 0 0 0 0 0 0 0 0 0 0 0 0 0 127 0"/>
<feOffset dx="1.28969"/>
<feGaussianBlur stdDeviation="3.22421"/>
<feColorMatrix type="matrix" values="0 0 0 0 0.0156863 0 0 0 0 0.917647 0 0 0 0 0.972549 0 0 0 1 0"/>
<feBlend mode="normal" in2="BackgroundImageFix" result="effect1_dropShadow"/>
<feBlend mode="normal" in="SourceGraphic" in2="effect1_dropShadow" result="shape"/>
</filter>
<linearGradient id="paint0_linear" x1="23.0224" y1="12.8877" x2="45.1331" y2="65.5617" gradientUnits="userSpaceOnUse">
<stop stop-color="#00FCCE"/>
<stop offset="0.453125" stop-color="#4972C2"/>
<stop offset="0.767465" stop-color="#5A2293"/>
<stop offset="1" stop-color="#441A8C"/>
</linearGradient>
</defs>
</svg>
