<svg width="27" height="27" viewBox="0 0 27 27" fill="none" xmlns="http://www.w3.org/2000/svg">
<g filter="url(#filter0_d)">
<path d="M13.5 1C8.81291 1 5 4.81291 5 9.5C5 14.1871 8.81291 18 13.5 18C18.1871 18 22 14.1871 22 9.5C22 4.81291 18.1871 1 13.5 1ZM13.5 14.4583C13.109 14.4583 12.7917 14.141 12.7917 13.75C12.7917 13.359 13.109 13.0417 13.5 13.0417C13.891 13.0417 14.2083 13.359 14.2083 13.75C14.2083 14.141 13.891 14.4583 13.5 14.4583ZM14.6213 9.95473C14.3705 10.0702 14.2083 10.3231 14.2083 10.5987V10.9167C14.2083 11.3076 13.8917 11.625 13.5 11.625C13.1083 11.625 12.7917 11.3076 12.7917 10.9167V10.5987C12.7917 9.77198 13.2776 9.01414 14.0277 8.66772C14.7495 8.33556 15.2708 7.4536 15.2708 7.02079C15.2708 6.0448 14.4768 5.25 13.5 5.25C12.5232 5.25 11.7292 6.0448 11.7292 7.02079C11.7292 7.41183 11.4125 7.72921 11.0208 7.72921C10.6291 7.72921 10.3125 7.41183 10.3125 7.02079C10.3125 5.26349 11.7426 3.83329 13.5 3.83329C15.2574 3.83329 16.6875 5.26349 16.6875 7.02079C16.6875 7.97784 15.8573 9.38457 14.6213 9.95473Z" fill="url(#paint0_linear)"/>
<path d="M13.7083 10.5987C13.7083 10.1274 13.9845 9.69752 14.412 9.50063L13.7083 10.5987ZM13.7083 10.5987V10.9167M13.7083 10.5987V10.9167M13.7083 10.9167C13.7083 11.0318 13.6152 11.125 13.5 11.125M13.7083 10.9167L13.5 11.125M13.5 11.125C13.3848 11.125 13.2917 11.0318 13.2917 10.9167M13.5 11.125L13.2917 10.9167M13.2917 10.9167V10.5987M13.2917 10.9167V10.5987M13.2917 10.5987C13.2917 9.96758 13.6636 9.3869 14.2368 9.12193M13.2917 10.5987L14.2368 9.12193M14.2368 9.12193C14.7013 8.90814 15.0753 8.5332 15.33 8.16808C15.5732 7.81948 15.7708 7.38809 15.7708 7.02079C15.7708 5.7688 14.7531 4.75 13.5 4.75C12.2469 4.75 11.2292 5.7688 11.2292 7.02079C11.2292 7.13599 11.136 7.22921 11.0208 7.22921C10.9057 7.22921 10.8125 7.13611 10.8125 7.02079C10.8125 5.53962 12.0187 4.33329 13.5 4.33329C14.9813 4.33329 16.1875 5.53962 16.1875 7.02079C16.1875 7.37156 16.0279 7.86695 15.702 8.35532C15.3805 8.83715 14.9302 9.26148 14.4121 9.50056L14.2368 9.12193ZM13.5 0.5C8.53677 0.5 4.5 4.53677 4.5 9.5C4.5 14.4632 8.53677 18.5 13.5 18.5C18.4632 18.5 22.5 14.4632 22.5 9.5C22.5 4.53677 18.4632 0.5 13.5 0.5ZM13.5 13.9583C13.3851 13.9583 13.2917 13.8649 13.2917 13.75C13.2917 13.6351 13.3851 13.5417 13.5 13.5417C13.6149 13.5417 13.7083 13.6351 13.7083 13.75C13.7083 13.8649 13.6149 13.9583 13.5 13.9583Z" stroke="white"/>
</g>
<g filter="url(#filter1_i)">
<path d="M14.6213 9.95473C14.3705 10.0702 14.2083 10.3231 14.2083 10.5987V10.9167C14.2083 11.3076 13.8917 11.625 13.5 11.625C13.1083 11.625 12.7917 11.3076 12.7917 10.9167V10.5987C12.7917 9.77198 13.2776 9.01414 14.0277 8.66772C14.7495 8.33556 15.2708 7.4536 15.2708 7.02079C15.2708 6.0448 14.4768 5.25 13.5 5.25C12.5232 5.25 11.7292 6.0448 11.7292 7.02079C11.7292 7.41183 11.4125 7.72921 11.0208 7.72921C10.6291 7.72921 10.3125 7.41183 10.3125 7.02079C10.3125 5.26349 11.7426 3.83329 13.5 3.83329C15.2574 3.83329 16.6875 5.26349 16.6875 7.02079C16.6875 7.97784 15.8573 9.38457 14.6213 9.95473Z" fill="white"/>
<path d="M13.5 14.4583C13.109 14.4583 12.7917 14.141 12.7917 13.75C12.7917 13.359 13.109 13.0417 13.5 13.0417C13.891 13.0417 14.2083 13.359 14.2083 13.75C14.2083 14.141 13.891 14.4583 13.5 14.4583Z" fill="white"/>
</g>
<defs>
<filter id="filter0_d" x="0" y="0" width="27" height="27" filterUnits="userSpaceOnUse" color-interpolation-filters="sRGB">
<feFlood flood-opacity="0" result="BackgroundImageFix"/>
<feColorMatrix in="SourceAlpha" type="matrix" values="0 0 0 0 0 0 0 0 0 0 0 0 0 0 0 0 0 0 127 0"/>
<feOffset dy="4"/>
<feGaussianBlur stdDeviation="2"/>
<feColorMatrix type="matrix" values="0 0 0 0 0 0 0 0 0 0 0 0 0 0 0 0 0 0 0.25 0"/>
<feBlend mode="normal" in2="BackgroundImageFix" result="effect1_dropShadow"/>
<feBlend mode="normal" in="SourceGraphic" in2="effect1_dropShadow" result="shape"/>
</filter>
<filter id="filter1_i" x="10.1125" y="3.8335" width="6.575" height="11.125" filterUnits="userSpaceOnUse" color-interpolation-filters="sRGB">
<feFlood flood-opacity="0" result="BackgroundImageFix"/>
<feBlend mode="normal" in="SourceGraphic" in2="BackgroundImageFix" result="shape"/>
<feColorMatrix in="SourceAlpha" type="matrix" values="0 0 0 0 0 0 0 0 0 0 0 0 0 0 0 0 0 0 127 0" result="hardAlpha"/>
<feOffset dx="-0.2" dy="0.5"/>
<feGaussianBlur stdDeviation="0.25"/>
<feComposite in2="hardAlpha" operator="arithmetic" k2="-1" k3="1"/>
<feColorMatrix type="matrix" values="0 0 0 0 0.0666667 0 0 0 0 0.305882 0 0 0 0 0.298039 0 0 0 1 0"/>
<feBlend mode="normal" in2="shape" result="effect1_innerShadow"/>
</filter>
<linearGradient id="paint0_linear" x1="21.0065" y1="1" x2="13.5" y2="18" gradientUnits="userSpaceOnUse">
<stop stop-color="#0A6053"/>
<stop offset="1" stop-color="#132431"/>
</linearGradient>
</defs>
</svg>
