<svg width="17" height="25" viewBox="0 0 17 25" fill="none" xmlns="http://www.w3.org/2000/svg">
<g filter="url(#filter0_i)">
<path d="M10.8624 14.2947C10.2304 14.5508 9.82132 15.1119 9.82132 15.7233V16.4288C9.82132 17.2961 9.02318 18.0002 8.03571 18.0002C7.04825 18.0002 6.25011 17.2961 6.25011 16.4288V15.7233C6.25011 13.8893 7.47495 12.208 9.36617 11.4395C11.1858 10.7026 12.4999 8.74596 12.4999 7.78578C12.4999 5.62056 10.4982 3.85731 8.03571 3.85731C5.57327 3.85731 3.57154 5.62056 3.57154 7.78578C3.57154 8.65331 2.77307 9.3574 1.78561 9.3574C0.798144 9.3574 0 8.65331 0 7.78578C0 3.88723 3.60522 0.714355 8.03571 0.714355C12.4662 0.714355 16.0714 3.88723 16.0714 7.78578C16.0714 9.909 13.9785 13.0298 10.8624 14.2947Z" fill="white"/>
<path d="M8.03571 24.2858C7.04989 24.2858 6.25011 23.582 6.25011 22.7145C6.25011 21.8469 7.04989 21.1431 8.03571 21.1431C9.02154 21.1431 9.82132 21.8469 9.82132 22.7145C9.82132 23.582 9.02154 24.2858 8.03571 24.2858Z" fill="white"/>
</g>
<defs>
<filter id="filter0_i" x="-0.2" y="0.714355" width="16.2714" height="24.0714" filterUnits="userSpaceOnUse" color-interpolation-filters="sRGB">
<feFlood flood-opacity="0" result="BackgroundImageFix"/>
<feBlend mode="normal" in="SourceGraphic" in2="BackgroundImageFix" result="shape"/>
<feColorMatrix in="SourceAlpha" type="matrix" values="0 0 0 0 0 0 0 0 0 0 0 0 0 0 0 0 0 0 127 0" result="hardAlpha"/>
<feOffset dx="-0.2" dy="0.5"/>
<feGaussianBlur stdDeviation="0.25"/>
<feComposite in2="hardAlpha" operator="arithmetic" k2="-1" k3="1"/>
<feColorMatrix type="matrix" values="0 0 0 0 0.0198611 0 0 0 0 0.183333 0 0 0 0 0.177974 0 0 0 1 0"/>
<feBlend mode="normal" in2="shape" result="effect1_innerShadow"/>
</filter>
</defs>
</svg>
