<svg width="12" height="12" viewBox="0 0 12 12" fill="none" xmlns="http://www.w3.org/2000/svg">
<path d="M5.17227 0.448993C5.17227 0.658431 5.34207 0.828236 5.55151 0.828236H6.1971V1.61785H3.18652V0.828236H3.83209C4.04152 0.828236 4.21133 0.658431 4.21133 0.448993V0H5.17227V0.448993Z" fill="white"/>
<path d="M10.5236 2.89949C10.7317 2.62923 11.1208 2.57891 11.3911 2.78699C11.6611 2.99507 11.7117 3.3842 11.5036 3.6542L11.3613 3.83927L10.3833 3.08153L10.5236 2.89949Z" fill="white"/>
<path fill-rule="evenodd" clip-rule="evenodd" d="M2.54253 6.28379H6.84064C6.87786 6.28379 6.91377 6.28937 6.94775 6.2994L9.01504 3.61503V1.87568C9.01504 1.30669 8.55212 0.843797 7.98315 0.843797H6.9553V1.99709C6.9553 2.20653 6.78549 2.37633 6.57606 2.37633H2.8069C2.59746 2.37633 2.42766 2.20653 2.42766 1.99709V0.84375H1.3998C0.830811 0.84375 0.36792 1.30666 0.36792 1.87563V10.9681C0.36792 11.5371 0.830835 11.9999 1.3998 11.9999H7.98311C8.5521 11.9999 9.01499 11.537 9.01499 10.9681V8.12837L8.66352 8.58473C8.6094 8.65527 8.53204 8.70433 8.44508 8.72352L6.92682 9.05978C6.89952 9.06585 6.87221 9.06887 6.84491 9.06887C6.76173 9.06887 6.68031 9.04157 6.61332 8.98998C6.52433 8.92148 6.47047 8.81704 6.46592 8.7048L6.40323 7.15089C6.40175 7.11407 6.40599 7.07755 6.41497 7.0423H2.54253C2.33309 7.0423 2.16328 6.87249 2.16328 6.66306C2.16328 6.4536 2.33306 6.28379 2.54253 6.28379ZM2.54253 8.31032H5.03227C5.24171 8.31032 5.41152 8.48012 5.41152 8.68956C5.41152 8.899 5.24171 9.0688 5.03227 9.0688H2.54253C2.33309 9.0688 2.16328 8.899 2.16328 8.68956C2.16328 8.48012 2.33309 8.31032 2.54253 8.31032ZM2.54253 4.25726H6.84064C7.05008 4.25726 7.21989 4.42707 7.21989 4.63651C7.21989 4.84594 7.05008 5.01575 6.84064 5.01575H2.54253C2.33309 5.01575 2.16328 4.84594 2.16328 4.63651C2.16328 4.42707 2.33306 4.25726 2.54253 4.25726Z" fill="white"/>
<path d="M7.16699 7.25795L9.92062 3.68262L10.8983 4.4401L8.14699 8.01266L7.20569 8.221L7.16699 7.25795Z" fill="white"/>
</svg>
