<svg width="23" height="22" viewBox="0 0 23 22" fill="none" xmlns="http://www.w3.org/2000/svg">
<path d="M11.715 14.383C11.9284 14.5775 13.8797 16.356 14.4074 16.963L14.4257 16.9842C14.5373 17.1135 14.5536 17.2852 14.4942 17.4311C14.4352 17.5763 14.3148 17.6672 14.1683 17.6672H7.83168C7.68522 17.6672 7.56484 17.5763 7.50575 17.4311C7.44639 17.2852 7.46271 17.1133 7.57448 16.984L7.5928 16.9628C8.12069 16.3556 10.0715 14.5775 10.2851 14.383L10.3022 14.3674L10.3034 14.3663C10.4974 14.1872 10.7395 14.1125 10.9724 14.136L11 14.1388L11.0276 14.136C11.2605 14.1125 11.5026 14.1872 11.6966 14.3663L11.715 14.383Z" fill="white"/>
<path d="M10.3457 7.953L10.3445 7.95187L10.3276 7.93616C10.2327 7.84818 9.7555 7.40575 9.21933 6.89526C9.07769 6.76042 9.04436 6.56109 9.10463 6.3849C9.16465 6.20943 9.29996 6.10003 9.46633 6.10003H12.5337C12.7 6.10003 12.8354 6.20943 12.8954 6.3849C12.9556 6.56109 12.9223 6.76043 12.7807 6.89527C12.2444 7.40579 11.7672 7.84829 11.6723 7.93622L11.6555 7.95186L11.6543 7.953C11.4687 8.1273 11.24 8.20298 11.0189 8.18776L11 8.18646L10.9811 8.18776C10.76 8.20298 10.5313 8.1273 10.3457 7.953Z" fill="white"/>
<path fill-rule="evenodd" clip-rule="evenodd" d="M7.67449 9.64129L7.67258 9.63956C6.87513 8.91825 5.95127 8.08177 5.22519 7.17217C4.49575 6.25836 4 5.31185 4 4.37398V3.12909C4 1.9381 4.89667 1 5.96136 1H16.0379C17.1027 1 18 1.93823 18 3.12909V4.37398C18 5.31185 17.5043 6.25836 16.7748 7.17216C16.0487 8.08176 15.1247 8.91838 14.3273 9.63969L14.3255 9.64127C14.1113 9.83507 13.9066 10.0202 13.7271 10.1882C13.503 10.398 13.3723 10.6928 13.3723 11C13.3723 11.3072 13.5031 11.602 13.7271 11.8118C13.9123 11.9851 14.1246 12.1763 14.3465 12.3762L14.3529 12.382C15.0836 13.0402 15.9743 13.8431 16.6821 14.7024C16.6981 14.7219 16.7126 14.7423 16.7255 14.7635L16.7351 14.7793L16.7466 14.7936C17.4907 15.7177 17.9992 16.6762 17.9992 17.626L17.999 18.8343L17.9995 18.8461C17.9998 18.8543 18 18.8626 18 18.8709C18 20.0619 17.1033 21 16.0386 21H5.96212C4.89731 21 4 20.0618 4 18.8709C4 18.8638 4.0003 18.8568 4.00061 18.8498L4.00076 18.8461V17.626C4.00076 16.6762 4.50926 15.7177 5.25336 14.7936L5.26493 14.7793L5.27453 14.7635C5.28742 14.7423 5.30188 14.7219 5.31792 14.7024C6.02567 13.8431 6.91581 13.0407 7.64656 12.3825L7.65364 12.3761C7.87547 12.1763 8.08779 11.985 8.27289 11.8117C8.49696 11.6019 8.62773 11.3072 8.62773 11C8.62773 10.6928 8.49695 10.398 8.27286 10.1882C8.0934 10.0202 7.88874 9.83509 7.67449 9.64129ZM8.87547 12.6126C8.69009 12.7861 8.48344 12.973 8.26264 13.1727L8.25763 13.1772C7.65563 13.7218 6.83731 14.462 6.16916 15.2343C5.83393 15.6218 5.52993 16.0247 5.30852 16.4221C5.0889 16.8163 4.93785 17.2275 4.93785 17.626V18.8709C4.93785 19.4514 5.38053 19.9544 5.96212 19.9544H16.0379C16.6195 19.9544 17.0622 19.4514 17.0622 18.8709V17.626C17.0622 17.2275 16.9111 16.8163 16.6914 16.4221C16.47 16.0246 16.1659 15.6217 15.8307 15.2342C15.1624 14.4618 14.344 13.7215 13.742 13.1769L13.737 13.1724C13.5162 12.9727 13.3099 12.7861 13.1245 12.6126C12.6871 12.2031 12.4344 11.6153 12.4344 11C12.4344 10.3846 12.6871 9.7969 13.1245 9.38742C13.3096 9.21412 13.5157 9.02767 13.7362 8.82822L13.7419 8.82306C14.344 8.27853 15.1624 7.53825 15.8306 6.7659C16.1659 6.3784 16.47 5.97545 16.6914 5.578C16.9111 5.18376 17.0622 4.77252 17.0622 4.37398V3.12909C17.0622 2.54864 16.6195 2.04556 16.0379 2.04556H5.96212C5.38053 2.04556 4.93785 2.54864 4.93785 3.12909V4.37398C4.93785 4.77253 5.08898 5.18381 5.30869 5.5781C5.5302 5.97561 5.83432 6.37862 6.16968 6.7662C6.83809 7.53868 7.65666 8.27909 8.25867 8.82362L8.26363 8.8281C8.48421 9.02763 8.69031 9.21406 8.87553 9.38742C9.31287 9.7969 9.56558 10.3846 9.56558 11C9.56558 11.6153 9.31286 12.2031 8.87547 12.6126Z" fill="white"/>
</svg>
