<svg width="18" height="18" viewBox="0 0 18 18" fill="none" xmlns="http://www.w3.org/2000/svg">
<path fill-rule="evenodd" clip-rule="evenodd" d="M0 9C0 4.0372 4.0372 0 9 0C13.9628 0 18 4.0372 18 9C18 13.9628 13.9628 18 9 18C4.0372 18 0 13.9628 0 9ZM9.01558 12.7502C9.53327 12.7581 9.95074 13.1805 9.95074 13.7C9.95074 14.2246 9.52529 14.65 9.00078 14.65C8.47628 14.65 8.05083 14.2246 8.05083 13.7C8.05083 13.183 8.46432 12.7621 8.97858 12.7503C8.9857 12.7501 8.99284 12.75 9 12.75C9.00521 12.75 9.0104 12.7501 9.01558 12.7502ZM9.06191 3.00051C11.0101 3.03318 12.6742 4.62347 12.5758 6.575C12.5379 7.32627 12.3369 7.79671 11.939 8.39289C11.5395 8.99165 10.9661 9.54287 10.2718 9.86313C10.077 9.95278 9.95074 10.1498 9.95074 10.3634V11.0711C9.95074 11.5954 9.52612 12.0211 9.00078 12.0211C8.47545 12.0211 8.05083 11.5954 8.05083 11.0711V10.3634C8.05083 9.40987 8.61099 8.53656 9.47596 8.13712C9.81661 7.98035 10.0896 7.74696 10.3402 7.37243C10.5281 7.09165 10.6389 6.91084 10.6757 6.575C10.7767 5.65547 9.92449 4.90005 9.00078 4.90005C8.07707 4.90005 7.32583 5.652 7.32583 6.575C7.32583 7.09939 6.90105 7.52509 6.37574 7.52509C5.85038 7.52509 5.42578 7.09934 5.42578 6.575C5.42578 4.63199 6.98103 3.04583 8.91652 3.00097C8.94427 3.00029 8.97209 2.99995 9 2.99995C9.02068 2.99995 9.04132 3.00014 9.06191 3.00051Z" fill="white"/>
</svg>
