<svg width="208" height="208" viewBox="0 0 208 208" fill="none" xmlns="http://www.w3.org/2000/svg">
<g clip-path="url(#clip0)">
<path opacity="0.1" d="M104 192C55.3989 192 16 152.601 16 104C16 55.399 55.3989 16 104 16C152.601 16 192 55.399 192 104C192 152.601 152.601 192 104 192Z" fill="white"/>
<g filter="url(#filter0_dddi)">
<path d="M53.0883 154.911C24.9705 126.793 24.9706 81.2056 53.0883 53.0878C81.2061 24.9701 126.794 24.9701 154.912 53.0878C183.029 81.2056 183.029 126.793 154.912 154.911C126.794 183.029 81.206 183.029 53.0883 154.911Z" fill="url(#paint0_linear)"/>
</g>
<path d="M57.6145 48.5938C61.5435 49.0981 65.72 50.901 68.888 52.0244C72.5482 53.32 76.8094 56.035 76.1238 59.8582C75.8128 61.5857 74.481 63.0443 74.3783 64.7989C74.2333 67.3387 76.6886 69.2534 79.0653 70.1684C81.442 71.0835 84.1268 71.5757 85.9056 73.3968C86.6515 74.1578 87.189 75.1152 87.9923 75.8158C90.0852 77.6399 93.2139 77.2322 95.9862 77.3469C98.985 77.4738 101.899 78.3314 104.78 79.1831C109.788 80.6659 114.795 82.1487 119.805 83.6315C123.033 84.5858 126.358 85.5945 128.94 87.7537C131.522 89.913 133.18 93.5491 132.024 96.711C131.374 98.4837 129.961 99.8548 128.955 101.455C127.18 104.279 126.705 107.755 125.017 110.633C122.849 114.33 118.962 116.613 115.239 118.736C113.937 119.479 112.593 120.237 111.107 120.451C107.677 120.946 104.506 118.431 102.518 115.592C100.528 112.753 99.2055 109.431 96.8076 106.928C94.443 104.457 90.9911 102.941 87.5907 103.298C84.1902 103.654 80.983 106.055 80.0589 109.35C79.1348 112.641 80.8531 116.579 84.0422 117.815C85.9115 118.539 87.9924 118.34 89.9916 118.503C91.9908 118.666 94.1893 119.385 95.0742 121.182C95.6238 122.296 95.5544 123.61 95.8533 124.818C97.3694 130.967 107.311 132.313 108.096 138.595C108.41 141.117 106.991 143.56 105.191 145.354C100.042 150.485 91.5318 152.137 88.1705 158.578C87.1438 160.547 86.6696 162.873 85.1022 164.443C83.5288 166.022 81.2004 166.497 79.0683 167.149C77.5432 167.617 76.4284 169.287 75 170C67.7188 166.774 59.9277 161.367 54.1656 156.024C54.5582 153.772 56.4608 151.548 56.7869 149.256C57.5872 143.605 53.5647 138.571 51.3329 133.319C49.1404 128.158 48.6421 122.293 49.9376 116.839C50.6504 113.837 52.0093 110.814 54.5461 109.057C55.9625 108.075 57.7835 107.432 58.5355 105.883C59.52 103.859 58.0644 101.41 56.18 100.178C54.2985 98.9458 52.0184 98.4445 50.0977 97.2757C48.177 96.107 46.5764 93.8027 47.3586 91.6918C43.2182 91.5951 39.564 95.5815 35.5052 94.7631C34.4361 94.5487 33.509 94.0021 32.748 93.2531C35.2938 75.393 44.4293 59.662 57.6145 48.5938Z" fill="#155053"/>
<path d="M176.191 104.098C176.191 133.573 157.51 158.233 136 168.5C134.62 166.503 131.638 165.023 132.127 162.562C133.549 155.381 137.451 148.713 143.014 143.953C146.109 141.302 150.029 138.665 150.313 134.597C150.57 130.934 147.671 127.869 144.832 125.534C144.183 125 143.494 124.435 143.21 123.641C142.751 122.354 143.518 120.962 144.406 119.926C146.285 117.74 148.873 116.169 151.681 115.511C153.258 115.143 154.928 115.043 156.362 114.297C158.331 113.276 159.606 111.168 161.644 110.292C163.737 109.392 166.37 109.915 168.179 108.532C170.212 106.977 170.013 103.582 168.252 101.722C166.491 99.8615 163.716 99.3148 161.164 99.4991C158.86 99.6652 156.507 100.336 154.278 99.7165C152.756 99.2937 151.452 98.2971 150.319 97.1948C143.712 90.7623 142.211 79.7152 146.861 71.7546C147.65 70.4077 148.61 69.0909 148.852 67.5508C149.057 66.231 148.71 64.8932 148.568 63.5644C147.885 57.2315 149.839 53.5109 153.237 51.5781C167.355 64.6516 176.191 83.3422 176.191 104.098Z" fill="#155053"/>
<path d="M150 48.4995C147.977 50.8128 141.892 49.5184 139.189 49.4127C134.747 49.2375 134.856 52.2515 131.781 55.1959C128.922 57.9351 125.243 59.7199 121.716 61.4292C119.475 62.5133 116.395 63.4405 114.824 61.5077C114.1 60.6138 113.942 59.294 113.04 58.5783C111.454 57.319 109.252 58.832 107.61 60.0128C103.904 62.6794 99.1144 63.7878 94.6116 63.0267C91.7155 62.5375 88.463 60.5352 88.7378 57.6119C88.8103 56.8509 89.1214 56.0627 88.8375 55.353C88.3452 54.1238 86.6329 54.1661 85.3102 54.2175C82.7251 54.3201 80.0312 53.5682 78.1649 51.7803C76.2985 49.9925 75.4318 47.0813 76.4193 44.6894C76.8361 43.6808 77.5458 42.7989 77.8629 41.754C78.2404 40.5038 78.0139 39.1327 78.3914 37.8824C78.5847 37.2422 79.5953 36.4646 80 35.9995C87.5892 33.2604 95.0767 31.9995 103.611 31.9995C120.922 31.9965 137.621 38.2678 150 48.4995Z" fill="#155053"/>
<path opacity="0.16" d="M152.026 75.7402C157.156 81.2487 159.146 88.9392 160.382 96.3666C161.464 102.872 162.103 109.592 160.612 116.017C159.122 122.442 155.204 128.584 149.217 131.348C143.232 134.113 135.172 132.631 131.58 127.102C130.371 125.239 129.711 123.066 129.306 120.881C128.055 114.16 129.061 107.185 127.955 100.441C127.121 95.3525 125.107 90.5359 122.917 85.8672C121.796 83.4751 120.613 81.0772 120.057 78.493C119.501 75.9088 119.637 73.0673 121.024 70.8202C122.627 68.2241 125.69 66.796 128.727 66.5062C136.964 65.7168 146.473 69.7764 152.026 75.7402Z" fill="#CBFFF3"/>
<path opacity="0.38" d="M118.531 52.8244C120.201 54.1756 121.742 55.7871 122.517 57.7888C123.291 59.7905 123.161 62.2476 121.757 63.8709C120.429 65.4084 118.3 65.9258 116.313 66.3605C114.105 66.8424 111.866 67.3273 109.607 67.2505C107.348 67.1736 105.024 66.4728 103.419 64.8821C102.115 63.59 101.39 61.8366 100.722 60.1276C99.6756 57.4606 98.6732 54.492 99.6548 51.7984C102.688 43.481 114.211 49.3295 118.531 52.8244Z" fill="#ACFFEC" fill-opacity="0.24"/>
<path opacity="0.32" d="M85.5 34.4995C72.6273 47.4003 64.99 66.2608 64.99 85.9353C64.99 125.314 96.8802 157.237 136.219 157.237C142.223 157.237 148.929 156.901 154.5 155.5C141.609 168.418 122.914 176 103.229 176C64 175.5 32.5 144 32 104.698C32 70.9995 54.5744 42.2719 85.5 34.4995Z" fill="#40434C"/>
</g>
<defs>
<filter id="filter0_dddi" x="2.52159" y="2.5211" width="211.379" height="211.379" filterUnits="userSpaceOnUse" color-interpolation-filters="sRGB">
<feFlood flood-opacity="0" result="BackgroundImageFix"/>
<feColorMatrix in="SourceAlpha" type="matrix" values="0 0 0 0 0 0 0 0 0 0 0 0 0 0 0 0 0 0 127 0"/>
<feOffset dx="4.2112" dy="4.2112"/>
<feGaussianBlur stdDeviation="16.8448"/>
<feColorMatrix type="matrix" values="0 0 0 0 0.138902 0 0 0 0 0.992157 0 0 0 0 0 0 0 0 1 0"/>
<feBlend mode="normal" in2="BackgroundImageFix" result="effect1_dropShadow"/>
<feColorMatrix in="SourceAlpha" type="matrix" values="0 0 0 0 0 0 0 0 0 0 0 0 0 0 0 0 0 0 127 0"/>
<feOffset dx="-4.2112" dy="-4.2112"/>
<feGaussianBlur stdDeviation="8.4224"/>
<feColorMatrix type="matrix" values="0 0 0 0 0 0 0 0 0 1 0 0 0 0 0.879699 0 0 0 1 0"/>
<feBlend mode="normal" in2="effect1_dropShadow" result="effect2_dropShadow"/>
<feColorMatrix in="SourceAlpha" type="matrix" values="0 0 0 0 0 0 0 0 0 0 0 0 0 0 0 0 0 0 127 0"/>
<feOffset/>
<feGaussianBlur stdDeviation="4.2112"/>
<feColorMatrix type="matrix" values="0 0 0 0 1 0 0 0 0 1 0 0 0 0 1 0 0 0 1 0"/>
<feBlend mode="normal" in2="effect2_dropShadow" result="effect3_dropShadow"/>
<feBlend mode="normal" in="SourceGraphic" in2="effect3_dropShadow" result="shape"/>
<feColorMatrix in="SourceAlpha" type="matrix" values="0 0 0 0 0 0 0 0 0 0 0 0 0 0 0 0 0 0 127 0" result="hardAlpha"/>
<feMorphology radius="4.2112" operator="erode" in="SourceAlpha" result="effect4_innerShadow"/>
<feOffset dx="4.2112" dy="-4.2112"/>
<feGaussianBlur stdDeviation="2.1056"/>
<feComposite in2="hardAlpha" operator="arithmetic" k2="-1" k3="1"/>
<feColorMatrix type="matrix" values="0 0 0 0 0 0 0 0 0 0.0241379 0 0 0 0 0.025 0 0 0 0.6 0"/>
<feBlend mode="normal" in2="shape" result="effect4_innerShadow"/>
</filter>
<linearGradient id="paint0_linear" x1="104" y1="31.9995" x2="104" y2="176" gradientUnits="userSpaceOnUse">
<stop stop-color="#17473E"/>
<stop offset="1" stop-color="#0C1A1D"/>
</linearGradient>
<clipPath id="clip0">
<rect width="208" height="208" fill="white"/>
</clipPath>
</defs>
</svg>
