<svg width="184" height="184" viewBox="0 0 184 184" fill="none" xmlns="http://www.w3.org/2000/svg">
<path opacity="0.1" d="M96 176C47.3989 176 8 136.601 8 88C8 39.399 47.3989 0 96 0C144.601 0 184 39.399 184 88C184 136.601 144.601 176 96 176Z" fill="white"/>
<g opacity="0.9" filter="url(#filter0_dii)">
<path d="M45.0883 138.911C16.9705 110.793 16.9706 65.2056 45.0883 37.0878C73.2061 8.97009 118.794 8.97006 146.912 37.0878C175.029 65.2056 175.029 110.793 146.912 138.911C118.794 167.029 73.206 167.029 45.0883 138.911Z" fill="url(#paint0_linear)"/>
</g>
<path opacity="0.16" d="M144.026 59.7402C149.156 65.2487 151.146 72.9392 152.382 80.3666C153.464 86.8715 154.103 93.5923 152.612 100.017C151.122 106.442 147.204 112.584 141.217 115.348C135.232 118.113 127.172 116.631 123.58 111.102C122.371 109.239 121.711 107.066 121.306 104.881C120.055 98.1605 121.061 91.1854 119.955 84.4411C119.121 79.3525 117.107 74.5359 114.917 69.8672C113.796 67.4751 112.613 65.0772 112.057 62.493C111.501 59.9088 111.637 57.0673 113.024 54.8202C114.627 52.2241 117.69 50.796 120.727 50.5062C128.964 49.7168 138.473 53.7764 144.026 59.7402Z" fill="#CBFFF3"/>
<path opacity="0.38" d="M110.531 36.8244C112.201 38.1756 113.742 39.7871 114.517 41.7888C115.291 43.7905 115.161 46.2476 113.757 47.8709C112.429 49.4084 110.3 49.9258 108.313 50.3605C106.105 50.8424 103.866 51.3273 101.607 51.2505C99.3484 51.1736 97.0243 50.4728 95.4188 48.8821C94.1149 47.59 93.3905 45.8366 92.7223 44.1276C91.6756 41.4606 90.6732 38.492 91.6548 35.7984C94.6885 27.481 106.211 33.3295 110.531 36.8244Z" fill="#ACFFEC" fill-opacity="0.3"/>
<path opacity="0.32" d="M77.5 18.4995C64.6273 31.4003 56.99 50.2608 56.99 69.9353C56.99 109.314 88.8802 141.237 128.219 141.237C134.223 141.237 140.929 140.901 146.5 139.5C133.609 152.418 114.914 160 95.2294 160C55.8902 160 24 128.077 24 88.6984C23.997 55.3291 46.5744 26.2719 77.5 18.4995Z" fill="#40434C"/>
<defs>
<filter id="filter0_dii" x="0.910839" y="1.15648" width="181.932" height="181.932" filterUnits="userSpaceOnUse" color-interpolation-filters="sRGB">
<feFlood flood-opacity="0" result="BackgroundImageFix"/>
<feColorMatrix in="SourceAlpha" type="matrix" values="0 0 0 0 0 0 0 0 0 0 0 0 0 0 0 0 0 0 127 0"/>
<feMorphology radius="2.47384" operator="dilate" in="SourceAlpha" result="effect1_dropShadow"/>
<feOffset dx="-4.12306" dy="4.12306"/>
<feGaussianBlur stdDeviation="8.24613"/>
<feColorMatrix type="matrix" values="0 0 0 0 0 0 0 0 0 0.0231884 0 0 0 0 0.0333333 0 0 0 1 0"/>
<feBlend mode="normal" in2="BackgroundImageFix" result="effect1_dropShadow"/>
<feBlend mode="normal" in="SourceGraphic" in2="effect1_dropShadow" result="shape"/>
<feColorMatrix in="SourceAlpha" type="matrix" values="0 0 0 0 0 0 0 0 0 0 0 0 0 0 0 0 0 0 127 0" result="hardAlpha"/>
<feMorphology radius="4.12306" operator="erode" in="SourceAlpha" result="effect2_innerShadow"/>
<feOffset dx="-0.824613"/>
<feGaussianBlur stdDeviation="4.12306"/>
<feComposite in2="hardAlpha" operator="arithmetic" k2="-1" k3="1"/>
<feColorMatrix type="matrix" values="0 0 0 0 0 0 0 0 0 1 0 0 0 0 0.761589 0 0 0 1 0"/>
<feBlend mode="normal" in2="shape" result="effect2_innerShadow"/>
<feColorMatrix in="SourceAlpha" type="matrix" values="0 0 0 0 0 0 0 0 0 0 0 0 0 0 0 0 0 0 127 0" result="hardAlpha"/>
<feMorphology radius="4.12306" operator="erode" in="SourceAlpha" result="effect3_innerShadow"/>
<feOffset dx="4.12306" dy="-4.12306"/>
<feGaussianBlur stdDeviation="2.06153"/>
<feComposite in2="hardAlpha" operator="arithmetic" k2="-1" k3="1"/>
<feColorMatrix type="matrix" values="0 0 0 0 0.12549 0 0 0 0 0.105882 0 0 0 0 0.231373 0 0 0 1 0"/>
<feBlend mode="normal" in2="effect2_innerShadow" result="effect3_innerShadow"/>
</filter>
<linearGradient id="paint0_linear" x1="146.909" y1="37.0878" x2="45.0854" y2="138.911" gradientUnits="userSpaceOnUse">
<stop stop-color="#00A08A"/>
<stop offset="1" stop-color="#00362F"/>
</linearGradient>
</defs>
</svg>
