<svg width="212" height="141" viewBox="0 0 212 141" fill="none" xmlns="http://www.w3.org/2000/svg">
<path opacity="0.1" d="M102 190.001C53.3989 190.001 14 150.602 14 102.001C14 53.3994 53.3989 14.0005 102 14.0005C150.601 14.0005 190 53.3994 190 102.001C190 150.602 150.601 190.001 102 190.001Z" fill="white"/>
<g filter="url(#filter0_dddi)">
<path d="M51.0883 152.912C22.9705 124.794 22.9706 79.2061 51.0883 51.0883C79.2061 22.9706 124.794 22.9705 152.912 51.0883C181.029 79.2061 181.029 124.794 152.912 152.912C124.794 181.029 79.206 181.029 51.0883 152.912Z" fill="url(#paint0_linear)"/>
</g>
<path d="M55.6145 46.5942C59.5435 47.0986 63.72 48.9015 66.888 50.0249C70.5482 51.3205 74.8094 54.0354 74.1238 57.8587C73.8128 59.5862 72.481 61.0448 72.3783 62.7994C72.2333 65.3392 74.6886 67.2539 77.0653 68.1689C79.442 69.084 82.1268 69.5762 83.9056 71.3973C84.6515 72.1583 85.189 73.1156 85.9923 73.8163C88.0852 75.6403 91.2139 75.2326 93.9862 75.3474C96.985 75.4742 99.8993 76.3319 102.78 77.1835C107.788 78.6664 112.795 80.1492 117.805 81.632C121.033 82.5863 124.358 83.595 126.94 85.7542C129.522 87.9135 131.18 91.5496 130.024 94.7115C129.374 96.4842 127.961 97.8553 126.955 99.4559C125.18 102.28 124.705 105.756 123.017 108.634C120.849 112.33 116.962 114.613 113.239 116.736C111.937 117.479 110.593 118.237 109.107 118.451C105.677 118.947 102.506 116.431 100.518 113.592C98.5283 110.754 97.2055 107.432 94.8076 104.928C92.443 102.458 88.9911 100.942 85.5907 101.298C82.1902 101.654 78.983 104.055 78.0589 107.35C77.1348 110.642 78.8531 114.58 82.0422 115.815C83.9115 116.54 85.9924 116.341 87.9916 116.504C89.9908 116.667 92.1893 117.385 93.0742 119.182C93.6238 120.297 93.5544 121.61 93.8533 122.818C95.3694 128.967 105.311 130.314 106.096 136.595C106.41 139.117 104.991 141.56 103.191 143.354C98.042 148.485 89.5318 150.137 86.1705 156.579C85.1438 158.548 84.6696 160.873 83.1022 162.443C81.5288 164.023 79.2004 164.497 77.0683 165.149C75.5432 165.617 74.4284 167.287 73 168C65.7188 164.775 57.9277 159.367 52.1656 154.025C52.5582 151.772 54.4608 149.548 54.7869 147.256C55.5872 141.606 51.5647 136.571 49.3329 131.32C47.1404 126.158 46.6421 120.294 47.9376 114.84C48.6504 111.838 50.0093 108.815 52.5461 107.057C53.9625 106.076 55.7835 105.432 56.5355 103.883C57.52 101.86 56.0644 99.4105 54.18 98.1784C52.2985 96.9463 50.0184 96.4449 48.0977 95.2762C46.177 94.1075 44.5764 91.8032 45.3586 89.6923C41.2182 89.5956 37.564 93.582 33.5052 92.7636C32.4361 92.5492 31.509 92.0026 30.748 91.2536C33.2938 73.3935 42.4293 57.6624 55.6145 46.5942Z" fill="#155053"/>
<path d="M174.191 102.099C174.191 131.574 155.51 156.234 134 166.5C132.62 164.504 129.638 163.024 130.127 160.563C131.549 153.381 135.451 146.713 141.014 141.954C144.109 139.302 148.029 136.666 148.313 132.598C148.57 128.934 145.671 125.869 142.832 123.535C142.183 123 141.494 122.435 141.21 121.641C140.751 120.355 141.518 118.963 142.406 117.927C144.285 115.74 146.873 114.17 149.681 113.511C151.258 113.143 152.928 113.043 154.362 112.297C156.331 111.277 157.606 109.169 159.644 108.293C161.737 107.393 164.37 107.915 166.179 106.532C168.212 104.977 168.013 101.583 166.252 99.7223C164.491 97.8619 161.716 97.3153 159.164 97.4995C156.86 97.6656 154.507 98.3361 152.278 97.717C150.756 97.2942 149.452 96.2976 148.319 95.1953C141.712 88.7628 140.211 77.7157 144.861 69.7551C145.65 68.4081 146.61 67.0914 146.852 65.5512C147.057 64.2315 146.71 62.8937 146.568 61.5649C145.885 55.232 147.839 51.5114 151.237 49.5786C165.355 62.6521 174.191 81.3427 174.191 102.099Z" fill="#155053"/>
<path d="M148 46.5C145.977 48.8133 139.892 47.5189 137.189 47.4132C132.747 47.238 132.856 50.252 129.781 53.1964C126.922 55.9355 123.243 57.7203 119.716 59.4296C117.475 60.5138 114.395 61.441 112.824 59.5082C112.1 58.6143 111.942 57.2945 111.04 56.5788C109.454 55.3195 107.252 56.8325 105.61 58.0133C101.904 60.6799 97.1144 61.7882 92.6116 61.0272C89.7155 60.538 86.463 58.5357 86.7378 55.6124C86.8103 54.8514 87.1214 54.0632 86.8375 53.3535C86.3452 52.1243 84.6329 52.1666 83.3102 52.2179C80.7251 52.3206 78.0312 51.5687 76.1649 49.7808C74.2985 47.993 73.4318 45.0818 74.4193 42.6899C74.8361 41.6813 75.5458 40.7994 75.8629 39.7545C76.2404 38.5043 76.0139 37.1332 76.3914 35.8829C76.5847 35.2427 77.5953 34.4651 78 34C85.5892 31.2609 93.0767 30 101.611 30C118.922 29.997 135.621 36.2683 148 46.5Z" fill="#155053"/>
<path opacity="0.16" d="M150.026 73.7407C155.156 79.2492 157.146 86.9397 158.382 94.3671C159.464 100.872 160.103 107.593 158.612 114.018C157.122 120.443 153.204 126.584 147.217 129.349C141.232 132.113 133.172 130.632 129.58 125.103C128.371 123.24 127.711 121.067 127.306 118.882C126.055 112.161 127.061 105.186 125.955 98.4415C125.121 93.353 123.107 88.5364 120.917 83.8676C119.796 81.4756 118.613 79.0777 118.057 76.4935C117.501 73.9093 117.637 71.0678 119.024 68.8207C120.627 66.2246 123.69 64.7965 126.727 64.5067C134.964 63.7173 144.473 67.7769 150.026 73.7407Z" fill="#CBFFF3"/>
<path opacity="0.38" d="M116.531 50.8249C118.201 52.1761 119.742 53.7876 120.517 55.7893C121.291 57.791 121.161 60.2481 119.757 61.8714C118.429 63.4089 116.3 63.9263 114.313 64.361C112.105 64.8429 109.866 65.3278 107.607 65.2509C105.348 65.1741 103.024 64.4733 101.419 62.8826C100.115 61.5905 99.3905 59.8371 98.7223 58.1281C97.6756 55.4611 96.6732 52.4925 97.6548 49.7989C100.688 41.4815 112.211 47.33 116.531 50.8249Z" fill="#ACFFEC" fill-opacity="0.24"/>
<g filter="url(#filter1_i)">
<path d="M45.7675 95.2H48.4275L50.7375 99.96L53.0475 95.2H55.7075L51.9975 102.41V105H49.4775V102.41L45.7675 95.2ZM62.9929 97.86C62.9929 97.3 62.7129 97.02 62.1529 97.02H59.7729C59.2129 97.02 58.9329 97.3 58.9329 97.86V102.34C58.9329 102.9 59.2129 103.18 59.7729 103.18H62.1529C62.7129 103.18 62.9929 102.9 62.9929 102.34V97.86ZM65.5129 102.34C65.5129 103.32 65.2889 104.034 64.8409 104.482C64.4023 104.921 63.6929 105.14 62.7129 105.14H59.2129C58.2329 105.14 57.5189 104.921 57.0709 104.482C56.6323 104.034 56.4129 103.32 56.4129 102.34V97.86C56.4129 96.88 56.6323 96.1707 57.0709 95.732C57.5189 95.284 58.2329 95.06 59.2129 95.06H62.7129C63.6929 95.06 64.4023 95.284 64.8409 95.732C65.2889 96.1707 65.5129 96.88 65.5129 97.86V102.34ZM73.9195 95.2H76.4395V102.34C76.4395 103.32 76.2155 104.034 75.7675 104.482C75.3288 104.921 74.6195 105.14 73.6395 105.14H70.4195C69.4395 105.14 68.7255 104.921 68.2775 104.482C67.8388 104.034 67.6195 103.32 67.6195 102.34V95.2H70.1395V102.34C70.1395 102.9 70.4195 103.18 70.9795 103.18H73.0795C73.6395 103.18 73.9195 102.9 73.9195 102.34V95.2ZM85.4668 105H82.7368L86.4468 95.2H89.2468L92.9568 105H90.2268L89.5968 103.25H86.0968L85.4668 105ZM86.7268 101.43H88.9668L87.8468 98.14L86.7268 101.43ZM94.3562 95.2H100.236C101.216 95.2 101.926 95.424 102.364 95.872C102.812 96.3107 103.036 97.02 103.036 98V99.26C103.036 100.035 102.906 100.637 102.644 101.066C102.392 101.495 101.986 101.78 101.426 101.92L103.176 105H100.446L98.8362 102.06H96.8762V105H94.3562V95.2ZM100.516 98C100.516 97.44 100.236 97.16 99.6762 97.16H96.8762V100.1H99.6762C100.236 100.1 100.516 99.82 100.516 99.26V98ZM112.902 105H105.132V95.2H112.902V97.16H107.652V99.05H111.782V101.01H107.652V103.04H112.902V105ZM128.156 105H125.636V101.01H122.136V105H119.616V95.2H122.136V99.05H125.636V95.2H128.156V105ZM138.313 105H130.543V95.2H138.313V97.16H133.063V99.05H137.193V101.01H133.063V103.04H138.313V105ZM140.13 95.2H146.01C146.99 95.2 147.699 95.424 148.138 95.872C148.586 96.3107 148.81 97.02 148.81 98V99.26C148.81 100.035 148.679 100.637 148.418 101.066C148.166 101.495 147.76 101.78 147.2 101.92L148.95 105H146.22L144.61 102.06H142.65V105H140.13V95.2ZM146.29 98C146.29 97.44 146.01 97.16 145.45 97.16H142.65V100.1H145.45C146.01 100.1 146.29 99.82 146.29 99.26V98ZM158.676 105H150.906V95.2H158.676V97.16H153.426V99.05H157.556V101.01H153.426V103.04H158.676V105Z" fill="white"/>
</g>
<g filter="url(#filter2_i)">
<path d="M96.395 62H86.405V49.4H96.395V51.92H89.645V54.35H94.955V56.87H89.645V59.48H96.395V62ZM105.751 62H102.511V51.92H98.7308V49.4H109.531V51.92H105.751V62ZM122.313 61.82C119.637 62.06 117.417 62.18 115.653 62.18C114.477 62.18 113.613 61.904 113.061 61.352C112.509 60.8 112.233 59.936 112.233 58.76V53C112.233 51.74 112.515 50.828 113.079 50.264C113.655 49.688 114.573 49.4 115.833 49.4H122.313V51.92H116.553C115.833 51.92 115.473 52.28 115.473 53V58.76C115.473 59.036 115.551 59.258 115.707 59.426C115.875 59.582 116.085 59.66 116.337 59.66C116.589 59.66 116.865 59.66 117.165 59.66C117.465 59.648 117.777 59.636 118.101 59.624C118.425 59.612 118.749 59.6 119.073 59.588C119.409 59.576 119.835 59.552 120.351 59.516C120.879 59.48 121.533 59.438 122.313 59.39V61.82Z" fill="white"/>
</g>
<path opacity="0.32" d="M83.5 32.5C70.6273 45.4008 62.99 64.2613 62.99 83.9358C62.99 123.315 94.8802 155.237 134.219 155.237C140.223 155.237 146.929 154.902 152.5 153.5C139.609 166.419 120.914 174 101.229 174C62 173.5 30.5 142 30 102.699C30 69 52.5744 40.2723 83.5 32.5Z" fill="#40434C"/>
<defs>
<filter id="filter0_dddi" x="0.521588" y="0.521588" width="211.379" height="211.379" filterUnits="userSpaceOnUse" color-interpolation-filters="sRGB">
<feFlood flood-opacity="0" result="BackgroundImageFix"/>
<feColorMatrix in="SourceAlpha" type="matrix" values="0 0 0 0 0 0 0 0 0 0 0 0 0 0 0 0 0 0 127 0"/>
<feOffset dx="4.2112" dy="4.2112"/>
<feGaussianBlur stdDeviation="16.8448"/>
<feColorMatrix type="matrix" values="0 0 0 0 0.138902 0 0 0 0 0.992157 0 0 0 0 0 0 0 0 1 0"/>
<feBlend mode="normal" in2="BackgroundImageFix" result="effect1_dropShadow"/>
<feColorMatrix in="SourceAlpha" type="matrix" values="0 0 0 0 0 0 0 0 0 0 0 0 0 0 0 0 0 0 127 0"/>
<feOffset dx="-4.2112" dy="-4.2112"/>
<feGaussianBlur stdDeviation="8.4224"/>
<feColorMatrix type="matrix" values="0 0 0 0 0 0 0 0 0 1 0 0 0 0 0.879699 0 0 0 1 0"/>
<feBlend mode="normal" in2="effect1_dropShadow" result="effect2_dropShadow"/>
<feColorMatrix in="SourceAlpha" type="matrix" values="0 0 0 0 0 0 0 0 0 0 0 0 0 0 0 0 0 0 127 0"/>
<feOffset/>
<feGaussianBlur stdDeviation="4.2112"/>
<feColorMatrix type="matrix" values="0 0 0 0 1 0 0 0 0 1 0 0 0 0 1 0 0 0 1 0"/>
<feBlend mode="normal" in2="effect2_dropShadow" result="effect3_dropShadow"/>
<feBlend mode="normal" in="SourceGraphic" in2="effect3_dropShadow" result="shape"/>
<feColorMatrix in="SourceAlpha" type="matrix" values="0 0 0 0 0 0 0 0 0 0 0 0 0 0 0 0 0 0 127 0" result="hardAlpha"/>
<feMorphology radius="4.2112" operator="erode" in="SourceAlpha" result="effect4_innerShadow"/>
<feOffset dx="4.2112" dy="-4.2112"/>
<feGaussianBlur stdDeviation="2.1056"/>
<feComposite in2="hardAlpha" operator="arithmetic" k2="-1" k3="1"/>
<feColorMatrix type="matrix" values="0 0 0 0 0 0 0 0 0 0.0241379 0 0 0 0 0.025 0 0 0 0.6 0"/>
<feBlend mode="normal" in2="shape" result="effect4_innerShadow"/>
</filter>
<filter id="filter1_i" x="45.2656" y="95.0601" width="113.408" height="10.58" filterUnits="userSpaceOnUse" color-interpolation-filters="sRGB">
<feFlood flood-opacity="0" result="BackgroundImageFix"/>
<feBlend mode="normal" in="SourceGraphic" in2="BackgroundImageFix" result="shape"/>
<feColorMatrix in="SourceAlpha" type="matrix" values="0 0 0 0 0 0 0 0 0 0 0 0 0 0 0 0 0 0 127 0" result="hardAlpha"/>
<feOffset dx="-0.5" dy="0.5"/>
<feGaussianBlur stdDeviation="0.25"/>
<feComposite in2="hardAlpha" operator="arithmetic" k2="-1" k3="1"/>
<feColorMatrix type="matrix" values="0 0 0 0 0.0666667 0 0 0 0 0.305882 0 0 0 0 0.298039 0 0 0 1 0"/>
<feBlend mode="normal" in2="shape" result="effect1_innerShadow"/>
</filter>
<filter id="filter2_i" x="85.9062" y="49.3999" width="36.4079" height="13.28" filterUnits="userSpaceOnUse" color-interpolation-filters="sRGB">
<feFlood flood-opacity="0" result="BackgroundImageFix"/>
<feBlend mode="normal" in="SourceGraphic" in2="BackgroundImageFix" result="shape"/>
<feColorMatrix in="SourceAlpha" type="matrix" values="0 0 0 0 0 0 0 0 0 0 0 0 0 0 0 0 0 0 127 0" result="hardAlpha"/>
<feOffset dx="-0.5" dy="0.5"/>
<feGaussianBlur stdDeviation="0.25"/>
<feComposite in2="hardAlpha" operator="arithmetic" k2="-1" k3="1"/>
<feColorMatrix type="matrix" values="0 0 0 0 0.0666667 0 0 0 0 0.305882 0 0 0 0 0.298039 0 0 0 1 0"/>
<feBlend mode="normal" in2="shape" result="effect1_innerShadow"/>
</filter>
<linearGradient id="paint0_linear" x1="102" y1="30" x2="102" y2="174" gradientUnits="userSpaceOnUse">
<stop stop-color="#17473E"/>
<stop offset="1" stop-color="#0C1A1D"/>
</linearGradient>
</defs>
</svg>
