<svg width="212" height="212" viewBox="0 0 212 212" fill="none" xmlns="http://www.w3.org/2000/svg">
<path opacity="0.1" d="M102 190C53.3989 190 14 150.601 14 102C14 53.399 53.3989 14 102 14C150.601 14 190 53.399 190 102C190 150.601 150.601 190 102 190Z" fill="white"/>
<g filter="url(#filter0_dddi)">
<path d="M51.0883 152.911C22.9705 124.793 22.9706 79.2056 51.0883 51.0878C79.2061 22.9701 124.794 22.9701 152.912 51.0878C181.029 79.2056 181.029 124.793 152.912 152.911C124.794 181.029 79.206 181.029 51.0883 152.911Z" fill="url(#paint0_linear)"/>
</g>
<path d="M55.6145 46.5938C59.5435 47.0981 63.72 48.901 66.888 50.0244C70.5482 51.32 74.8094 54.035 74.1238 57.8582C73.8128 59.5857 72.481 61.0443 72.3783 62.7989C72.2333 65.3387 74.6886 67.2534 77.0653 68.1684C79.442 69.0835 82.1268 69.5757 83.9056 71.3968C84.6515 72.1578 85.189 73.1152 85.9923 73.8158C88.0852 75.6399 91.2139 75.2322 93.9862 75.3469C96.985 75.4738 99.8993 76.3314 102.78 77.1831C107.788 78.6659 112.795 80.1487 117.805 81.6315C121.033 82.5858 124.358 83.5945 126.94 85.7537C129.522 87.913 131.18 91.5491 130.024 94.711C129.374 96.4837 127.961 97.8548 126.955 99.4554C125.18 102.279 124.705 105.755 123.017 108.633C120.849 112.33 116.962 114.613 113.239 116.736C111.937 117.479 110.593 118.237 109.107 118.451C105.677 118.946 102.506 116.431 100.518 113.592C98.5283 110.753 97.2055 107.431 94.8076 104.928C92.443 102.457 88.9911 100.941 85.5907 101.298C82.1902 101.654 78.983 104.055 78.0589 107.35C77.1348 110.641 78.8531 114.579 82.0422 115.815C83.9115 116.539 85.9924 116.34 87.9916 116.503C89.9908 116.666 92.1893 117.385 93.0742 119.182C93.6238 120.296 93.5544 121.61 93.8533 122.818C95.3694 128.967 105.311 130.313 106.096 136.595C106.41 139.117 104.991 141.56 103.191 143.354C98.042 148.485 89.5318 150.137 86.1705 156.578C85.1438 158.547 84.6696 160.873 83.1022 162.443C81.5288 164.022 79.2004 164.497 77.0683 165.149C75.5432 165.617 74.4284 167.287 73 168C65.7188 164.774 57.9277 159.367 52.1656 154.024C52.5582 151.772 54.4608 149.548 54.7869 147.256C55.5872 141.605 51.5647 136.571 49.3329 131.319C47.1404 126.158 46.6421 120.293 47.9376 114.839C48.6504 111.837 50.0093 108.814 52.5461 107.057C53.9625 106.075 55.7835 105.432 56.5355 103.883C57.52 101.859 56.0644 99.4101 54.18 98.1779C52.2985 96.9458 50.0184 96.4445 48.0977 95.2757C46.177 94.107 44.5764 91.8027 45.3586 89.6918C41.2182 89.5951 37.564 93.5815 33.5052 92.7631C32.4361 92.5487 31.509 92.0021 30.748 91.2531C33.2938 73.393 42.4293 57.662 55.6145 46.5938Z" fill="#155053"/>
<path d="M174.191 102.098C174.191 131.573 155.51 156.233 134 166.5C132.62 164.503 129.638 163.023 130.127 160.562C131.549 153.381 135.451 146.713 141.014 141.953C144.109 139.302 148.029 136.665 148.313 132.597C148.57 128.934 145.671 125.869 142.832 123.534C142.183 123 141.494 122.435 141.21 121.641C140.751 120.354 141.518 118.962 142.406 117.926C144.285 115.74 146.873 114.169 149.681 113.511C151.258 113.143 152.928 113.043 154.362 112.297C156.331 111.276 157.606 109.168 159.644 108.292C161.737 107.392 164.37 107.915 166.179 106.532C168.212 104.977 168.013 101.582 166.252 99.7218C164.491 97.8615 161.716 97.3148 159.164 97.4991C156.86 97.6652 154.507 98.3356 152.278 97.7165C150.756 97.2937 149.452 96.2971 148.319 95.1948C141.712 88.7623 140.211 77.7152 144.861 69.7546C145.65 68.4077 146.61 67.0909 146.852 65.5508C147.057 64.231 146.71 62.8932 146.568 61.5644C145.885 55.2315 147.839 51.5109 151.237 49.5781C165.355 62.6516 174.191 81.3422 174.191 102.098Z" fill="#155053"/>
<path d="M148 46.4995C145.977 48.8128 139.892 47.5184 137.189 47.4127C132.747 47.2375 132.856 50.2515 129.781 53.1959C126.922 55.9351 123.243 57.7199 119.716 59.4292C117.475 60.5133 114.395 61.4405 112.824 59.5077C112.1 58.6138 111.942 57.294 111.04 56.5783C109.454 55.319 107.252 56.832 105.61 58.0128C101.904 60.6794 97.1144 61.7878 92.6116 61.0267C89.7155 60.5375 86.463 58.5352 86.7378 55.6119C86.8103 54.8509 87.1214 54.0627 86.8375 53.353C86.3452 52.1238 84.6329 52.1661 83.3102 52.2175C80.7251 52.3201 78.0312 51.5682 76.1649 49.7803C74.2985 47.9925 73.4318 45.0813 74.4193 42.6894C74.8361 41.6808 75.5458 40.7989 75.8629 39.754C76.2404 38.5038 76.0139 37.1327 76.3914 35.8824C76.5847 35.2422 77.5953 34.4646 78 33.9995C85.5892 31.2604 93.0767 29.9995 101.611 29.9995C118.922 29.9965 135.621 36.2678 148 46.4995Z" fill="#155053"/>
<path opacity="0.16" d="M150.026 73.7402C155.156 79.2487 157.146 86.9392 158.382 94.3666C159.464 100.872 160.103 107.592 158.612 114.017C157.122 120.442 153.204 126.584 147.217 129.348C141.232 132.113 133.172 130.631 129.58 125.102C128.371 123.239 127.711 121.066 127.306 118.881C126.055 112.16 127.061 105.185 125.955 98.4411C125.121 93.3525 123.107 88.5359 120.917 83.8672C119.796 81.4751 118.613 79.0772 118.057 76.493C117.501 73.9088 117.637 71.0673 119.024 68.8202C120.627 66.2241 123.69 64.796 126.727 64.5062C134.964 63.7168 144.473 67.7764 150.026 73.7402Z" fill="#CBFFF3"/>
<path opacity="0.38" d="M116.531 50.8244C118.201 52.1756 119.742 53.7871 120.517 55.7888C121.291 57.7905 121.161 60.2476 119.757 61.8709C118.429 63.4084 116.3 63.9258 114.313 64.3605C112.105 64.8424 109.866 65.3273 107.607 65.2505C105.348 65.1736 103.024 64.4728 101.419 62.8821C100.115 61.59 99.3905 59.8366 98.7223 58.1276C97.6756 55.4606 96.6732 52.492 97.6548 49.7984C100.688 41.481 112.211 47.3295 116.531 50.8244Z" fill="#ACFFEC" fill-opacity="0.24"/>
<path opacity="0.32" d="M83.5 32.4995C70.6273 45.4003 62.99 64.2608 62.99 83.9353C62.99 123.314 94.8802 155.237 134.219 155.237C140.223 155.237 146.929 154.901 152.5 153.5C139.609 166.418 120.914 174 101.229 174C62 173.5 30.5 142 30 102.698C30 68.9995 52.5744 40.2719 83.5 32.4995Z" fill="#40434C"/>
<defs>
<filter id="filter0_dddi" x="0.521588" y="0.5211" width="211.379" height="211.379" filterUnits="userSpaceOnUse" color-interpolation-filters="sRGB">
<feFlood flood-opacity="0" result="BackgroundImageFix"/>
<feColorMatrix in="SourceAlpha" type="matrix" values="0 0 0 0 0 0 0 0 0 0 0 0 0 0 0 0 0 0 127 0"/>
<feOffset dx="4.2112" dy="4.2112"/>
<feGaussianBlur stdDeviation="16.8448"/>
<feColorMatrix type="matrix" values="0 0 0 0 0.138902 0 0 0 0 0.992157 0 0 0 0 0 0 0 0 1 0"/>
<feBlend mode="normal" in2="BackgroundImageFix" result="effect1_dropShadow"/>
<feColorMatrix in="SourceAlpha" type="matrix" values="0 0 0 0 0 0 0 0 0 0 0 0 0 0 0 0 0 0 127 0"/>
<feOffset dx="-4.2112" dy="-4.2112"/>
<feGaussianBlur stdDeviation="8.4224"/>
<feColorMatrix type="matrix" values="0 0 0 0 0 0 0 0 0 1 0 0 0 0 0.879699 0 0 0 1 0"/>
<feBlend mode="normal" in2="effect1_dropShadow" result="effect2_dropShadow"/>
<feColorMatrix in="SourceAlpha" type="matrix" values="0 0 0 0 0 0 0 0 0 0 0 0 0 0 0 0 0 0 127 0"/>
<feOffset/>
<feGaussianBlur stdDeviation="4.2112"/>
<feColorMatrix type="matrix" values="0 0 0 0 1 0 0 0 0 1 0 0 0 0 1 0 0 0 1 0"/>
<feBlend mode="normal" in2="effect2_dropShadow" result="effect3_dropShadow"/>
<feBlend mode="normal" in="SourceGraphic" in2="effect3_dropShadow" result="shape"/>
<feColorMatrix in="SourceAlpha" type="matrix" values="0 0 0 0 0 0 0 0 0 0 0 0 0 0 0 0 0 0 127 0" result="hardAlpha"/>
<feMorphology radius="4.2112" operator="erode" in="SourceAlpha" result="effect4_innerShadow"/>
<feOffset dx="4.2112" dy="-4.2112"/>
<feGaussianBlur stdDeviation="2.1056"/>
<feComposite in2="hardAlpha" operator="arithmetic" k2="-1" k3="1"/>
<feColorMatrix type="matrix" values="0 0 0 0 0 0 0 0 0 0.0241379 0 0 0 0 0.025 0 0 0 0.6 0"/>
<feBlend mode="normal" in2="shape" result="effect4_innerShadow"/>
</filter>
<linearGradient id="paint0_linear" x1="102" y1="29.9995" x2="102" y2="174" gradientUnits="userSpaceOnUse">
<stop stop-color="#17473E"/>
<stop offset="1" stop-color="#0C1A1D"/>
</linearGradient>
</defs>
</svg>
