<svg width="18" height="18" viewBox="0 0 18 18" fill="none" xmlns="http://www.w3.org/2000/svg">
<path d="M9.56253 8.80319C11.7007 8.80319 13.4341 6.83255 13.4341 4.40162C13.4341 1.97064 12.865 0 9.56253 0C6.26008 0 5.69085 1.97064 5.69085 4.40162C5.69085 6.83255 7.4243 8.80319 9.56253 8.80319Z" fill="white"/>
<path d="M16.8668 15.3461C16.7951 11.1114 16.2042 9.90472 11.6827 9.1409C11.6827 9.1409 11.0462 9.90004 9.56266 9.90004C8.07915 9.90004 7.44256 9.1409 7.44256 9.1409C2.97033 9.89639 2.34352 11.0852 2.2611 15.2086C2.25434 15.5453 2.25121 15.563 2.25 15.5239C2.25027 15.5971 2.2506 15.7326 2.2506 15.9688C2.2506 15.9688 3.32708 18 9.56266 18C15.7981 18 16.8747 15.9688 16.8747 15.9688C16.8747 15.817 16.8748 15.7115 16.875 15.6397C16.8738 15.6639 16.8714 15.617 16.8668 15.3461Z" fill="white"/>
</svg>
