<svg width="12" height="13" viewBox="0 0 12 13" fill="none" xmlns="http://www.w3.org/2000/svg">
<path d="M11.9621 5.30946C11.9366 5.24844 11.9001 5.19293 11.8536 5.14643L10.3539 3.64673C10.1584 3.45171 9.84237 3.45171 9.64685 3.64673C9.45134 3.84225 9.45134 4.15879 9.64685 4.35381L10.2934 5.00039H7.50007C7.22354 5.00039 7.00001 5.22441 7.00001 5.50045C7.00001 5.77648 7.22354 6.0005 7.50007 6.0005H10.2934L9.64683 6.64708C9.45131 6.8426 9.45131 7.15914 9.64683 7.35416C9.74434 7.45217 9.87235 7.50069 10.0004 7.50069C10.1284 7.50069 10.2564 7.45219 10.3539 7.35416L11.8536 5.85447C11.9001 5.80845 11.9366 5.75295 11.9621 5.69144C12.0126 5.56948 12.0126 5.43146 11.9621 5.30946Z" fill="white"/>
<path d="M8.50103 7.00087C8.22451 7.00087 8.00098 7.22489 8.00098 7.50092V10.0012H6.00074V2.00024C6.00074 1.77971 5.85571 1.58469 5.64419 1.52119L3.90747 1.00013H8.00098V3.50045C8.00098 3.77648 8.22451 4.0005 8.50103 4.0005C8.77756 4.0005 9.00109 3.77648 9.00109 3.50045V0.500077C9.00109 0.22402 8.77756 0 8.50103 0H0.500054C0.482052 0 0.466042 0.00750092 0.448555 0.00949336C0.425045 0.0120015 0.40355 0.0159863 0.381047 0.0214948C0.328541 0.0349965 0.281027 0.0555068 0.236537 0.0834947C0.225543 0.0905033 0.212042 0.0909956 0.20154 0.0989888C0.197509 0.102013 0.196009 0.107521 0.192 0.110521C0.137501 0.153511 0.0920035 0.206018 0.0589995 0.268533C0.0519908 0.282035 0.0504906 0.296544 0.0450055 0.310538C0.0289958 0.348535 0.0115092 0.385548 0.00550849 0.427553C0.00300037 0.442555 0.00750092 0.456548 0.00700868 0.471058C0.00651643 0.481067 0 0.490068 0 0.500054V10.5013C0 10.7398 0.168513 10.9449 0.40205 10.9914L5.40266 11.9915C5.43517 11.9985 5.46817 12.0015 5.50066 12.0015C5.61517 12.0015 5.72768 11.962 5.81769 11.888C5.93321 11.793 6.00072 11.6514 6.00072 11.5014V11.0014H8.50103C8.77756 11.0014 9.00109 10.7774 9.00109 10.5013V7.50092C9.00109 7.22489 8.77756 7.00087 8.50103 7.00087Z" fill="white"/>
</svg>
