<svg width="280" height="78" viewBox="0 0 280 78" fill="none" xmlns="http://www.w3.org/2000/svg">
<g filter="url(#filter0_dddi)">
<path fill-rule="evenodd" clip-rule="evenodd" d="M11.1866 61.7392C10.6659 61.7345 10.3504 61.1623 10.6245 60.7195L41.2328 11.2632C41.4835 10.8582 42.0653 10.8381 42.3433 11.2247L47.1759 17.944C47.3353 18.1655 47.3439 18.4617 47.1976 18.6921L37.8585 33.4095C37.7171 33.6323 37.7201 33.9175 37.8662 34.1373L40.6128 38.2697C40.8816 38.6741 41.4783 38.6658 41.7357 38.254L50.174 24.7569C50.4364 24.3372 51.0483 24.3386 51.3087 24.7596L58.4517 36.307C58.5869 36.5255 58.5847 36.8022 58.4463 37.0186L54.1085 43.7984C53.8496 44.2032 53.2609 44.2104 52.992 43.8123L50.6658 40.3674C50.3923 39.9624 49.7908 39.9785 49.5393 40.3974L42.3669 52.3436C42.0995 52.7889 42.4203 53.3556 42.9397 53.3556H46.9033H53.7093H57.5989C58.117 53.3556 58.4379 52.7916 58.1732 52.3462L56.767 49.98C56.6397 49.7656 56.6422 49.4982 56.7737 49.2863L61.0458 42.4028C61.3074 41.9814 61.9207 41.9818 62.1817 42.4036L73.5064 60.7089C73.7818 61.154 73.4616 61.7285 72.9382 61.7285H28.2654C27.7406 61.7285 27.4207 61.1512 27.6989 60.7062L35.7618 47.8094C35.9004 47.5878 35.897 47.3058 35.7532 47.0876L32.9824 42.8828C32.7132 42.4742 32.1105 42.4841 31.8549 42.9013L20.4595 61.4981C20.3369 61.6981 20.1184 61.8192 19.8838 61.8171L11.1866 61.7392Z" fill="url(#paint0_linear)"/>
</g>
<g filter="url(#filter1_d)">
<path d="M94.3802 45.7776H109.781V38.8147C109.781 37.3252 109.694 36.2262 109.521 35.5176C109.362 34.809 109.058 34.2234 108.61 33.7606C108.205 33.3413 107.742 33.0376 107.221 32.8496C106.715 32.6616 106.043 32.5459 105.204 32.5025V32.0036H119.065V32.5025C118.241 32.5459 117.568 32.6616 117.048 32.8496C116.541 33.0376 116.086 33.3413 115.681 33.7606C115.233 34.2234 114.922 34.8163 114.748 35.5393C114.589 36.2479 114.51 37.3397 114.51 38.8147V54.8012C114.51 56.2762 114.589 57.368 114.748 58.0766C114.922 58.7852 115.233 59.3781 115.681 59.8553C116.086 60.2602 116.541 60.5639 117.048 60.7663C117.568 60.9543 118.241 61.07 119.065 61.1134V61.6123H105.204V61.1134C106.043 61.07 106.715 60.9543 107.221 60.7663C107.742 60.5639 108.205 60.2602 108.61 59.8553C109.058 59.3926 109.362 58.8069 109.521 58.0983C109.694 57.3897 109.781 56.2907 109.781 54.8012V46.7971H94.3802V54.8012C94.3802 56.2762 94.4597 57.3753 94.6188 58.0983C94.7923 58.8069 95.1032 59.3926 95.5515 59.8553C95.942 60.2602 96.3902 60.5639 96.8964 60.7663C97.417 60.9543 98.0966 61.07 98.9354 61.1134V61.6123H85.0746V61.1134C85.9133 61.07 86.5858 60.9543 87.0919 60.7663C87.6125 60.5639 88.068 60.2602 88.4584 59.8553C88.9212 59.3926 89.2321 58.8069 89.3912 58.0983C89.5502 57.3897 89.6298 56.2907 89.6298 54.8012V38.8147C89.6298 37.3252 89.5502 36.2262 89.3912 35.5176C89.2321 34.809 88.9212 34.2234 88.4584 33.7606C88.068 33.3413 87.6125 33.0376 87.0919 32.8496C86.5713 32.6616 85.8989 32.5459 85.0746 32.5025V32.0036H98.9354V32.5025C98.1111 32.5459 97.4387 32.6616 96.9181 32.8496C96.4119 33.0376 95.9564 33.3413 95.5515 33.7606C95.1032 34.2234 94.7923 34.8163 94.6188 35.5393C94.4597 36.2479 94.3802 37.3397 94.3802 38.8147V45.7776ZM140.17 59.5082L140.538 59.7252C140.018 61.2436 138.825 62.0027 136.959 62.0027C135.933 62.0027 135.079 61.7497 134.4 61.2436C133.952 60.911 133.489 60.3325 133.012 59.5082C132.043 60.3759 131.312 60.9471 130.821 61.2219C129.881 61.7425 128.789 62.0027 127.545 62.0027C125.955 62.0027 124.689 61.6195 123.749 60.8531C122.824 60.0867 122.361 59.0527 122.361 57.7512C122.361 56.551 122.744 55.546 123.511 54.7362C123.945 54.2879 124.444 53.9336 125.007 53.6733C125.571 53.3985 126.388 53.1238 127.459 52.849C128.717 52.5309 129.642 52.2633 130.235 52.0464C130.842 51.8295 131.349 51.5692 131.753 51.2655C132.216 50.9329 132.534 50.5425 132.708 50.0942C132.881 49.6459 132.968 49.0241 132.968 48.2287C132.968 46.5368 132.65 45.3004 132.014 44.5195C131.725 44.158 131.349 43.8688 130.886 43.6519C130.438 43.435 129.968 43.3265 129.476 43.3265C128.883 43.3265 128.355 43.4783 127.892 43.782C127.43 44.0857 127.083 44.5051 126.851 45.0401L126.309 46.2982C126.02 46.9779 125.499 47.3177 124.747 47.3177C124.256 47.3177 123.843 47.1586 123.511 46.8405C123.178 46.5079 123.012 46.0958 123.012 45.6041C123.012 44.8666 123.532 44.2448 124.574 43.7386C125.138 43.4783 125.832 43.2687 126.656 43.1096C127.495 42.9361 128.312 42.8493 129.107 42.8493C130.004 42.8493 130.936 42.965 131.905 43.1964C132.874 43.4277 133.684 43.7242 134.335 44.0857C135.275 44.6208 135.86 45.3149 136.092 46.1681C136.207 46.6019 136.265 47.3322 136.265 48.3589V56.3847C136.265 57.744 136.323 58.6695 136.439 59.1612C136.685 60.1879 137.278 60.7013 138.218 60.7013C138.666 60.7013 139.013 60.6217 139.259 60.4627C139.519 60.3036 139.823 59.9855 140.17 59.5082ZM133.012 50.9619C132.231 51.6126 131.37 52.1838 130.43 52.6755C129.375 53.2394 128.644 53.666 128.239 53.9553C127.835 54.2445 127.466 54.5915 127.133 54.9964C126.454 55.8352 126.114 56.8113 126.114 57.9248C126.114 58.8792 126.374 59.6673 126.895 60.2891C127.43 60.911 128.102 61.2219 128.912 61.2219C129.621 61.2219 130.286 61.0049 130.908 60.5711C131.544 60.1228 132.021 59.5299 132.339 58.7924C132.787 57.8236 133.012 56.4208 133.012 54.5843V50.9619ZM142.967 61.6123V55.4737H143.314C143.719 56.9776 144.225 58.1778 144.832 59.0744C145.946 60.7085 147.247 61.5255 148.737 61.5255C149.648 61.5255 150.436 61.2508 151.101 60.7013C151.824 60.0939 152.186 59.2335 152.186 58.12C152.186 57.209 151.926 56.4136 151.405 55.734C151.116 55.3724 150.747 55.0398 150.299 54.7362C149.865 54.4325 149.127 54.0059 148.086 53.4564C146.264 52.4875 145.049 51.6777 144.442 51.0269C143.574 50.1014 143.141 49.0313 143.141 47.8166C143.141 46.5151 143.574 45.3944 144.442 44.4545C145.44 43.3844 146.763 42.8493 148.412 42.8493C149.149 42.8493 149.836 42.9794 150.472 43.2397L151.21 43.5651C151.441 43.6519 151.644 43.6953 151.817 43.6953C152.092 43.6953 152.352 43.4783 152.598 43.0445H153.032L153.27 47.9685H152.815C152.656 47.2743 152.482 46.7176 152.294 46.2982C152.121 45.8789 151.868 45.4739 151.535 45.0835C151.087 44.534 150.566 44.1074 149.973 43.8037C149.38 43.4856 148.795 43.3265 148.216 43.3265C147.407 43.3265 146.712 43.623 146.134 44.2159C145.57 44.7943 145.288 45.5101 145.288 46.3633C145.288 47.0719 145.541 47.7154 146.047 48.2938C146.568 48.8578 147.363 49.3784 148.433 49.8556L150.733 50.8968C152.106 51.5186 153.133 52.2923 153.813 53.2178C154.492 54.1433 154.832 55.2351 154.832 56.4931C154.832 58.0115 154.341 59.2696 153.357 60.2674C152.229 61.4243 150.783 62.0027 149.019 62.0027C148.065 62.0027 147.096 61.8148 146.112 61.4388C145.476 61.1929 145.093 61.0556 144.963 61.0266C144.832 60.9833 144.666 60.9616 144.464 60.9616C143.958 60.9616 143.574 61.1785 143.314 61.6123H142.967ZM164.527 31.136V45.9945C165.033 45.3727 165.482 44.8883 165.872 44.5412C166.263 44.1942 166.733 43.8905 167.282 43.6302C168.338 43.1096 169.538 42.8493 170.883 42.8493C172.589 42.8493 173.999 43.1891 175.113 43.8688C175.908 44.3749 176.45 44.9967 176.74 45.7342C177.043 46.4573 177.195 47.5491 177.195 49.0096V55.3435L177.217 56.992C177.217 57.9754 177.275 58.6984 177.39 59.1612C177.506 59.6095 177.73 59.9855 178.063 60.2891C178.468 60.6796 179.212 60.976 180.297 61.1785V61.6123H170.731V61.1785C171.498 61.0773 172.04 60.9543 172.358 60.8097C172.691 60.6651 172.987 60.4193 173.247 60.0722C173.508 59.7107 173.688 59.219 173.79 58.5972C173.891 57.9754 173.941 57.0571 173.941 55.8424V48.9663C173.941 47.9251 173.862 47.1008 173.703 46.4934C173.544 45.8861 173.276 45.3583 172.9 44.91C172.163 44.0568 171.122 43.6302 169.777 43.6302C166.277 43.6302 164.527 46.3922 164.527 51.9163V55.3869L164.549 56.992C164.549 57.9754 164.607 58.6984 164.723 59.1612C164.838 59.6095 165.062 59.9855 165.395 60.2891C165.8 60.6796 166.545 60.976 167.629 61.1785V61.6123H158.063V61.1785C158.931 61.0628 159.553 60.9037 159.929 60.7013C160.305 60.4844 160.608 60.1228 160.84 59.6167C160.999 59.2841 161.107 58.7852 161.165 58.12C161.238 57.4403 161.274 56.4642 161.274 55.1917V38.164C161.274 36.689 161.238 35.6478 161.165 35.0404C161.093 34.4331 160.934 33.9414 160.688 33.5654C160.442 33.1605 160.146 32.8713 159.799 32.6978C159.452 32.5242 158.953 32.4158 158.302 32.3724V31.9169L164.527 31.136ZM198.473 57.5126L198.907 57.6645C198.401 59.1973 197.627 60.3036 196.586 60.9833C195.545 61.6629 194.113 62.0027 192.291 62.0027C189.37 62.0027 187.078 61.1351 185.415 59.3998C183.796 57.6934 182.986 55.5387 182.986 52.9358C182.986 51.6632 183.21 50.4051 183.658 49.1615C184.107 47.9178 184.721 46.855 185.502 45.9729C186.384 44.9606 187.461 44.1869 188.734 43.6519C190.021 43.1168 191.424 42.8493 192.942 42.8493C195.039 42.8493 196.68 43.3193 197.866 44.2592C198.589 44.8377 198.951 45.4739 198.951 46.1681C198.951 46.6308 198.799 47.0213 198.495 47.3394C198.191 47.6431 197.823 47.7949 197.389 47.7949C196.449 47.7949 195.755 47.108 195.307 45.7342C195.104 45.098 194.938 44.6641 194.808 44.4328C194.692 44.2014 194.518 43.9989 194.287 43.8254C193.839 43.4928 193.289 43.3265 192.638 43.3265C191.785 43.3265 190.997 43.5651 190.274 44.0423C189.638 44.4617 189.096 44.9895 188.647 45.6258C188.213 46.2476 187.83 47.0357 187.498 47.9901C186.991 49.4507 186.738 50.8823 186.738 52.285C186.738 53.572 186.97 54.8301 187.433 56.0593C187.895 57.2885 188.524 58.3152 189.32 59.1395C190.563 60.441 192.024 61.0917 193.701 61.0917C195.09 61.0917 196.239 60.6507 197.15 59.7685C197.613 59.3058 198.054 58.5538 198.473 57.5126ZM201.856 31.9169L208.082 31.136V55.3435L208.104 56.992C208.104 57.9754 208.161 58.6984 208.277 59.1612C208.393 59.6095 208.617 59.9855 208.949 60.2891C209.354 60.6796 210.099 60.976 211.184 61.1785V61.6123H201.618V61.1785C202.485 61.0628 203.107 60.9037 203.483 60.7013C203.859 60.4844 204.163 60.1228 204.394 59.6167C204.553 59.2841 204.662 58.7852 204.72 58.12C204.792 57.4403 204.828 56.4642 204.828 55.1917V38.164C204.828 36.689 204.792 35.6478 204.72 35.0404C204.647 34.4331 204.488 33.9414 204.242 33.5654C203.997 33.1605 203.7 32.8713 203.353 32.6978C203.006 32.5242 202.507 32.4158 201.856 32.3724V31.9169ZM231.811 59.5082L232.18 59.7252C231.659 61.2436 230.466 62.0027 228.601 62.0027C227.574 62.0027 226.721 61.7497 226.041 61.2436C225.593 60.911 225.13 60.3325 224.653 59.5082C223.684 60.3759 222.954 60.9471 222.462 61.2219C221.522 61.7425 220.431 62.0027 219.187 62.0027C217.596 62.0027 216.331 61.6195 215.391 60.8531C214.465 60.0867 214.003 59.0527 214.003 57.7512C214.003 56.551 214.386 55.546 215.152 54.7362C215.586 54.2879 216.085 53.9336 216.649 53.6733C217.213 53.3985 218.03 53.1238 219.1 52.849C220.358 52.5309 221.284 52.2633 221.877 52.0464C222.484 51.8295 222.99 51.5692 223.395 51.2655C223.858 50.9329 224.176 50.5425 224.349 50.0942C224.523 49.6459 224.61 49.0241 224.61 48.2287C224.61 46.5368 224.292 45.3004 223.655 44.5195C223.366 44.158 222.99 43.8688 222.527 43.6519C222.079 43.435 221.609 43.3265 221.117 43.3265C220.525 43.3265 219.997 43.4783 219.534 43.782C219.071 44.0857 218.724 44.5051 218.493 45.0401L217.951 46.2982C217.661 46.9779 217.141 47.3177 216.389 47.3177C215.897 47.3177 215.485 47.1586 215.152 46.8405C214.82 46.5079 214.653 46.0958 214.653 45.6041C214.653 44.8666 215.174 44.2448 216.215 43.7386C216.779 43.4783 217.473 43.2687 218.298 43.1096C219.136 42.9361 219.953 42.8493 220.749 42.8493C221.645 42.8493 222.578 42.965 223.547 43.1964C224.516 43.4277 225.326 43.7242 225.976 44.0857C226.916 44.6208 227.502 45.3149 227.733 46.1681C227.849 46.6019 227.907 47.3322 227.907 48.3589V56.3847C227.907 57.744 227.965 58.6695 228.08 59.1612C228.326 60.1879 228.919 60.7013 229.859 60.7013C230.307 60.7013 230.654 60.6217 230.9 60.4627C231.161 60.3036 231.464 59.9855 231.811 59.5082ZM224.653 50.9619C223.872 51.6126 223.012 52.1838 222.072 52.6755C221.016 53.2394 220.286 53.666 219.881 53.9553C219.476 54.2445 219.107 54.5915 218.775 54.9964C218.095 55.8352 217.755 56.8113 217.755 57.9248C217.755 58.8792 218.016 59.6673 218.536 60.2891C219.071 60.911 219.744 61.2219 220.553 61.2219C221.262 61.2219 221.927 61.0049 222.549 60.5711C223.185 60.1228 223.663 59.5299 223.981 58.7924C224.429 57.8236 224.653 56.4208 224.653 54.5843V50.9619ZM234.609 61.6123V55.4737H234.956C235.361 56.9776 235.867 58.1778 236.474 59.0744C237.588 60.7085 238.889 61.5255 240.378 61.5255C241.29 61.5255 242.078 61.2508 242.743 60.7013C243.466 60.0939 243.827 59.2335 243.827 58.12C243.827 57.209 243.567 56.4136 243.047 55.734C242.757 55.3724 242.389 55.0398 241.94 54.7362C241.506 54.4325 240.769 54.0059 239.728 53.4564C237.906 52.4875 236.691 51.6777 236.084 51.0269C235.216 50.1014 234.782 49.0313 234.782 47.8166C234.782 46.5151 235.216 45.3944 236.084 44.4545C237.081 43.3844 238.405 42.8493 240.053 42.8493C240.791 42.8493 241.478 42.9794 242.114 43.2397L242.851 43.5651C243.083 43.6519 243.285 43.6953 243.459 43.6953C243.733 43.6953 243.994 43.4783 244.24 43.0445H244.673L244.912 47.9685H244.456C244.297 47.2743 244.124 46.7176 243.936 46.2982C243.762 45.8789 243.509 45.4739 243.177 45.0835C242.728 44.534 242.208 44.1074 241.615 43.8037C241.022 43.4856 240.436 43.3265 239.858 43.3265C239.048 43.3265 238.354 43.623 237.776 44.2159C237.212 44.7943 236.93 45.5101 236.93 46.3633C236.93 47.0719 237.183 47.7154 237.689 48.2938C238.209 48.8578 239.005 49.3784 240.075 49.8556L242.374 50.8968C243.748 51.5186 244.775 52.2923 245.454 53.2178C246.134 54.1433 246.474 55.2351 246.474 56.4931C246.474 58.0115 245.982 59.2696 244.999 60.2674C243.871 61.4243 242.425 62.0027 240.66 62.0027C239.706 62.0027 238.737 61.8148 237.754 61.4388C237.118 61.1929 236.734 61.0556 236.604 61.0266C236.474 60.9833 236.308 60.9616 236.105 60.9616C235.599 60.9616 235.216 61.1785 234.956 61.6123H234.609ZM256.169 31.136V45.9945C256.675 45.3727 257.123 44.8883 257.514 44.5412C257.904 44.1942 258.374 43.8905 258.924 43.6302C259.979 43.1096 261.18 42.8493 262.524 42.8493C264.231 42.8493 265.641 43.1891 266.754 43.8688C267.55 44.3749 268.092 44.9967 268.381 45.7342C268.685 46.4573 268.837 47.5491 268.837 49.0096V55.3435L268.858 56.992C268.858 57.9754 268.916 58.6984 269.032 59.1612C269.148 59.6095 269.372 59.9855 269.704 60.2891C270.109 60.6796 270.854 60.976 271.939 61.1785V61.6123H262.373V61.1785C263.139 61.0773 263.681 60.9543 263.999 60.8097C264.332 60.6651 264.629 60.4193 264.889 60.0722C265.149 59.7107 265.33 59.219 265.431 58.5972C265.532 57.9754 265.583 57.0571 265.583 55.8424V48.9663C265.583 47.9251 265.503 47.1008 265.344 46.4934C265.185 45.8861 264.918 45.3583 264.542 44.91C263.804 44.0568 262.763 43.6302 261.418 43.6302C257.919 43.6302 256.169 46.3922 256.169 51.9163V55.3869L256.191 56.992C256.191 57.9754 256.248 58.6984 256.364 59.1612C256.48 59.6095 256.704 59.9855 257.037 60.2891C257.441 60.6796 258.186 60.976 259.271 61.1785V61.6123H249.705V61.1785C250.573 61.0628 251.194 60.9037 251.57 60.7013C251.946 60.4844 252.25 60.1228 252.481 59.6167C252.64 59.2841 252.749 58.7852 252.807 58.12C252.879 57.4403 252.915 56.4642 252.915 55.1917V38.164C252.915 36.689 252.879 35.6478 252.807 35.0404C252.734 34.4331 252.575 33.9414 252.33 33.5654C252.084 33.1605 251.787 32.8713 251.44 32.6978C251.093 32.5242 250.594 32.4158 249.944 32.3724V31.9169L256.169 31.136Z" fill="white"/>
</g>
<defs>
<filter id="filter0_dddi" x="0.460534" y="0.883874" width="88.3685" height="76.155" filterUnits="userSpaceOnUse" color-interpolation-filters="sRGB">
<feFlood flood-opacity="0" result="BackgroundImageFix"/>
<feColorMatrix in="SourceAlpha" type="matrix" values="0 0 0 0 0 0 0 0 0 0 0 0 0 0 0 0 0 0 127 0"/>
<feOffset dx="-2.07021" dy="-2.07021"/>
<feGaussianBlur stdDeviation="3.22421"/>
<feColorMatrix type="matrix" values="0 0 0 0 0 0 0 0 0 1 0 0 0 0 0.879699 0 0 0 1 0"/>
<feBlend mode="normal" in2="BackgroundImageFix" result="effect1_dropShadow"/>
<feColorMatrix in="SourceAlpha" type="matrix" values="0 0 0 0 0 0 0 0 0 0 0 0 0 0 0 0 0 0 127 0"/>
<feMorphology radius="1.03511" operator="dilate" in="SourceAlpha" result="effect2_dropShadow"/>
<feOffset dx="2.57937" dy="2.57937"/>
<feGaussianBlur stdDeviation="5.80358"/>
<feColorMatrix type="matrix" values="0 0 0 0 0.853255 0 0 0 0 0 0 0 0 0 0.992157 0 0 0 0.66 0"/>
<feBlend mode="normal" in2="effect1_dropShadow" result="effect2_dropShadow"/>
<feColorMatrix in="SourceAlpha" type="matrix" values="0 0 0 0 0 0 0 0 0 0 0 0 0 0 0 0 0 0 127 0"/>
<feOffset/>
<feGaussianBlur stdDeviation="1.28969"/>
<feColorMatrix type="matrix" values="0 0 0 0 1 0 0 0 0 1 0 0 0 0 1 0 0 0 1 0"/>
<feBlend mode="normal" in2="effect2_dropShadow" result="effect3_dropShadow"/>
<feBlend mode="normal" in="SourceGraphic" in2="effect3_dropShadow" result="shape"/>
<feColorMatrix in="SourceAlpha" type="matrix" values="0 0 0 0 0 0 0 0 0 0 0 0 0 0 0 0 0 0 127 0" result="hardAlpha"/>
<feOffset dx="0.668122" dy="1.33624"/>
<feGaussianBlur stdDeviation="0.835153"/>
<feComposite in2="hardAlpha" operator="arithmetic" k2="-1" k3="1"/>
<feColorMatrix type="matrix" values="0 0 0 0 0 0 0 0 0 0.94 0 0 0 0 1 0 0 0 1 0"/>
<feBlend mode="normal" in2="shape" result="effect4_innerShadow"/>
</filter>
<filter id="filter1_d" x="79.9155" y="24.6873" width="199.761" height="43.7636" filterUnits="userSpaceOnUse" color-interpolation-filters="sRGB">
<feFlood flood-opacity="0" result="BackgroundImageFix"/>
<feColorMatrix in="SourceAlpha" type="matrix" values="0 0 0 0 0 0 0 0 0 0 0 0 0 0 0 0 0 0 127 0"/>
<feOffset dx="1.28969"/>
<feGaussianBlur stdDeviation="3.22421"/>
<feColorMatrix type="matrix" values="0 0 0 0 0.0156863 0 0 0 0 0.917647 0 0 0 0 0.972549 0 0 0 1 0"/>
<feBlend mode="normal" in2="BackgroundImageFix" result="effect1_dropShadow"/>
<feBlend mode="normal" in="SourceGraphic" in2="effect1_dropShadow" result="shape"/>
</filter>
<linearGradient id="paint0_linear" x1="23.0224" y1="13.3003" x2="45.1331" y2="65.9743" gradientUnits="userSpaceOnUse">
<stop stop-color="#00FCCE"/>
<stop offset="0.453125" stop-color="#4972C2"/>
<stop offset="0.767465" stop-color="#5A2293"/>
<stop offset="1" stop-color="#441A8C"/>
</linearGradient>
</defs>
</svg>
