<svg width="51" height="65" viewBox="0 0 51 65" fill="none" xmlns="http://www.w3.org/2000/svg">
<circle cx="25.5" cy="38.8295" r="25.5" fill="url(#paint0_radial)"/>
<mask id="mask0" mask-type="alpha" maskUnits="userSpaceOnUse" x="0" y="0" width="51" height="65">
<path d="M25.5 64.3295C11.4167 64.3295 0 52.9128 0 38.8295V0H51V38.8295C51 52.9128 39.5833 64.3295 25.5 64.3295Z" fill="url(#paint1_linear)"/>
</mask>
<g mask="url(#mask0)">
<path d="M-3.8147e-05 52.7386C-3.8147e-05 56.6684 0.91909 58.6501 2.60792 62.0114C3.76701 64.3183 8.34721 75.0511 26.6591 75.9205C45.2045 75.0511 48.392 61.7216 48.392 61.7216C48.392 61.7216 51.0002 54.767 51.0002 51.8693C49.4607 50.5761 44.8186 48.443 43.1405 47.6887C41.1699 46.7957 38.3988 45.7796 35.3351 45.3024C32.2715 44.8251 28.9153 44.625 25.7439 44.625C19.4164 44.625 12.5039 45.795 8.34721 47.6887C6.49977 48.5354 1.46251 51.4762 -3.8147e-05 52.7386Z" fill="url(#paint2_linear)"/>
<path d="M17.8618 31.5904C17.8618 29.6506 17.0151 27.2951 15.9682 27.2951C14.9213 27.2951 13.8436 27.6646 13.8436 29.6044C13.8436 30.5435 14.1823 32.6218 14.4903 33.5456C14.8289 34.5309 15.414 35.1005 15.9528 35.1005C17.0151 35.1005 17.8618 33.5302 17.8618 31.5904Z" fill="#E9B999"/>
<path d="M25.7424 15.3792C33.5017 15.3792 35.6262 22.0761 35.6262 30.328C35.6262 35.8087 33.9173 39.7037 30.7151 41.9514C28.4674 43.5372 27.5437 43.9836 25.7424 43.9836C23.9412 43.9836 23.0175 43.5372 20.7698 41.9514C17.583 39.7037 15.8587 35.8087 15.8587 30.328C15.8587 22.0761 17.9832 15.3792 25.7424 15.3792Z" fill="#FDDDC8"/>
<path d="M19.2931 45.4617V39.2266H32.1944V45.4617C34.1496 45.8003 35.5198 46.4623 35.5198 47.8633C35.5198 50.6037 31.8095 53.4518 25.7438 53.4518C19.4625 53.4518 15.9678 50.6037 15.9678 47.8633C15.9678 46.4623 17.3226 45.8003 19.2931 45.4617Z" fill="#FDDDC8"/>
<path d="M33.6112 31.5904C33.6112 29.6506 34.458 27.2951 35.5048 27.2951C36.5517 27.2951 37.6294 27.6646 37.6294 29.6044C37.6294 30.5435 37.2907 32.6218 36.9828 33.5456C36.6441 34.5309 36.0591 35.1005 35.5202 35.1005C34.458 35.1005 33.6112 33.5302 33.6112 31.5904Z" fill="#FDDDC8"/>
<path d="M18.5546 45.2923C19.3859 46.9088 20.5252 48.1558 22.465 48.7101C23.558 49.018 24.7435 48.7563 25.8673 48.8332C27.0066 48.9256 28.4075 48.941 29.4698 48.4176C30.4243 47.9403 31.1787 47.3399 31.8407 46.5085C32.2102 46.0621 32.4719 45.6156 32.7028 45.1692C32.7182 45.1692 32.7336 45.1692 32.7644 45.1692C32.7028 45.3077 32.6258 45.4463 32.5489 45.5848C31.9946 46.6317 31.7021 47.4785 30.9939 48.4022C30.3627 49.2489 29.6546 49.8339 28.7462 50.3112C27.7301 50.85 26.6063 50.9578 25.3901 50.9732C24.3278 51.004 23.1577 50.9116 22.1263 50.6037C20.0171 49.9725 18.7085 47.5862 17.831 45.3847C18.0773 45.3539 18.3236 45.3231 18.5546 45.2923Z" fill="#E9B999"/>
<path d="M25.745 15.3792C25.8835 15.3792 26.0067 15.3792 26.1453 15.3946C19.279 15.6255 17.3853 22.2147 17.3853 30.328C17.3853 35.8087 18.9711 39.7037 21.9116 41.9514C23.836 43.414 24.6981 43.9066 26.1453 43.9836C26.0221 43.9836 25.8835 43.999 25.745 43.999C23.9437 43.999 23.02 43.5525 20.7723 41.9668C17.5855 39.7191 15.8612 35.8241 15.8612 30.3434C15.8612 22.0761 17.9858 15.3792 25.745 15.3792Z" fill="#E9B999"/>
<path d="M14.9224 15.795C15.8615 14.6712 17.8937 14.3479 18.6019 13.9938C19.0945 13.7474 19.4332 13.4395 19.7719 13.0393C20.4339 12.2387 21.0959 12.0232 22.5123 11.7307C23.9594 11.4228 25.4374 9.86783 28.9013 9.86783C31.9804 9.86783 32.2575 12.3157 33.7816 12.8083C39.2315 14.5942 37.7998 16.5956 37.8768 19.8286C37.9229 21.7068 37.0146 23.4619 36.6913 25.2939C36.445 26.6487 36.7837 27.7571 36.2141 29.3737C35.7214 30.7438 35.2134 35.6549 35.198 36.3631C35.121 38.8571 35.3057 41.7515 34.0587 43.9376C33.4583 44.9999 32.6885 45.862 31.9342 46.8011C31.2414 47.6632 30.487 48.2637 29.5171 48.7563C28.4241 49.3105 27.0077 49.2798 25.8376 49.1874C24.6984 49.095 23.4822 49.3721 22.3737 49.0642C19.7257 48.3252 18.1554 46.3239 17.2317 43.8298C16.6621 42.3211 16.231 41.0125 16.1694 38.0874C16.0616 32.7606 14.9532 29.3737 15.0763 26.4485C15.2303 23.1386 12.4591 18.7509 14.9224 15.795ZM18.4633 36.4709C19.2793 37.1483 20.1414 37.0251 21.0343 37.6101C22.1428 38.3337 23.436 39.3498 24.76 39.473C25.853 39.5807 26.9307 39.4576 27.9314 38.9341C28.9475 38.3953 29.7788 37.7333 30.718 37.0867C31.5185 36.5479 32.473 36.6248 33.2582 36.1322C34.2435 35.5472 34.7515 34.254 34.8593 33.1763C34.8901 32.853 34.9363 30.6823 34.9209 30.4667C34.8131 28.7732 34.7053 26.9874 34.6284 25.2785C34.5514 23.6928 34.4436 21.3835 33.1196 20.3058C31.9034 19.3205 30.1637 20.0133 28.7935 20.2289C26.7152 20.5522 25.1449 20.1211 23.1589 19.6592C21.6655 19.3205 19.8643 19.3205 18.5865 20.3828C17.0315 21.6606 17.3087 23.7852 17.2009 25.5864C17.0931 27.2953 16.7544 28.3268 16.6313 30.4051C16.5389 31.9909 16.4927 33.0531 16.739 33.8383C17.0469 34.8698 17.6012 35.7627 18.4633 36.4709Z" fill="#1D2247"/>
<path d="M17.8759 37.3178C18.2146 37.0099 19.554 36.9483 20.4469 36.4095C21.1705 35.9784 21.6016 35.3934 22.3251 35.0085C23.6953 34.2696 24.4189 34.8084 25.7429 34.8084C27.0823 34.8084 27.7905 34.2696 29.1606 35.0085C29.8842 35.3934 30.3153 35.9784 31.0389 36.4095C31.9318 36.9483 33.2712 37.0099 33.6099 37.3178C34.7799 38.4109 31.1774 37.9952 30.6694 37.9182C28.9451 37.6411 27.4364 37.0099 25.7429 37.0099C24.0494 37.0099 22.5407 37.6565 20.8164 37.9182C20.3084 37.9952 16.6905 38.4109 17.8759 37.3178Z" fill="#3843A1"/>
<path d="M19.7858 13.0237C20.4478 12.2231 21.1098 12.0076 22.5262 11.7151C23.9733 11.4072 25.4513 9.85226 28.9152 9.85226C31.9943 9.85226 32.2714 12.3001 33.7955 12.7928C39.2455 14.5786 37.8137 16.58 37.8907 19.813C37.9369 21.6912 37.0285 23.4463 36.7052 25.2783C36.4589 26.6331 36.7976 27.7416 36.228 29.3581C35.7353 30.7283 35.2273 35.6394 35.2119 36.3475C35.1349 38.8416 35.3197 41.7359 34.0726 43.922C33.4722 44.9843 32.7025 45.8464 31.9481 46.7855C31.9327 46.8163 31.9173 46.8317 31.8865 46.8471C31.2399 47.5707 31.009 46.5238 31.9173 44.2299C32.5331 42.7058 33.0719 41.7051 33.5492 40.9199C36.0586 36.8556 34.6577 32.1446 35.6122 28.5267C36.8438 23.8312 34.4883 21.2448 34.9194 17.9964C35.6122 12.608 27.8837 15.7794 26.8523 13.1007C26.1287 11.2071 20.2015 15.1636 19.5395 13.347C19.5241 13.3162 19.5241 13.3008 19.5087 13.2854C19.6165 13.2238 19.6935 13.1315 19.7858 13.0237Z" fill="#3843A1"/>
<path d="M16.6303 30.4204C16.6303 30.4512 16.6303 30.482 16.6303 30.5128C16.6303 30.4974 16.6303 30.482 16.6303 30.4512C16.8613 28.9117 17.2154 28.2805 17.3693 26.4639C17.4925 24.9551 17.708 23.1231 18.9088 22.107C20.0943 21.1063 21.1873 21.1679 22.6807 21.445C24.6667 21.8299 25.729 21.9068 27.2685 21.5835C28.6233 21.3064 30.6862 20.5982 32.1026 21.0909C33.6113 21.6297 34.2271 24.2469 34.3657 26.3715C34.4581 27.8032 34.8122 29.081 34.9045 30.4974V30.482C34.7968 28.7885 34.689 27.0027 34.612 25.2938C34.5351 23.7081 34.4273 21.3988 33.1033 20.3211C31.8871 19.3358 30.1474 20.0286 28.7772 20.2442C26.6989 20.5675 25.1285 20.121 23.1425 19.6745C21.6492 19.3358 19.848 19.3358 18.5702 20.3981C17.0152 21.6759 17.2923 23.8005 17.1846 25.6017C17.0922 27.2952 16.7381 28.3421 16.6303 30.4204Z" fill="#E9B999"/>
<path d="M23.2954 37.3635C24.096 37.1634 24.8965 37.0094 25.7433 37.0094C27.1289 37.0094 28.4067 37.4405 29.7922 37.7484C29.4689 37.9793 29.1456 38.2102 28.8069 38.4104C29.0379 37.81 27.0981 37.5328 25.6663 37.5328C24.0498 37.5328 22.0176 38.0563 22.5565 38.5951C22.1408 38.3334 21.7405 38.0563 21.3556 37.81C22.0176 37.6868 22.6488 37.5174 23.2954 37.3635Z" fill="#E9B999"/>
<path d="M47 52.5762C42.2106 55.9723 36.32 58.0887 29.8827 58.0887C14.1877 58.0887 1.43287 46.1357 1.1648 31.2941C0.407956 33.7082 0 36.2767 0 38.9405C0 53.0409 11.4306 64.4714 25.5309 64.4714C34.5722 64.4714 42.6481 59.8293 47 52.5762Z" fill="url(#paint3_radial)" style="mix-blend-mode:multiply"/>
</g>
<defs>
<radialGradient id="paint0_radial" cx="0" cy="0" r="1" gradientUnits="userSpaceOnUse" gradientTransform="translate(20.2841 34.4829) rotate(79.5116) scale(28.6532 29.2949)">
<stop offset="0.177083" stop-color="#0D3B3F"/>
<stop offset="0.973958" stop-color="#132431"/>
</radialGradient>
<linearGradient id="paint1_linear" x1="2.98051" y1="13.3296" x2="24.2715" y2="63.1821" gradientUnits="userSpaceOnUse">
<stop stop-color="#0A6053"/>
<stop offset="1" stop-color="#132431"/>
</linearGradient>
<linearGradient id="paint2_linear" x1="-4.28292" y1="40.1072" x2="2.29532" y2="81.7991" gradientUnits="userSpaceOnUse">
<stop stop-color="#00FCCE"/>
<stop offset="0.273881" stop-color="#4972C2"/>
<stop offset="0.748874" stop-color="#441A8C"/>
<stop offset="1" stop-color="#5A2293"/>
</linearGradient>
<radialGradient id="paint3_radial" cx="0" cy="0" r="1" gradientUnits="userSpaceOnUse" gradientTransform="translate(37.716 18.9219) rotate(115.761) scale(64.7502 50.8408)">
<stop offset="0.643346" stop-color="#171F70" stop-opacity="0.15"/>
<stop offset="1" stop-color="#000961"/>
</radialGradient>
</defs>
</svg>
