<svg width="88" height="111" viewBox="0 0 88 111" fill="none" xmlns="http://www.w3.org/2000/svg">
<g filter="url(#filter0_i)">
<circle cx="44" cy="67" r="44" fill="url(#paint0_linear)"/>
</g>
<mask id="mask0" mask-type="alpha" maskUnits="userSpaceOnUse" x="0" y="0" width="88" height="111">
<path d="M44 111C19.6995 111 0 91.3005 0 67V0H88V67C88 91.3005 68.3005 111 44 111Z" fill="url(#paint1_linear)"/>
</mask>
<g mask="url(#mask0)">
<path d="M0 91C0 97.7807 1.58595 101.2 4.5 107C6.5 110.981 14.4031 129.5 46 131C78 129.5 83.5 106.5 83.5 106.5C83.5 106.5 88.0005 94.5 88.0005 89.5C85.344 87.2686 77.3342 83.588 74.4386 82.2863C71.0384 80.7456 66.2568 78.9923 60.9705 78.1688C55.6842 77.3453 49.8931 77 44.4209 77C33.5029 77 21.5755 79.0189 14.4031 82.2863C11.2154 83.7474 2.52362 88.8217 0 91Z" fill="url(#paint2_linear)"/>
<path d="M30.8203 54.5089C30.8203 51.1618 29.3593 47.0974 27.5529 47.0974C25.7465 47.0974 23.887 47.735 23.887 51.0821C23.887 52.7025 24.4714 56.2887 25.0027 57.8826C25.5871 59.5827 26.5966 60.5656 27.5263 60.5656C29.3593 60.5656 30.8203 57.856 30.8203 54.5089Z" fill="#E9B999"/>
<path d="M44.4183 26.5366C57.8068 26.5366 61.4727 38.0921 61.4727 52.3307C61.4727 61.7876 58.524 68.5084 52.9986 72.3868C49.1202 75.1229 47.5263 75.8933 44.4183 75.8933C41.3103 75.8933 39.7164 75.1229 35.838 72.3868C30.3392 68.5084 27.364 61.7876 27.364 52.3307C27.364 38.0921 31.0298 26.5366 44.4183 26.5366Z" fill="#FDDDC8"/>
<path d="M33.2902 78.4436V67.6851H55.5512V78.4436C58.9248 79.0281 61.2891 80.1703 61.2891 82.5877C61.2891 87.3162 54.887 92.2306 44.4207 92.2306C33.5824 92.2306 27.5523 87.3162 27.5523 82.5877C27.5523 80.1703 29.8899 79.0281 33.2902 78.4436Z" fill="#FDDDC8"/>
<path d="M57.9959 54.5089C57.9959 51.1618 59.4569 47.0974 61.2633 47.0974C63.0697 47.0974 64.9292 47.735 64.9292 51.0821C64.9292 52.7025 64.3448 56.2887 63.8135 57.8826C63.2291 59.5827 62.2196 60.5656 61.2899 60.5656C59.4569 60.5656 57.9959 57.856 57.9959 54.5089Z" fill="#FDDDC8"/>
<path d="M32.0157 78.1515C33.4502 80.9407 35.416 83.0925 38.7631 84.0488C40.6492 84.5801 42.6946 84.1285 44.6338 84.2613C46.5996 84.4207 49.0169 84.4472 50.8499 83.5441C52.4969 82.7206 53.7985 81.6845 54.9408 80.2501C55.5783 79.4797 56.0299 78.7093 56.4284 77.939C56.455 77.939 56.4815 77.939 56.5347 77.939C56.4284 78.178 56.2956 78.4171 56.1628 78.6562C55.2064 80.4626 54.7017 81.9236 53.4798 83.5175C52.3906 84.9785 51.1687 85.988 49.6014 86.8115C47.8481 87.7412 45.9089 87.9272 43.8103 87.9537C41.9774 88.0069 39.9585 87.8475 38.1787 87.3162C34.5393 86.2271 32.2814 82.1096 30.7672 78.3109C31.1922 78.2577 31.6173 78.2046 32.0157 78.1515Z" fill="#E9B999"/>
<path d="M44.4226 26.5366C44.6617 26.5366 44.8742 26.5366 45.1133 26.5632C33.2656 26.9616 29.9981 38.3312 29.9981 52.3307C29.9981 61.7876 32.7343 68.5084 37.8081 72.3868C41.1286 74.9104 42.6162 75.7605 45.1133 75.8933C44.9008 75.8933 44.6617 75.9198 44.4226 75.9198C41.3146 75.9198 39.7207 75.1495 35.8423 72.4133C30.3435 68.5349 27.3683 61.8141 27.3683 52.3572C27.3683 38.0921 31.0341 26.5366 44.4226 26.5366Z" fill="#E9B999"/>
<path d="M25.7484 27.2542C27.3688 25.315 30.8753 24.7571 32.0973 24.1461C32.9474 23.7211 33.5318 23.1898 34.1162 22.4991C35.2585 21.1178 36.4007 20.7459 38.8447 20.2411C41.3417 19.7099 43.8919 17.0269 49.8689 17.0269C55.1818 17.0269 55.6599 21.2506 58.2898 22.1007C67.6936 25.1821 65.2231 28.6355 65.3559 34.214C65.4356 37.4549 63.8683 40.4832 63.3105 43.6444C62.8854 45.9821 63.4699 47.8947 62.487 50.684C61.6369 53.0482 60.7603 61.5222 60.7337 62.7442C60.6009 67.0476 60.9197 72.0418 58.768 75.8139C57.7319 77.6468 56.4037 79.1345 55.1021 80.7549C53.9067 82.2425 52.605 83.2785 50.9315 84.1286C49.0454 85.0849 46.6015 85.0318 44.5826 84.8724C42.6168 84.713 40.5182 85.1911 38.6056 84.6599C34.0365 83.3848 31.3269 79.9314 29.7331 75.6279C28.7502 73.0246 28.0064 70.7667 27.9001 65.7194C27.7142 56.5281 25.8015 50.684 26.014 45.6367C26.2797 39.9254 21.4981 32.3545 25.7484 27.2542ZM31.8582 62.9302C33.2661 64.099 34.7537 63.8865 36.2945 64.8959C38.2071 66.1445 40.4385 67.8977 42.7231 68.1102C44.6091 68.2962 46.4686 68.0837 48.1953 67.1805C49.9486 66.2507 51.3831 65.1084 53.0035 63.9927C54.3848 63.063 56.0318 63.1958 57.3866 62.3457C59.0867 61.3363 59.9634 59.1049 60.1493 57.2454C60.2024 56.6875 60.2821 52.9419 60.2556 52.57C60.0696 49.648 59.8837 46.5665 59.7508 43.6178C59.618 40.8817 59.4321 36.897 57.1475 35.0375C55.0489 33.3374 52.0472 34.5328 49.6829 34.9047C46.0967 35.4626 43.3872 34.7188 39.9604 33.9218C37.3836 33.3374 34.2756 33.3374 32.0707 35.1704C29.3877 37.3752 29.8659 41.0411 29.6799 44.1491C29.494 47.0978 28.9096 48.8776 28.6971 52.4638C28.5377 55.1999 28.458 57.0329 28.883 58.3876C29.4143 60.1675 30.3706 61.7082 31.8582 62.9302Z" fill="#1D2247"/>
<path d="M30.8447 64.3916C31.4291 63.8603 33.7402 63.754 35.2809 62.8243C36.5295 62.0805 37.2733 61.071 38.5218 60.4069C40.886 59.1318 42.1346 60.0616 44.4191 60.0616C46.7302 60.0616 47.9522 59.1318 50.3164 60.4069C51.5649 61.071 52.3087 62.0805 53.5573 62.8243C55.098 63.754 57.4091 63.8603 57.9935 64.3916C60.0124 66.2776 53.7963 65.5604 52.9197 65.4276C49.9445 64.9494 47.3412 63.8603 44.4191 63.8603C41.497 63.8603 38.8937 64.976 35.9185 65.4276C35.0419 65.5604 28.7992 66.2776 30.8447 64.3916Z" fill="#3843A1"/>
<path d="M34.1401 22.4723C35.2824 21.0909 36.4247 20.719 38.8686 20.2143C41.3656 19.683 43.9158 17 49.8928 17C55.2057 17 55.6839 21.2237 58.3137 22.0738C67.7175 25.1553 65.247 28.6086 65.3799 34.1872C65.4596 37.428 63.8923 40.4564 63.3344 43.6175C62.9094 45.9552 63.4938 47.8678 62.5109 50.6571C61.6608 53.0213 60.7842 61.4954 60.7576 62.7173C60.6248 67.0208 60.9436 72.0149 58.7919 75.787C57.7559 77.62 56.4277 79.1076 55.126 80.728C55.0994 80.7812 55.0729 80.8077 55.0197 80.8343C53.904 82.0828 53.5056 80.2764 55.0729 76.3183C56.1354 73.6885 57.0652 71.9618 57.8887 70.607C62.2187 63.594 59.8013 55.4653 61.4483 49.2226C63.5735 41.1205 59.5091 36.6577 60.2529 31.0526C61.4483 21.755 48.113 27.2273 46.3332 22.6051C45.0847 19.3377 34.8574 26.1647 33.7151 23.0301C33.6885 22.977 33.6885 22.9504 33.662 22.9239C33.8479 22.8176 33.9807 22.6582 34.1401 22.4723Z" fill="#3843A1"/>
<path d="M28.6956 52.4902C28.6956 52.5433 28.6956 52.5965 28.6956 52.6496C28.6956 52.623 28.6956 52.5965 28.6956 52.5433C29.0941 49.8869 29.705 48.7977 29.9707 45.6631C30.1832 43.0598 30.5551 39.8987 32.6271 38.1454C34.6726 36.4187 36.5587 36.525 39.1354 37.0031C42.5622 37.6673 44.3952 37.8001 47.0516 37.2422C49.3893 36.7641 52.9489 35.5421 55.3928 36.3922C57.9961 37.3219 59.0587 41.8379 59.2978 45.5038C59.4572 47.9742 60.0682 50.1791 60.2275 52.623V52.5965C60.0416 49.6744 59.8556 46.5929 59.7228 43.6442C59.59 40.9081 59.404 36.9235 57.1195 35.0639C55.0209 33.3638 52.0191 34.5592 49.6549 34.9311C46.0687 35.489 43.3591 34.7186 39.9323 33.9482C37.3556 33.3638 34.2476 33.3638 32.0427 35.1968C29.3597 37.4016 29.8379 41.0675 29.6519 44.1755C29.4925 47.0976 28.8815 48.904 28.6956 52.4902Z" fill="#E9B999"/>
<path d="M40.1961 64.4704C41.5774 64.125 42.9588 63.8594 44.4198 63.8594C46.8106 63.8594 49.0155 64.6032 51.4062 65.1345C50.8484 65.5329 50.2905 65.9314 49.7061 66.2767C50.1046 65.2407 46.7575 64.7626 44.287 64.7626C41.4977 64.7626 37.9912 65.6658 38.921 66.5955C38.2037 66.1439 37.5131 65.6657 36.849 65.2407C37.9912 65.0282 39.0804 64.736 40.1961 64.4704Z" fill="#E9B999"/>
<path fill-rule="evenodd" clip-rule="evenodd" d="M49.9071 64.7793L48.2428 64.3417C47.6147 64.6142 46.8539 64.9415 45.8739 65.1922C43.4239 65.6284 42.2163 65.287 40.103 64.4747L38.7594 64.7793C39.8897 65.4957 41.8549 66.3711 43.4229 66.3864C46.6919 66.4183 48.944 65.3481 49.9071 64.7793Z" fill="#1D2247"/>
<ellipse rx="1.96049" ry="1.82979" transform="matrix(-1 0 0 1 38.0938 49.4103)" fill="#1D2247"/>
<path d="M56.1632 43.0225C53.4727 42.2886 49.0246 43.8283 48.0651 43.8167C47.124 43.8819 47.1521 45.1719 47.6166 45.5801C48.1215 46.2361 50.0047 46.0067 51.6095 45.3789C56.0009 43.6608 56.6903 46.6928 58.3136 48.686C58.5571 48.8512 58.849 47.9011 58.849 47.9011C59.1749 47.5996 57.6589 43.4304 56.1632 43.0225Z" fill="#0E403E"/>
<path d="M56.1632 43.0225C53.4727 42.2886 49.0246 43.8283 48.0651 43.8167C47.124 43.8819 47.1521 45.1719 47.6166 45.5801C48.1215 46.2361 50.0047 46.0067 51.6095 45.3789C56.0009 43.6608 56.6903 46.6928 58.3136 48.686C58.5571 48.8512 58.849 47.9011 58.849 47.9011C59.1749 47.5996 57.6589 43.4304 56.1632 43.0225Z" fill="#2C3688"/>
<path d="M33.7342 42.7361C36.4493 42.0992 40.8394 43.7974 41.7987 43.8202C42.7369 43.9191 42.6625 45.2073 42.1836 45.5985C41.6556 46.2361 39.7817 45.9393 38.2005 45.2543C33.8736 43.3799 33.0758 46.3853 31.3822 48.319C31.1329 48.4753 30.8752 47.5153 30.8752 47.5153C30.5603 47.2023 32.2249 43.0902 33.7342 42.7361Z" fill="#0E403E"/>
<path d="M33.7342 42.7361C36.4493 42.0992 40.8394 43.7974 41.7987 43.8202C42.7369 43.9191 42.6625 45.2073 42.1836 45.5985C41.6556 46.2361 39.7817 45.9393 38.2005 45.2543C33.8736 43.3799 33.0758 46.3853 31.3822 48.319C31.1329 48.4753 30.8752 47.5153 30.8752 47.5153C30.5603 47.2023 32.2249 43.0902 33.7342 42.7361Z" fill="#2C3688"/>
<path d="M44.3907 59.412C46.8807 59.4262 48.3291 57.776 48.3291 57.776C48.3291 57.776 48.5028 57.513 48.3259 57.3464C47.7421 57.0041 47.1286 57.9003 45.7706 58.4197C44.0647 58.8786 43.437 58.3457 41.586 57.3214C41.3385 57.2553 41.296 57.3928 41.296 57.3928C41.0821 57.6469 43.0066 59.4041 44.3907 59.412Z" fill="#1D2247"/>
<path d="M38.6445 46.9548C36.8671 46.707 36.6028 46.7389 35.4894 47.1328C33.1354 48.2934 32.6211 51.1065 34.0553 50.8693C34.5716 50.6914 34.801 49.5052 35.3747 48.9714C37.5545 46.5989 39.8126 48.1858 40.8221 48.9714C40.9145 49.0892 41.3132 49.303 41.3384 49.0901C41.5751 48.7855 39.9374 47.1351 38.6445 46.9548Z" fill="#1D2247"/>
<path d="M39.8492 51.1065C39.5868 51.9529 35.0276 52.0509 35.3747 50.9879C35.7218 49.925 39.7345 50.8693 39.8492 51.1065Z" fill="#1D2247"/>
<path d="M51.5919 46.9535C53.3091 46.7208 52.7611 46.7294 53.8368 47.0993C56.111 48.1892 56.9811 49.9455 55.5956 49.7228C55.0968 49.5556 54.5769 49.2038 54.0227 48.7025C52.0638 46.9759 50.019 49.1415 48.6717 49.4496C48.5824 49.5603 48.1972 49.761 48.1729 49.561C47.9442 49.2751 50.3429 47.1227 51.5919 46.9535Z" fill="#1D2247"/>
<path d="M49.514 51.408C49.7675 52.2028 54.1721 52.2948 53.8368 51.2966C53.5014 50.2984 49.6248 51.1852 49.514 51.408Z" fill="#1D2247"/>
<ellipse cx="52.4722" cy="49.8026" rx="1.96049" ry="1.69909" fill="#1D2247"/>
<g filter="url(#filter1_i)">
<circle cx="44" cy="67" r="44" fill="url(#paint3_radial)" style="mix-blend-mode:multiply"/>
</g>
</g>
<defs>
<filter id="filter0_i" x="-15.519" y="23" width="103.519" height="103.519" filterUnits="userSpaceOnUse" color-interpolation-filters="sRGB">
<feFlood flood-opacity="0" result="BackgroundImageFix"/>
<feBlend mode="normal" in="SourceGraphic" in2="BackgroundImageFix" result="shape"/>
<feColorMatrix in="SourceAlpha" type="matrix" values="0 0 0 0 0 0 0 0 0 0 0 0 0 0 0 0 0 0 127 0" result="hardAlpha"/>
<feMorphology radius="6.20758" operator="erode" in="SourceAlpha" result="effect1_innerShadow"/>
<feOffset dx="-15.519" dy="15.519"/>
<feGaussianBlur stdDeviation="15.519"/>
<feComposite in2="hardAlpha" operator="arithmetic" k2="-1" k3="1"/>
<feColorMatrix type="matrix" values="0 0 0 0 0.0588235 0 0 0 0 0.129412 0 0 0 0 0.160784 0 0 0 1 0"/>
<feBlend mode="normal" in2="shape" result="effect1_innerShadow"/>
</filter>
<filter id="filter1_i" x="-15.519" y="23" width="103.519" height="103.519" filterUnits="userSpaceOnUse" color-interpolation-filters="sRGB">
<feFlood flood-opacity="0" result="BackgroundImageFix"/>
<feBlend mode="normal" in="SourceGraphic" in2="BackgroundImageFix" result="shape"/>
<feColorMatrix in="SourceAlpha" type="matrix" values="0 0 0 0 0 0 0 0 0 0 0 0 0 0 0 0 0 0 127 0" result="hardAlpha"/>
<feMorphology radius="6.20758" operator="erode" in="SourceAlpha" result="effect1_innerShadow"/>
<feOffset dx="-15.519" dy="15.519"/>
<feGaussianBlur stdDeviation="15.519"/>
<feComposite in2="hardAlpha" operator="arithmetic" k2="-1" k3="1"/>
<feColorMatrix type="matrix" values="0 0 0 0 0.0588235 0 0 0 0 0.129412 0 0 0 0 0.160784 0 0 0 1 0"/>
<feBlend mode="normal" in2="shape" result="effect1_innerShadow"/>
</filter>
<linearGradient id="paint0_linear" x1="82.8571" y1="23" x2="46.1196" y2="109.02" gradientUnits="userSpaceOnUse">
<stop stop-color="#0A6053"/>
<stop offset="1" stop-color="#132431"/>
</linearGradient>
<linearGradient id="paint1_linear" x1="5.14283" y1="23.0001" x2="41.8803" y2="109.02" gradientUnits="userSpaceOnUse">
<stop stop-color="#0A6053"/>
<stop offset="1" stop-color="#132431"/>
</linearGradient>
<linearGradient id="paint2_linear" x1="-7.39007" y1="69.2045" x2="3.96062" y2="141.144" gradientUnits="userSpaceOnUse">
<stop stop-color="#00FCCE"/>
<stop offset="0.273881" stop-color="#4972C2"/>
<stop offset="0.748874" stop-color="#441A8C"/>
<stop offset="1" stop-color="#5A2293"/>
</linearGradient>
<radialGradient id="paint3_radial" cx="0" cy="0" r="1" gradientUnits="userSpaceOnUse" gradientTransform="translate(65 32.5) rotate(115.761) scale(111.591 87.6192)">
<stop offset="0.643346" stop-color="#4650AD" stop-opacity="0"/>
<stop offset="1" stop-color="#0313AC"/>
</radialGradient>
</defs>
</svg>
