<svg width="65" height="58" viewBox="0 0 65 58" fill="none" xmlns="http://www.w3.org/2000/svg">
<g opacity="0.5">
<path opacity="0.1" d="M36.1887 57.6144C20.485 57.6144 7.75461 44.884 7.75461 29.1803C7.75461 13.4766 20.485 0.746216 36.1887 0.746216C51.8924 0.746216 64.6228 13.4766 64.6228 29.1803C64.6228 44.884 51.8924 57.6144 36.1887 57.6144Z" fill="white"/>
<path d="M19.7385 45.6304C10.6532 36.5452 10.6533 21.815 19.7385 12.7298C28.8238 3.64452 43.5539 3.64451 52.6391 12.7298C61.7244 21.815 61.7244 36.5452 52.6391 45.6304C43.5539 54.7157 28.8238 54.7157 19.7385 45.6304Z" fill="url(#paint0_linear)"/>
<path d="M21.2009 11.2777C22.4705 11.4407 23.82 12.0232 24.8436 12.3862C26.0262 12.8048 27.4031 13.6821 27.1816 14.9174C27.0811 15.4756 26.6508 15.9469 26.6176 16.5138C26.5707 17.3345 27.3641 17.9531 28.132 18.2488C28.9 18.5445 29.7675 18.7035 30.3422 19.2919C30.5832 19.5378 30.7569 19.8472 31.0165 20.0736C31.6927 20.6629 32.7036 20.5312 33.5994 20.5683C34.5684 20.6093 35.51 20.8864 36.441 21.1616C38.0588 21.6407 39.6767 22.1198 41.2955 22.5989C42.3387 22.9073 43.413 23.2332 44.2473 23.9309C45.0816 24.6286 45.6174 25.8034 45.2436 26.8251C45.0338 27.3979 44.5772 27.8409 44.2522 28.3581C43.6784 29.2704 43.5252 30.3936 42.9798 31.3235C42.2792 32.5179 41.0233 33.2556 39.8201 33.9416C39.3996 34.1816 38.9653 34.4266 38.4852 34.4958C37.3767 34.6559 36.3522 33.843 35.7101 32.9258C35.067 32.0085 34.6396 30.9352 33.8648 30.1262C33.1008 29.328 31.9854 28.8382 30.8867 28.9533C29.7879 29.0685 28.7517 29.8442 28.4531 30.9088C28.1545 31.9724 28.7097 33.2449 29.7401 33.644C30.3441 33.8782 31.0165 33.8138 31.6625 33.8665C32.3084 33.9191 33.0188 34.1514 33.3047 34.732C33.4823 35.0921 33.4599 35.5165 33.5565 35.9069C34.0463 37.8936 37.2587 38.3288 37.5124 40.3584C37.6139 41.1732 37.1552 41.9627 36.5736 42.5423C34.9099 44.2002 32.1601 44.7339 31.0741 46.8153C30.7423 47.4515 30.5891 48.2029 30.0826 48.7103C29.5742 49.2206 28.8219 49.3738 28.133 49.5846C27.6402 49.7359 27.28 50.2754 26.8185 50.5057C24.4658 49.4636 21.9484 47.7163 20.0866 45.9902C20.2134 45.2622 20.8282 44.5436 20.9336 43.803C21.1921 41.9773 19.8924 40.3506 19.1713 38.6537C18.4629 36.9861 18.3018 35.0911 18.7204 33.3288C18.9507 32.3588 19.3898 31.3821 20.2095 30.8142C20.6672 30.497 21.2556 30.2892 21.4985 29.7886C21.8167 29.1348 21.3463 28.3434 20.7374 27.9453C20.1295 27.5472 19.3928 27.3852 18.7722 27.0076C18.1516 26.6299 17.6344 25.8854 17.8871 25.2033C16.5493 25.1721 15.3686 26.4602 14.0571 26.1957C13.7117 26.1264 13.4121 25.9498 13.1662 25.7078C13.9888 19.9369 16.9406 14.854 21.2009 11.2777Z" fill="#155053"/>
<path d="M59.5149 29.212C59.5149 38.7358 53.4786 46.7039 46.5285 50.021C46.0825 49.376 45.119 48.8978 45.277 48.1025C45.7366 45.7821 46.9974 43.6275 48.7948 42.0896C49.795 41.2329 51.0616 40.381 51.1533 39.0666C51.2362 37.883 50.2994 36.8925 49.3822 36.1383C49.1724 35.9655 48.9499 35.7831 48.8582 35.5264C48.7099 35.1107 48.9577 34.6609 49.2446 34.3262C49.8516 33.6197 50.6878 33.1123 51.5953 32.8996C52.1047 32.7805 52.6443 32.7483 53.1078 32.5073C53.744 32.1775 54.1558 31.4964 54.8145 31.2134C55.4907 30.9226 56.3416 31.0914 56.9261 30.6445C57.5828 30.142 57.5184 29.0452 56.9495 28.4441C56.3806 27.843 55.4839 27.6664 54.6593 27.7259C53.9148 27.7796 53.1546 27.9962 52.4345 27.7962C51.9427 27.6595 51.5212 27.3375 51.1552 26.9814C49.0202 24.9029 48.5352 21.3335 50.038 18.7612C50.2926 18.326 50.6029 17.9006 50.681 17.4029C50.7473 16.9765 50.6351 16.5442 50.5893 16.1149C50.3687 14.0686 51.0001 12.8665 52.0979 12.2419C56.6597 16.4662 59.5149 22.5054 59.5149 29.212Z" fill="#155053"/>
<path d="M51.052 11.2472C50.3982 11.9947 48.4323 11.5764 47.559 11.5423C46.1236 11.4857 46.1587 12.4595 45.1653 13.4109C44.2413 14.296 43.0527 14.8727 41.913 15.425C41.189 15.7753 40.1937 16.0749 39.6862 15.4504C39.452 15.1615 39.4013 14.7351 39.1095 14.5038C38.5972 14.0969 37.8859 14.5858 37.355 14.9673C36.1577 15.829 34.6101 16.1871 33.1552 15.9412C32.2194 15.7831 31.1685 15.1362 31.2573 14.1916C31.2807 13.9457 31.3812 13.691 31.2895 13.4617C31.1304 13.0645 30.5772 13.0782 30.1498 13.0948C29.3145 13.128 28.4441 12.885 27.841 12.3073C27.238 11.7296 26.9579 10.789 27.277 10.0161C27.4117 9.69022 27.641 9.40529 27.7434 9.06766C27.8654 8.66368 27.7922 8.22067 27.9142 7.81669C27.9767 7.60982 28.3032 7.35856 28.434 7.20829C30.8862 6.32324 33.3055 5.91583 36.0631 5.91583C41.6564 5.91486 47.0522 7.94122 51.052 11.2472Z" fill="#155053"/>
<path opacity="0.16" d="M51.7067 20.0492C53.3643 21.8291 54.0073 24.314 54.4066 26.7139C54.7563 28.8157 54.9626 30.9873 54.4811 33.0633C53.9996 35.1393 52.7337 37.1237 50.7991 38.0169C48.8654 38.9102 46.2611 38.4316 45.1003 36.645C44.7096 36.0431 44.4965 35.3409 44.3656 34.6349C43.9615 32.4633 44.2863 30.2096 43.929 28.0304C43.6596 26.3862 43.009 24.8299 42.3011 23.3213C41.939 22.5484 41.5568 21.7736 41.3772 20.9386C41.1976 20.1036 41.2415 19.1855 41.6896 18.4594C42.2074 17.6206 43.1972 17.1592 44.1784 17.0656C46.84 16.8105 49.9125 18.1222 51.7067 20.0492Z" fill="#CBFFF3"/>
<path opacity="0.38" d="M40.8837 12.6446C41.4235 13.0812 41.9213 13.6019 42.1716 14.2487C42.4219 14.8955 42.3798 15.6894 41.926 16.2139C41.4971 16.7107 40.8092 16.8779 40.1672 17.0183C39.4535 17.1741 38.7303 17.3308 38.0004 17.3059C37.2705 17.2811 36.5196 17.0547 36.0008 16.5407C35.5795 16.1232 35.3454 15.5566 35.1295 15.0044C34.7913 14.1427 34.4674 13.1835 34.7846 12.3131C35.7648 9.62565 39.4879 11.5154 40.8837 12.6446Z" fill="#ACFFEC" fill-opacity="0.24"/>
<path d="M20.161 29.1267L19.098 27.3671H19.8987L20.5184 28.5161L21.1336 27.3671H21.9388L20.8667 29.1177V30.3029H20.161V29.1267ZM23.8412 30.3481C23.6784 30.3481 23.5276 30.3376 23.3889 30.3165C23.2532 30.2953 23.1114 30.2592 22.9636 30.2079C22.8038 30.1536 22.6787 30.0662 22.5882 29.9455C22.4977 29.8219 22.4525 29.6726 22.4525 29.4977V28.213C22.4525 28.0682 22.4841 27.9385 22.5475 27.824C22.6138 27.7094 22.6983 27.6189 22.8008 27.5525C22.8913 27.4952 23.0029 27.447 23.1355 27.4078C23.2682 27.3686 23.3919 27.3444 23.5065 27.3354C23.612 27.3264 23.7236 27.3218 23.8412 27.3218C23.9799 27.3218 24.1006 27.3279 24.2031 27.3399C24.3056 27.349 24.4202 27.3701 24.5469 27.4033C24.6917 27.4455 24.8108 27.4967 24.9043 27.5571C24.9978 27.6174 25.0762 27.7018 25.1395 27.8104C25.2058 27.922 25.239 28.0562 25.239 28.213V29.4977C25.239 29.6605 25.1953 29.8008 25.1078 29.9184C25.0234 30.036 24.9058 30.125 24.755 30.1853C24.4836 30.2938 24.179 30.3481 23.8412 30.3481ZM23.8503 29.846C23.9498 29.846 24.0327 29.843 24.0991 29.837C24.1684 29.8279 24.2393 29.8128 24.3117 29.7917C24.3841 29.7706 24.4383 29.7359 24.4745 29.6877C24.5137 29.6364 24.5333 29.5731 24.5333 29.4977V28.2085C24.5333 28.0697 24.4775 27.9717 24.366 27.9144C24.2544 27.8541 24.081 27.824 23.8457 27.824C23.6105 27.824 23.4371 27.8526 23.3255 27.9099C23.214 27.9672 23.1582 28.0667 23.1582 28.2085V29.4977C23.1582 29.5731 23.1778 29.6364 23.217 29.6877C23.2562 29.7359 23.3135 29.7706 23.3889 29.7917C23.4612 29.8128 23.5306 29.8279 23.597 29.837C23.6663 29.843 23.7508 29.846 23.8503 29.846ZM27.2952 30.3481C26.4478 30.3481 26.024 30.0646 26.024 29.4977V27.3671H26.7297V29.4977C26.7297 29.6304 26.7719 29.7224 26.8564 29.7736C26.9438 29.8219 27.0931 29.846 27.3042 29.846C27.5123 29.846 27.6571 29.8219 27.7385 29.7736C27.8229 29.7224 27.8651 29.6304 27.8651 29.4977V27.3671H28.5708V29.4977C28.5708 30.0646 28.1456 30.3481 27.2952 30.3481ZM31.469 27.3671H32.3285L33.3871 30.3029H32.6723L32.41 29.5294H31.3379L31.08 30.3029H30.3834L31.469 27.3671ZM32.2562 29.0589L31.8852 27.9551H31.8671L31.4962 29.0589H32.2562ZM33.9388 27.3671H35.2597C35.6517 27.3671 35.9352 27.4153 36.1101 27.5118C36.285 27.6053 36.3725 27.7636 36.3725 27.9868V28.5025C36.3725 28.6744 36.3107 28.8101 36.187 28.9096C36.0664 29.0061 35.9051 29.0679 35.703 29.0951L36.5534 30.3029H35.7392L34.9702 29.1494H34.6445V30.3029H33.9388V27.3671ZM35.2506 28.6834C35.4165 28.6834 35.5296 28.6623 35.5899 28.6201C35.6502 28.5749 35.6804 28.4889 35.6804 28.3623V28.1542C35.6804 28.0456 35.6472 27.9717 35.5809 27.9325C35.5175 27.8903 35.4075 27.8692 35.2506 27.8692H34.6445V28.6834H35.2506ZM37.1866 27.3671H39.4258V27.8692H37.8923V28.5432H39.2765V29.0453H37.8923V29.8008H39.471V30.3029H37.1866V27.3671ZM41.4425 27.3671H42.1482V28.5432H43.3967V27.3671H44.1024V30.3029H43.3967V29.0453H42.1482V30.3029H41.4425V27.3671ZM44.9598 27.3671H47.199V27.8692H45.6655V28.5432H47.0497V29.0453H45.6655V29.8008H47.2442V30.3029H44.9598V27.3671ZM47.947 27.3671H49.2678C49.6599 27.3671 49.9434 27.4153 50.1183 27.5118C50.2932 27.6053 50.3807 27.7636 50.3807 27.9868V28.5025C50.3807 28.6744 50.3188 28.8101 50.1952 28.9096C50.0746 29.0061 49.9132 29.0679 49.7112 29.0951L50.5616 30.3029H49.7473L48.9783 29.1494H48.6526V30.3029H47.947V27.3671ZM49.2588 28.6834C49.4247 28.6834 49.5378 28.6623 49.5981 28.6201C49.6584 28.5749 49.6885 28.4889 49.6885 28.3623V28.1542C49.6885 28.0456 49.6554 27.9717 49.589 27.9325C49.5257 27.8903 49.4156 27.8692 49.2588 27.8692H48.6526V28.6834H49.2588ZM51.1948 27.3671H53.4339V27.8692H51.9004V28.5432H53.2847V29.0453H51.9004V29.8008H53.4792V30.3029H51.1948V27.3671Z" fill="white"/>
<path d="M31.8281 12.6649H34.7071V13.3105H32.7354V14.1771H34.5151V14.8227H32.7354V15.794H34.7652V16.4396H31.8281V12.6649ZM36.4248 13.3105H35.2616V12.6649H38.4895V13.3105H37.3321V16.4396H36.4248V13.3105ZM40.8551 16.4977C40.6845 16.4977 40.5313 16.49 40.3956 16.4745C40.2638 16.459 40.1184 16.4299 39.9594 16.3872C39.7811 16.3407 39.6337 16.2806 39.5174 16.2069C39.4011 16.1294 39.3041 16.0228 39.2266 15.887C39.1452 15.7513 39.1045 15.5904 39.1045 15.4043V13.7467C39.1045 12.9868 39.688 12.6068 40.8551 12.6068C41.1537 12.6068 41.553 12.6494 42.0532 12.7347V13.4152C41.6034 13.3067 41.2079 13.2524 40.8667 13.2524C40.7233 13.2524 40.6108 13.2562 40.5294 13.264C40.4518 13.2718 40.3704 13.2911 40.2851 13.3222C40.1029 13.3842 40.0118 13.5218 40.0118 13.7351V15.3403C40.0118 15.6815 40.3239 15.8522 40.9482 15.8522C41.2157 15.8522 41.5918 15.7959 42.0765 15.6835V16.3698C41.6616 16.4551 41.2545 16.4977 40.8551 16.4977Z" fill="white"/>
<path d="M32.0871 19.6779H34.0452V20.1083H32.692V20.7248H33.9173V21.1552H32.692V22.1943H32.0871V19.6779ZM34.57 19.6779H35.7022C36.0383 19.6779 36.2812 19.7192 36.4312 19.802C36.5811 19.8821 36.6561 20.0178 36.6561 20.2091V20.6511C36.6561 20.7984 36.6031 20.9148 36.4971 21.0001C36.3937 21.0828 36.2554 21.1358 36.0822 21.159L36.8111 22.1943H36.1132L35.4541 21.2056H35.1749V22.1943H34.57V19.6779ZM35.6945 20.8062C35.8366 20.8062 35.9336 20.7881 35.9853 20.7519C36.037 20.7131 36.0628 20.6395 36.0628 20.5309V20.3526C36.0628 20.2595 36.0344 20.1962 35.9775 20.1626C35.9232 20.1264 35.8289 20.1083 35.6945 20.1083H35.1749V20.8062H35.6945ZM37.2763 19.6779H39.1956V20.1083H37.8812V20.686H39.0677V21.1164H37.8812V21.7639H39.2344V22.1943H37.2763V19.6779ZM39.7592 19.6779H41.6785V20.1083H40.3641V20.686H41.5505V21.1164H40.3641V21.7639H41.7173V22.1943H39.7592V19.6779Z" fill="white"/>
<path opacity="0.32" d="M30.2114 6.72357C26.0521 10.892 23.5843 16.9861 23.5843 23.3432C23.5843 36.0672 33.8885 46.3818 46.5996 46.3818C48.5395 46.3818 50.7063 46.2734 52.5063 45.8205C48.3412 49.9947 42.3004 52.4445 35.94 52.4445C23.2645 52.2827 13.0863 42.1046 12.9248 29.4059C12.9248 18.5173 20.2189 9.23493 30.2114 6.72357Z" fill="#40434C"/>
<path opacity="0.1" d="M-5.91278e-05 13.6706C-5.91278e-05 20.8083 5.78687 26.5952 12.9245 26.5952C20.0622 26.5952 25.8491 20.8083 25.8491 13.6706C25.8491 6.53296 20.0622 0.746033 12.9245 0.746033C5.78687 0.746033 -5.91278e-05 6.53147 -5.91278e-05 13.6706Z" fill="#EEAD30"/>
<path d="M2.63576 14.6899C2.07326 9.00727 6.22398 3.94454 11.9067 3.38204C17.5893 2.81954 22.652 6.97028 23.2145 12.653C23.777 18.3356 19.6263 23.3983 13.9436 23.9608C8.26097 24.5233 3.19826 20.3726 2.63576 14.6899Z" fill="url(#paint1_linear)"/>
<g filter="url(#filter0_i)">
<path fill-rule="evenodd" clip-rule="evenodd" d="M9.6936 12.8107L12.7328 11.5258L15.6785 12.8435L12.7281 8.17773L9.6936 12.8107ZM9.70295 14.2362L12.7375 15.9993L15.8328 14.2362L12.7655 18.5174L9.70295 14.2362Z" fill="#CEFFE2"/>
<path fill-rule="evenodd" clip-rule="evenodd" d="M12.8069 12.2325L9.6936 13.5437L12.8069 15.2736L15.8328 13.5805L12.8069 12.2325Z" fill="#CEFFE2"/>
</g>
<path opacity="0.32" d="M10.5524 3.65417C8.69282 5.51025 7.22888 8.22768 7.22888 11.0573C7.22888 16.7211 9.74459 20.1808 14.5402 21.4255C16.5559 21.9487 19.0666 21.5144 19.8716 21.3127C18.0089 23.1703 15.5956 24.0104 12.753 24.0104C7.04674 23.8912 2.58494 19.2335 2.58494 13.7727C2.58494 8.97329 5.61259 4.93907 10.5524 3.65417Z" fill="#40434C"/>
<path opacity="0.16" d="M20.0808 9.29391C20.8504 10.0862 21.1488 11.1912 21.3338 12.2575C21.4955 13.1928 21.5919 14.1579 21.368 15.0812C21.1442 16.0045 20.5565 16.8862 19.6596 17.2838C18.761 17.6814 17.5531 17.4685 17.0137 16.6732C16.8318 16.4051 16.7339 16.0939 16.6732 15.7797C16.4851 14.8131 16.6359 13.8123 16.4711 12.8428C16.3452 12.1116 16.0436 11.4191 15.7156 10.7489C15.5477 10.4049 15.3705 10.0609 15.2866 9.69006C15.2026 9.31923 15.2228 8.91117 15.4311 8.588C15.6721 8.21569 16.1307 8.01017 16.5862 7.96847C17.8205 7.85379 19.2476 8.43758 20.0808 9.29391Z" fill="white"/>
</g>
<defs>
<filter id="filter0_i" x="9.37049" y="8.17773" width="6.46229" height="10.6628" filterUnits="userSpaceOnUse" color-interpolation-filters="sRGB">
<feFlood flood-opacity="0" result="BackgroundImageFix"/>
<feBlend mode="normal" in="SourceGraphic" in2="BackgroundImageFix" result="shape"/>
<feColorMatrix in="SourceAlpha" type="matrix" values="0 0 0 0 0 0 0 0 0 0 0 0 0 0 0 0 0 0 127 0" result="hardAlpha"/>
<feOffset dx="-0.323115" dy="0.323115"/>
<feGaussianBlur stdDeviation="0.161557"/>
<feComposite in2="hardAlpha" operator="arithmetic" k2="-1" k3="1"/>
<feColorMatrix type="matrix" values="0 0 0 0 0 0 0 0 0 0 0 0 0 0 0 0 0 0 0.61 0"/>
<feBlend mode="normal" in2="shape" result="effect1_innerShadow"/>
</filter>
<linearGradient id="paint0_linear" x1="36.1888" y1="5.91583" x2="36.1888" y2="52.4444" gradientUnits="userSpaceOnUse">
<stop stop-color="#17473E"/>
<stop offset="1" stop-color="#0C1A1D"/>
</linearGradient>
<linearGradient id="paint1_linear" x1="18.9092" y1="3.33099" x2="9.62926" y2="22.4207" gradientUnits="userSpaceOnUse">
<stop stop-color="#61FCA0"/>
<stop offset="0.161458" stop-color="#2FE077"/>
<stop offset="0.540611" stop-color="#12A24D"/>
<stop offset="1" stop-color="#0C533E"/>
</linearGradient>
</defs>
</svg>
