<svg width="109" height="109" viewBox="0 0 109 109" fill="none" xmlns="http://www.w3.org/2000/svg">
<g filter="url(#filter0_ddd)">
<path d="M15 25.5C15 19.701 19.701 15 25.5 15H88.5C94.299 15 99 19.701 99 25.5V88.5C99 94.299 94.299 99 88.5 99H25.5C19.701 99 15 94.299 15 88.5V25.5Z" fill="url(#paint0_linear)"/>
<path d="M15 25.5C15 19.701 19.701 15 25.5 15H88.5C94.299 15 99 19.701 99 25.5V88.5C99 94.299 94.299 99 88.5 99H25.5C19.701 99 15 94.299 15 88.5V25.5Z" fill="url(#paint1_linear)"/>
<g filter="url(#filter1_f)">
<rect x="20.25" y="20.3936" width="73.5" height="73.5" rx="7.875" fill="url(#paint2_linear)"/>
</g>
<path d="M37.2806 54.2246C36.9341 54.2246 36.623 54.2088 36.3474 54.1773C36.0797 54.1458 35.7844 54.0868 35.4615 54.0001C35.0992 53.9056 34.8 53.7836 34.5637 53.6339C34.3275 53.4764 34.1306 53.2599 33.9731 52.9843C33.8077 52.7086 33.725 52.3818 33.725 52.0038V48.6373C33.725 47.0938 34.9102 46.322 37.2806 46.322C37.887 46.322 38.6981 46.4086 39.714 46.5819V47.9639C38.8005 47.7434 37.9972 47.6332 37.3042 47.6332C37.0129 47.6332 36.7845 47.6411 36.6191 47.6568C36.4616 47.6726 36.2962 47.7119 36.123 47.7749C35.7529 47.9009 35.5678 48.1805 35.5678 48.6136V51.8739C35.5678 52.5669 36.2017 52.9134 37.4696 52.9134C38.013 52.9134 38.7769 52.7992 39.7612 52.5708V53.9647C38.9186 54.1379 38.0917 54.2246 37.2806 54.2246ZM43.5611 46.4401H45.8054L48.5696 54.1064H46.7032L46.0181 52.0865H43.2185L42.5452 54.1064H40.7261L43.5611 46.4401ZM45.6164 50.858L44.6478 47.9758H44.6006L43.6319 50.858H45.6164ZM50.0103 46.4401H51.8767L55.5858 51.6731V46.4401H57.2278V54.1064H55.3614L51.6523 48.7908V54.1064H50.0103V46.4401ZM62.862 54.2246C62.5155 54.2246 62.2045 54.2088 61.9289 54.1773C61.6611 54.1458 61.3658 54.0868 61.0429 54.0001C60.6807 53.9056 60.3814 53.7836 60.1452 53.6339C59.9089 53.4764 59.712 53.2599 59.5545 52.9843C59.3892 52.7086 59.3065 52.3818 59.3065 52.0038V48.6373C59.3065 47.0938 60.4917 46.322 62.862 46.322C63.4684 46.322 64.2795 46.4086 65.2954 46.5819V47.9639C64.3819 47.7434 63.5787 47.6332 62.8857 47.6332C62.5943 47.6332 62.3659 47.6411 62.2005 47.6568C62.043 47.6726 61.8777 47.7119 61.7044 47.7749C61.3343 47.9009 61.1492 48.1805 61.1492 48.6136V51.8739C61.1492 52.5669 61.7832 52.9134 63.051 52.9134C63.5944 52.9134 64.3583 52.7992 65.3427 52.5708V53.9647C64.5 54.1379 63.6732 54.2246 62.862 54.2246ZM67.1108 46.4401H72.9579V47.7513H68.9535V49.5114H72.5681V50.8226H68.9535V52.7953H73.0761V54.1064H67.1108V46.4401ZM74.9112 46.4401H76.7539V52.7953H80.5221V54.1064H74.9112V46.4401ZM40.1212 68.2246C39.6959 68.2246 39.3022 68.197 38.9399 68.1419C38.5856 68.0868 38.2154 67.9923 37.8296 67.8584C37.4122 67.7166 37.0854 67.4883 36.8491 67.1733C36.6129 66.8504 36.4947 66.4606 36.4947 66.0038V62.6491C36.4947 62.2711 36.5774 61.9324 36.7428 61.6332C36.9161 61.3339 37.1366 61.0977 37.4043 60.9244C37.6406 60.7748 37.9319 60.6488 38.2784 60.5464C38.6249 60.4441 38.9478 60.3811 39.2471 60.3574C39.5227 60.3338 39.8141 60.322 40.1212 60.322C40.4834 60.322 40.7984 60.3378 41.0662 60.3693C41.3339 60.3929 41.6332 60.448 41.9639 60.5346C42.3419 60.6449 42.653 60.7788 42.8971 60.9363C43.1412 61.0938 43.346 61.3143 43.5114 61.5978C43.6846 61.8891 43.7712 62.2396 43.7712 62.6491V66.0038C43.7712 66.4291 43.6571 66.7953 43.4287 67.1024C43.2082 67.4095 42.9011 67.6418 42.5073 67.7993C41.7986 68.0828 41.0032 68.2246 40.1212 68.2246ZM40.1448 66.9134C40.4047 66.9134 40.6212 66.9055 40.7945 66.8898C40.9756 66.8661 41.1607 66.8268 41.3497 66.7716C41.5387 66.7165 41.6804 66.6259 41.7749 66.4999C41.8773 66.3661 41.9285 66.2007 41.9285 66.0038V62.6373C41.9285 62.275 41.7828 62.0191 41.4914 61.8694C41.2001 61.7119 40.7472 61.6332 40.133 61.6332C39.5187 61.6332 39.0659 61.708 38.7746 61.8576C38.4832 62.0073 38.3375 62.2671 38.3375 62.6373V66.0038C38.3375 66.2007 38.3887 66.3661 38.4911 66.4999C38.5934 66.6259 38.7431 66.7165 38.9399 66.7716C39.1289 66.8268 39.3101 66.8661 39.4833 66.8898C39.6644 66.9055 39.8849 66.9134 40.1448 66.9134ZM45.8448 60.4401H49.2941C50.3178 60.4401 51.0581 60.5661 51.5148 60.8181C51.9716 61.0623 52.1999 61.4757 52.1999 62.0584V63.4051C52.1999 63.8539 52.0385 64.2083 51.7156 64.4682C51.4006 64.7202 50.9793 64.8816 50.4517 64.9525L52.6724 68.1064H50.5462L48.5381 65.0943H47.6876V68.1064H45.8448V60.4401ZM49.2704 63.8776C49.7036 63.8776 49.9989 63.8224 50.1564 63.7122C50.3139 63.5941 50.3926 63.3696 50.3926 63.0389V62.4955C50.3926 62.212 50.306 62.0191 50.1327 61.9167C49.9674 61.8064 49.6799 61.7513 49.2704 61.7513H47.6876V63.8776H49.2704ZM54.3258 60.4401H57.5861C58.4838 60.4401 59.1926 60.511 59.7123 60.6528C60.2321 60.7866 60.614 61.0229 60.8581 61.3615C61.1022 61.7001 61.2243 62.1687 61.2243 62.7672V65.8857C61.2243 66.4684 61.1101 66.9213 60.8817 67.2441C60.6534 67.5591 60.2793 67.7836 59.7596 67.9174C59.2398 68.0434 58.5192 68.1064 57.5979 68.1064H54.3258V60.4401ZM57.5152 66.7953C58.0192 66.7953 58.3972 66.7756 58.6492 66.7362C58.9091 66.6889 59.0941 66.6023 59.2044 66.4763C59.3225 66.3503 59.3816 66.1534 59.3816 65.8857V62.7318C59.3816 62.3695 59.2359 62.1175 58.9445 61.9758C58.661 61.8261 58.2042 61.7513 57.5742 61.7513H56.1686V66.7953H57.5152ZM63.3028 60.4401H69.15V61.7513H65.1456V63.5114H68.7602V64.8226H65.1456V66.7953H69.2682V68.1064H63.3028V60.4401ZM71.1032 60.4401H74.5525C75.5762 60.4401 76.3165 60.5661 76.7732 60.8181C77.23 61.0623 77.4584 61.4757 77.4584 62.0584V63.4051C77.4584 63.8539 77.2969 64.2083 76.9741 64.4682C76.6591 64.7202 76.2377 64.8816 75.7101 64.9525L77.9309 68.1064H75.8046L73.7965 65.0943H72.946V68.1064H71.1032V60.4401ZM74.5289 63.8776C74.962 63.8776 75.2573 63.8224 75.4148 63.7122C75.5723 63.5941 75.6511 63.3696 75.6511 63.0389V62.4955C75.6511 62.212 75.5644 62.0191 75.3912 61.9167C75.2258 61.8064 74.9384 61.7513 74.5289 61.7513H72.946V63.8776H74.5289Z" fill="white"/>
</g>
<defs>
<filter id="filter0_ddd" x="0.5625" y="0.5625" width="107.625" height="107.625" filterUnits="userSpaceOnUse" color-interpolation-filters="sRGB">
<feFlood flood-opacity="0" result="BackgroundImageFix"/>
<feColorMatrix in="SourceAlpha" type="matrix" values="0 0 0 0 0 0 0 0 0 0 0 0 0 0 0 0 0 0 127 0"/>
<feOffset dx="2.625" dy="2.625"/>
<feGaussianBlur stdDeviation="3.28125"/>
<feColorMatrix type="matrix" values="0 0 0 0 0.138902 0 0 0 0 0.992157 0 0 0 0 0 0 0 0 1 0"/>
<feBlend mode="normal" in2="BackgroundImageFix" result="effect1_dropShadow"/>
<feColorMatrix in="SourceAlpha" type="matrix" values="0 0 0 0 0 0 0 0 0 0 0 0 0 0 0 0 0 0 127 0"/>
<feOffset dx="-2.625" dy="-2.625"/>
<feGaussianBlur stdDeviation="5.90625"/>
<feColorMatrix type="matrix" values="0 0 0 0 0 0 0 0 0 1 0 0 0 0 0.879699 0 0 0 1 0"/>
<feBlend mode="normal" in2="effect1_dropShadow" result="effect2_dropShadow"/>
<feColorMatrix in="SourceAlpha" type="matrix" values="0 0 0 0 0 0 0 0 0 0 0 0 0 0 0 0 0 0 127 0"/>
<feOffset/>
<feGaussianBlur stdDeviation="1.96875"/>
<feColorMatrix type="matrix" values="0 0 0 0 1 0 0 0 0 1 0 0 0 0 1 0 0 0 1 0"/>
<feBlend mode="normal" in2="effect2_dropShadow" result="effect3_dropShadow"/>
<feBlend mode="normal" in="SourceGraphic" in2="effect3_dropShadow" result="shape"/>
</filter>
<filter id="filter1_f" x="15" y="15.1436" width="84" height="84" filterUnits="userSpaceOnUse" color-interpolation-filters="sRGB">
<feFlood flood-opacity="0" result="BackgroundImageFix"/>
<feBlend mode="normal" in="SourceGraphic" in2="BackgroundImageFix" result="shape"/>
<feGaussianBlur stdDeviation="2.625" result="effect1_foregroundBlur"/>
</filter>
<linearGradient id="paint0_linear" x1="89.8125" y1="23.8594" x2="33.6392" y2="93.3807" gradientUnits="userSpaceOnUse">
<stop stop-color="#13D9AC"/>
<stop offset="0.373753" stop-color="#198273"/>
<stop offset="0.667232" stop-color="#1E2E3B"/>
</linearGradient>
<linearGradient id="paint1_linear" x1="89.8125" y1="23.8594" x2="33.6392" y2="93.3807" gradientUnits="userSpaceOnUse">
<stop stop-color="#13D9AC"/>
<stop offset="0.667232" stop-color="#1E2E3B"/>
</linearGradient>
<linearGradient id="paint2_linear" x1="65.0592" y1="20.3936" x2="57" y2="93.8936" gradientUnits="userSpaceOnUse">
<stop stop-color="#0D8971"/>
<stop offset="0.412458" stop-color="#205C53"/>
<stop offset="1" stop-color="#133333"/>
</linearGradient>
</defs>
</svg>
