<svg width="43" height="43" viewBox="0 0 43 43" fill="none" xmlns="http://www.w3.org/2000/svg">
<path opacity="0.1" d="M5.61551 21.0005C5.61551 29.4967 12.5039 36.3851 21.0001 36.3851C29.4963 36.3851 36.3847 29.4967 36.3847 21.0005C36.3847 12.5042 29.4963 5.61584 21.0001 5.61584C12.5039 5.61584 5.61551 12.5025 5.61551 21.0005Z" fill="#EEAD30"/>
<g filter="url(#filter0_ddd)">
<path d="M8.75336 22.2141C8.08379 15.4499 13.0245 9.4235 19.7888 8.75394C26.5531 8.08437 32.5795 13.0251 33.249 19.7894C33.9186 26.5537 28.9778 32.58 22.2135 33.2496C15.4493 33.9192 9.42292 28.9784 8.75336 22.2141Z" fill="url(#paint0_linear)"/>
</g>
<g filter="url(#filter1_i)">
<path d="M22.2031 19.066V17.5745H25.7777V15.302H16.044V17.5745H19.619V19.0648C16.7136 19.1921 14.529 19.7412 14.529 20.3989C14.529 21.0566 16.7146 21.6056 19.619 21.7338V26.5112H22.204V21.7334C25.1042 21.6056 27.2843 21.057 27.2843 20.3999C27.2843 19.7428 25.1042 19.1942 22.204 19.0664L22.2031 19.066ZM22.204 21.3287V21.3275C22.131 21.3319 21.7563 21.3534 20.922 21.3534C20.255 21.3534 19.7857 21.3353 19.6203 21.3271V21.3291C17.0534 21.2206 15.1374 20.7941 15.1374 20.2838C15.1374 19.7735 17.0536 19.3476 19.6203 19.2389V20.9042C19.7884 20.9152 20.2693 20.9423 20.9329 20.9423C21.7301 20.9423 22.1308 20.9106 22.2044 20.9042V19.2389C24.7662 19.3478 26.6778 19.7747 26.6778 20.2832C26.6778 20.7917 24.7654 21.2188 22.2044 21.3277" fill="#D1FFF1"/>
</g>
<path opacity="0.32" d="M18.1765 9.07782C15.9629 11.2872 14.2203 14.5218 14.2203 17.89C14.2203 24.6318 17.2148 28.7501 22.9232 30.2317C25.3226 30.8544 28.3111 30.3375 29.2694 30.0974C27.0522 32.3086 24.1796 33.3086 20.7958 33.3086C14.0035 33.1667 8.69246 27.6225 8.69246 21.1223C8.69246 15.4094 12.2964 10.6073 18.1765 9.07782Z" fill="#40434C"/>
<path opacity="0.16" d="M29.5188 15.7908C30.4348 16.7339 30.7901 18.0493 31.0103 19.3185C31.2028 20.4318 31.3175 21.5805 31.051 22.6796C30.7845 23.7787 30.0851 24.8282 29.0174 25.3015C27.9478 25.7748 26.51 25.5213 25.8679 24.5747C25.6514 24.2556 25.5348 23.8851 25.4626 23.511C25.2387 22.3605 25.4182 21.1693 25.222 20.0152C25.0722 19.1448 24.7132 18.3205 24.3227 17.5228C24.1229 17.1133 23.9119 16.7038 23.812 16.2624C23.7121 15.8209 23.7361 15.3352 23.9841 14.9505C24.2709 14.5074 24.8168 14.2627 25.359 14.2131C26.8282 14.0766 28.527 14.7715 29.5188 15.7908Z" fill="white"/>
<defs>
<filter id="filter0_ddd" x="0.962086" y="0.962665" width="41.6243" height="41.6243" filterUnits="userSpaceOnUse" color-interpolation-filters="sRGB">
<feFlood flood-opacity="0" result="BackgroundImageFix"/>
<feColorMatrix in="SourceAlpha" type="matrix" values="0 0 0 0 0 0 0 0 0 0 0 0 0 0 0 0 0 0 127 0"/>
<feOffset dx="-1.5461" dy="-1.5461"/>
<feGaussianBlur stdDeviation="3.0922"/>
<feColorMatrix type="matrix" values="0 0 0 0 0.262745 0 0 0 0 0.788235 0 0 0 0 0.631373 0 0 0 1 0"/>
<feBlend mode="normal" in2="BackgroundImageFix" result="effect1_dropShadow"/>
<feColorMatrix in="SourceAlpha" type="matrix" values="0 0 0 0 0 0 0 0 0 0 0 0 0 0 0 0 0 0 127 0"/>
<feOffset dx="1.5461" dy="1.5461"/>
<feGaussianBlur stdDeviation="3.86526"/>
<feColorMatrix type="matrix" values="0 0 0 0 0.105882 0 0 0 0 0.384314 0 0 0 0 0.356863 0 0 0 1 0"/>
<feBlend mode="normal" in2="effect1_dropShadow" result="effect2_dropShadow"/>
<feColorMatrix in="SourceAlpha" type="matrix" values="0 0 0 0 0 0 0 0 0 0 0 0 0 0 0 0 0 0 127 0"/>
<feOffset/>
<feGaussianBlur stdDeviation="0.775567"/>
<feColorMatrix type="matrix" values="0 0 0 0 1 0 0 0 0 1 0 0 0 0 1 0 0 0 0.29 0"/>
<feBlend mode="hard-light" in2="effect2_dropShadow" result="effect3_dropShadow"/>
<feBlend mode="normal" in="SourceGraphic" in2="effect3_dropShadow" result="shape"/>
</filter>
<filter id="filter1_i" x="14.1425" y="15.302" width="13.1419" height="11.5958" filterUnits="userSpaceOnUse" color-interpolation-filters="sRGB">
<feFlood flood-opacity="0" result="BackgroundImageFix"/>
<feBlend mode="normal" in="SourceGraphic" in2="BackgroundImageFix" result="shape"/>
<feColorMatrix in="SourceAlpha" type="matrix" values="0 0 0 0 0 0 0 0 0 0 0 0 0 0 0 0 0 0 127 0" result="hardAlpha"/>
<feOffset dx="-0.386526" dy="0.386526"/>
<feGaussianBlur stdDeviation="0.193263"/>
<feComposite in2="hardAlpha" operator="arithmetic" k2="-1" k3="1"/>
<feColorMatrix type="matrix" values="0 0 0 0 0 0 0 0 0 0 0 0 0 0 0 0 0 0 0.61 0"/>
<feBlend mode="normal" in2="shape" result="effect1_innerShadow"/>
</filter>
<linearGradient id="paint0_linear" x1="32.5474" y1="12.7015" x2="11.0244" y2="25.9314" gradientUnits="userSpaceOnUse">
<stop stop-color="#59FFCE"/>
<stop offset="0.203125" stop-color="#47CEA6"/>
<stop offset="0.540611" stop-color="#209D78"/>
<stop offset="0.776042" stop-color="#117C69"/>
<stop offset="1" stop-color="#005858"/>
</linearGradient>
</defs>
</svg>
