<svg width="27" height="27" viewBox="0 0 27 27" fill="none" xmlns="http://www.w3.org/2000/svg">
<g clip-path="url(#clip0)">
<path d="M10.1985 11.5249C10.0224 11.1121 9.84074 10.6938 9.66462 10.2865L8.98215 8.70143C8.3162 7.21541 8.85006 5.54777 10.248 4.73871L10.3196 4.70019C10.7599 4.46903 11.2607 4.34795 11.7561 4.34795C12.8238 4.34795 13.809 4.89282 14.3924 5.81195C14.8327 6.48891 15.2399 7.15487 15.6692 7.85935L15.9554 8.32717L15.9609 8.33267C16.3407 7.56215 16.5608 6.69806 16.5608 5.77893C16.5608 2.58674 13.9741 -3.05176e-05 10.7819 -3.05176e-05C7.5897 -3.05176e-05 5.00293 2.58674 5.00293 5.77893C5.00293 8.77298 7.28149 11.2332 10.1985 11.5249Z" fill="white"/>
<path d="M27.9097 22.3178C28.1133 22.7746 27.9482 23.3029 27.5574 23.5891L22.8352 26.6768C22.0536 27.1721 21.0134 27.1005 20.32 26.4456C18.212 24.4422 15.4381 23.5671 15.4381 23.5671C14.7336 23.347 14.1117 23.0608 13.5173 22.5269C13.121 22.1582 12.5101 21.7674 12.1083 21.4317C11.0406 20.5566 9.89031 19.7805 8.64096 19.2136C8.08508 18.9715 7.98051 18.5972 8.25569 18.0468C8.39329 17.7717 8.75654 17.4469 9.05924 17.3314C9.74171 17.0782 10.4187 17.1883 11.0516 17.3644C11.4424 17.4414 13.0715 18.4872 13.831 18.8614C14.486 19.1861 14.6566 18.5862 14.6621 17.8597C14.6621 17.4965 14.5575 17.1607 14.4474 16.8195C13.2366 13.8585 11.9542 10.925 10.6718 7.95844C10.3801 7.309 10.5893 6.68157 11.1727 6.34033C11.7506 6.03763 12.4551 6.22475 12.8293 6.80815C13.3577 7.62822 13.853 8.44277 14.3814 9.29586C14.8437 10.0719 15.3445 10.8149 15.8069 11.5909L16.3958 12.5266C16.3958 12.5266 20.5786 11.4093 25.0202 12.9724C25.2623 13.0714 25.466 13.2366 25.543 13.5007C25.9448 14.4859 26.996 17.2103 27.0896 19.764C27.1997 20.43 27.3923 20.9969 27.4969 21.3711L27.9097 22.3178Z" fill="white"/>
</g>
<defs>
<clipPath id="clip0">
<rect width="27" height="27" fill="white"/>
</clipPath>
</defs>
</svg>
