<svg width="18" height="13" viewBox="0 0 18 13" fill="none" xmlns="http://www.w3.org/2000/svg">
<rect width="18" height="13" rx="2" fill="white"/>
<mask id="mask0" mask-type="alpha" maskUnits="userSpaceOnUse" x="0" y="0" width="18" height="13">
<rect width="18" height="13" rx="2" fill="white"/>
</mask>
<g mask="url(#mask0)">
<path fill-rule="evenodd" clip-rule="evenodd" d="M18 0H0V0.866667H18V0ZM18 1.73339H0V2.60006H18V1.73339ZM0 3.46661H18V4.33328H0V3.46661ZM18 5.2H0V6.06667H18V5.2ZM0 6.93339H18V7.80006H0V6.93339ZM18 8.66661H0V9.53328H18V8.66661ZM0 10.4H18V11.2667H0V10.4ZM18 12.1334H0V13.0001H18V12.1334Z" fill="#D02F44"/>
<rect width="7.71429" height="6.06667" fill="#46467F"/>
<g filter="url(#filter0_d)">
<path fill-rule="evenodd" clip-rule="evenodd" d="M1.71432 1.30003C1.71432 1.53936 1.52244 1.73337 1.28575 1.73337C1.04906 1.73337 0.857178 1.53936 0.857178 1.30003C0.857178 1.06071 1.04906 0.866699 1.28575 0.866699C1.52244 0.866699 1.71432 1.06071 1.71432 1.30003ZM3.42858 1.30003C3.42858 1.53936 3.2367 1.73337 3.00001 1.73337C2.76331 1.73337 2.57143 1.53936 2.57143 1.30003C2.57143 1.06071 2.76331 0.866699 3.00001 0.866699C3.2367 0.866699 3.42858 1.06071 3.42858 1.30003ZM4.71435 1.73337C4.95104 1.73337 5.14292 1.53936 5.14292 1.30003C5.14292 1.06071 4.95104 0.866699 4.71435 0.866699C4.47766 0.866699 4.28578 1.06071 4.28578 1.30003C4.28578 1.53936 4.47766 1.73337 4.71435 1.73337ZM6.85718 1.30003C6.85718 1.53936 6.6653 1.73337 6.42861 1.73337C6.19191 1.73337 6.00003 1.53936 6.00003 1.30003C6.00003 1.06071 6.19191 0.866699 6.42861 0.866699C6.6653 0.866699 6.85718 1.06071 6.85718 1.30003ZM2.14292 2.59998C2.37961 2.59998 2.57149 2.40597 2.57149 2.16664C2.57149 1.92732 2.37961 1.73331 2.14292 1.73331C1.90623 1.73331 1.71435 1.92732 1.71435 2.16664C1.71435 2.40597 1.90623 2.59998 2.14292 2.59998ZM4.28575 2.16664C4.28575 2.40597 4.09387 2.59998 3.85718 2.59998C3.62048 2.59998 3.42861 2.40597 3.42861 2.16664C3.42861 1.92732 3.62048 1.73331 3.85718 1.73331C4.09387 1.73331 4.28575 1.92732 4.28575 2.16664ZM5.57143 2.59998C5.80813 2.59998 6 2.40597 6 2.16664C6 1.92732 5.80813 1.73331 5.57143 1.73331C5.33474 1.73331 5.14286 1.92732 5.14286 2.16664C5.14286 2.40597 5.33474 2.59998 5.57143 2.59998ZM6.85718 3.03342C6.85718 3.27275 6.6653 3.46676 6.42861 3.46676C6.19191 3.46676 6.00003 3.27275 6.00003 3.03342C6.00003 2.7941 6.19191 2.60009 6.42861 2.60009C6.6653 2.60009 6.85718 2.7941 6.85718 3.03342ZM4.71435 3.46676C4.95104 3.46676 5.14292 3.27275 5.14292 3.03342C5.14292 2.7941 4.95104 2.60009 4.71435 2.60009C4.47766 2.60009 4.28578 2.7941 4.28578 3.03342C4.28578 3.27275 4.47766 3.46676 4.71435 3.46676ZM3.42858 3.03342C3.42858 3.27275 3.2367 3.46676 3.00001 3.46676C2.76331 3.46676 2.57143 3.27275 2.57143 3.03342C2.57143 2.7941 2.76331 2.60009 3.00001 2.60009C3.2367 2.60009 3.42858 2.7941 3.42858 3.03342ZM1.28575 3.46676C1.52244 3.46676 1.71432 3.27275 1.71432 3.03342C1.71432 2.7941 1.52244 2.60009 1.28575 2.60009C1.04906 2.60009 0.857178 2.7941 0.857178 3.03342C0.857178 3.27275 1.04906 3.46676 1.28575 3.46676ZM2.57149 3.90003C2.57149 4.13936 2.37961 4.33337 2.14292 4.33337C1.90623 4.33337 1.71435 4.13936 1.71435 3.90003C1.71435 3.66071 1.90623 3.4667 2.14292 3.4667C2.37961 3.4667 2.57149 3.66071 2.57149 3.90003ZM3.85718 4.33337C4.09387 4.33337 4.28575 4.13936 4.28575 3.90003C4.28575 3.66071 4.09387 3.4667 3.85718 3.4667C3.62048 3.4667 3.42861 3.66071 3.42861 3.90003C3.42861 4.13936 3.62048 4.33337 3.85718 4.33337ZM6 3.90003C6 4.13936 5.80813 4.33337 5.57143 4.33337C5.33474 4.33337 5.14286 4.13936 5.14286 3.90003C5.14286 3.66071 5.33474 3.4667 5.57143 3.4667C5.80813 3.4667 6 3.66071 6 3.90003ZM6.42861 5.19998C6.6653 5.19998 6.85718 5.00597 6.85718 4.76664C6.85718 4.52732 6.6653 4.33331 6.42861 4.33331C6.19191 4.33331 6.00003 4.52732 6.00003 4.76664C6.00003 5.00597 6.19191 5.19998 6.42861 5.19998ZM5.14292 4.76664C5.14292 5.00597 4.95104 5.19998 4.71435 5.19998C4.47766 5.19998 4.28578 5.00597 4.28578 4.76664C4.28578 4.52732 4.47766 4.33331 4.71435 4.33331C4.95104 4.33331 5.14292 4.52732 5.14292 4.76664ZM3.00001 5.19998C3.2367 5.19998 3.42858 5.00597 3.42858 4.76664C3.42858 4.52732 3.2367 4.33331 3.00001 4.33331C2.76331 4.33331 2.57143 4.52732 2.57143 4.76664C2.57143 5.00597 2.76331 5.19998 3.00001 5.19998ZM1.71432 4.76664C1.71432 5.00597 1.52244 5.19998 1.28575 5.19998C1.04906 5.19998 0.857178 5.00597 0.857178 4.76664C0.857178 4.52732 1.04906 4.33331 1.28575 4.33331C1.52244 4.33331 1.71432 4.52732 1.71432 4.76664Z" fill="url(#paint0_linear)"/>
</g>
</g>
<defs>
<filter id="filter0_d" x="0.857178" y="0.866699" width="6" height="5.33328" filterUnits="userSpaceOnUse" color-interpolation-filters="sRGB">
<feFlood flood-opacity="0" result="BackgroundImageFix"/>
<feColorMatrix in="SourceAlpha" type="matrix" values="0 0 0 0 0 0 0 0 0 0 0 0 0 0 0 0 0 0 127 0"/>
<feOffset dy="1"/>
<feColorMatrix type="matrix" values="0 0 0 0 0 0 0 0 0 0 0 0 0 0 0 0 0 0 0.06 0"/>
<feBlend mode="normal" in2="BackgroundImageFix" result="effect1_dropShadow"/>
<feBlend mode="normal" in="SourceGraphic" in2="effect1_dropShadow" result="shape"/>
</filter>
<linearGradient id="paint0_linear" x1="0.857178" y1="0.866699" x2="0.857178" y2="5.20003" gradientUnits="userSpaceOnUse">
<stop stop-color="white"/>
<stop offset="1" stop-color="#F0F0F0"/>
</linearGradient>
</defs>
</svg>
