<svg width="221" height="148" viewBox="0 0 221 148" fill="none" xmlns="http://www.w3.org/2000/svg">
<path opacity="0.1" d="M133 197.001C84.3989 197.001 45 157.602 45 109.001C45 60.3994 84.3989 21.0005 133 21.0005C181.601 21.0005 221 60.3994 221 109.001C221 157.602 181.601 197.001 133 197.001Z" fill="white"/>
<g opacity="0.9" filter="url(#filter0_dii)">
<path d="M82.0883 159.912C53.9705 131.794 53.9706 86.2061 82.0883 58.0883C110.206 29.9706 155.794 29.9705 183.912 58.0883C212.029 86.2061 212.029 131.794 183.912 159.912C155.794 188.029 110.206 188.029 82.0883 159.912Z" fill="url(#paint0_linear)"/>
</g>
<path opacity="0.16" d="M181.026 80.7407C186.156 86.2492 188.146 93.9397 189.382 101.367C190.464 107.872 191.103 114.593 189.612 121.018C188.122 127.443 184.204 133.584 178.217 136.349C172.232 139.113 164.172 137.632 160.58 132.103C159.371 130.24 158.711 128.067 158.306 125.882C157.055 119.161 158.061 112.186 156.955 105.442C156.121 100.353 154.107 95.5364 151.917 90.8676C150.796 88.4756 149.613 86.0777 149.057 83.4935C148.501 80.9093 148.637 78.0678 150.024 75.8207C151.627 73.2246 154.69 71.7965 157.727 71.5067C165.964 70.7173 175.473 74.7769 181.026 80.7407Z" fill="#CBFFF3"/>
<path opacity="0.38" d="M147.531 57.8249C149.201 59.1761 150.742 60.7876 151.517 62.7893C152.291 64.791 152.161 67.2481 150.757 68.8714C149.429 70.4089 147.3 70.9263 145.313 71.361C143.105 71.8429 140.866 72.3278 138.607 72.2509C136.348 72.1741 134.024 71.4733 132.419 69.8826C131.115 68.5905 130.39 66.8371 129.722 65.1281C128.676 62.4611 127.673 59.4925 128.655 56.7989C131.688 48.4815 143.211 54.33 147.531 57.8249Z" fill="#ACFFEC" fill-opacity="0.3"/>
<g filter="url(#filter1_i)">
<path d="M94.57 97.4H106.33C108.29 97.4 109.709 97.848 110.586 98.744C111.482 99.6213 111.93 101.04 111.93 103V105.8C111.93 107.76 111.482 109.188 110.586 110.084C109.709 110.961 108.29 111.4 106.33 111.4H99.61V117H94.57V97.4ZM106.89 103C106.89 101.88 106.33 101.32 105.21 101.32H99.61V107.48H105.21C106.33 107.48 106.89 106.92 106.89 105.8V103ZM121.729 113.08H131.949V117H116.689V97.4H121.729V113.08ZM139.655 117H134.195L141.615 97.4H147.215L154.635 117H149.175L147.915 113.5H140.915L139.655 117ZM142.175 109.86H146.655L144.415 103.28L142.175 109.86ZM153.792 97.4H159.112L163.732 106.92L168.352 97.4H173.672L166.252 111.82V117H161.212V111.82L153.792 97.4Z" fill="white"/>
</g>
<g filter="url(#filter2_i)">
<path d="M116.818 56.4H120.058V65.58C120.058 66.84 119.77 67.758 119.194 68.334C118.63 68.898 117.718 69.18 116.458 69.18H112.318C111.058 69.18 110.14 68.898 109.564 68.334C109 67.758 108.718 66.84 108.718 65.58V56.4H111.958V65.58C111.958 66.3 112.318 66.66 113.038 66.66H115.738C116.458 66.66 116.818 66.3 116.818 65.58V56.4ZM123.64 66.39C126.928 66.57 129.154 66.66 130.318 66.66C130.594 66.66 130.81 66.582 130.966 66.426C131.134 66.258 131.218 66.036 131.218 65.76V64.14H127.078C125.818 64.14 124.9 63.858 124.324 63.294C123.76 62.718 123.478 61.8 123.478 60.54V60C123.478 58.74 123.76 57.828 124.324 57.264C124.9 56.688 125.818 56.4 127.078 56.4H133.396V58.92H127.798C127.078 58.92 126.718 59.28 126.718 60V60.36C126.718 61.08 127.078 61.44 127.798 61.44H131.038C132.214 61.44 133.078 61.716 133.63 62.268C134.182 62.82 134.458 63.684 134.458 64.86V65.76C134.458 66.936 134.182 67.8 133.63 68.352C133.078 68.904 132.214 69.18 131.038 69.18C130.426 69.18 129.778 69.168 129.094 69.144L127.438 69.072C126.214 69.012 124.948 68.928 123.64 68.82V66.39ZM144.896 56.4C146.252 56.4 147.278 56.754 147.974 57.462C148.682 58.158 149.036 59.184 149.036 60.54V64.86C149.036 66.216 148.682 67.248 147.974 67.956C147.278 68.652 146.252 69 144.896 69H137.876V56.4H144.896ZM145.796 60.54C145.796 59.46 145.256 58.92 144.176 58.92H141.116V66.48H144.176C145.256 66.48 145.796 65.94 145.796 64.86V60.54ZM158.4 69H155.16V58.92H151.38V56.4H162.18V58.92H158.4V69Z" fill="white"/>
</g>
<g filter="url(#filter3_i)">
<path d="M121.294 86H119.134V77.6H125.794V79.28H121.294V81.26H124.834V82.94H121.294V86ZM127.234 77.6H132.274C133.114 77.6 133.722 77.792 134.098 78.176C134.482 78.552 134.674 79.16 134.674 80V81.08C134.674 81.744 134.562 82.26 134.338 82.628C134.122 82.996 133.774 83.24 133.294 83.36L134.794 86H132.454L131.074 83.48H129.394V86H127.234V77.6ZM132.514 80C132.514 79.52 132.274 79.28 131.794 79.28H129.394V81.8H131.794C132.274 81.8 132.514 81.56 132.514 81.08V80ZM143.131 86H136.471V77.6H143.131V79.28H138.631V80.9H142.171V82.58H138.631V84.32H143.131V86ZM151.348 86H144.688V77.6H151.348V79.28H146.848V80.9H150.388V82.58H146.848V84.32H151.348V86Z" fill="white"/>
</g>
<path opacity="0.32" d="M114.5 39.5C101.627 52.4008 93.99 71.2613 93.99 90.9358C93.99 130.315 125.88 162.237 165.219 162.237C171.223 162.237 177.929 161.902 183.5 160.5C170.609 173.419 151.914 181 132.229 181C92.8902 181 61 149.078 61 109.699C60.997 76.3296 83.5744 47.2723 114.5 39.5Z" fill="#40434C"/>
<path opacity="0.1" d="M21 61C21 83.0902 38.9098 101 61 101C83.0902 101 101 83.0902 101 61C101 38.9098 83.0902 21 61 21C38.9098 21 21 38.9052 21 61Z" fill="#EEAD30"/>
<g filter="url(#filter4_ddd)">
<path d="M29.158 64.1545C27.4171 46.5674 40.2631 30.8988 57.8502 29.158C75.4374 27.4171 91.1059 40.2631 92.8467 57.8503C94.5876 75.4375 81.7416 91.1059 64.1545 92.8467C46.5673 94.5876 30.8988 81.7417 29.158 64.1545Z" fill="url(#paint1_linear)"/>
</g>
<g filter="url(#filter5_i)">
<path d="M63.8542 55.7381V51.8794H73.1021V46H47.9196V51.8794H57.1687V55.735C49.6519 56.0644 44 57.4848 44 59.1864C44 60.8881 49.6546 62.3085 57.1687 62.64V75H63.8563V62.6389C71.3595 62.3085 77 60.8891 77 59.189C77 57.489 71.3595 56.0696 63.8563 55.7391L63.8542 55.7381ZM63.8563 61.592V61.5889C63.6677 61.6003 62.6982 61.6559 60.5397 61.6559C58.814 61.6559 57.5998 61.6092 57.1719 61.5879V61.5931C50.5311 61.3124 45.574 60.209 45.574 58.8887C45.574 57.5684 50.5316 56.4665 57.1719 56.1853V60.4938C57.6069 60.5223 58.8509 60.5923 60.568 60.5923C62.6303 60.5923 63.6671 60.5104 63.8574 60.4938V56.1853C70.4853 56.467 75.4309 57.5715 75.4309 58.8871C75.4309 60.2027 70.4831 61.3077 63.8574 61.5894" fill="#D1FFF1"/>
</g>
<path opacity="0.32" d="M53.6584 30.0005C47.9031 35.7448 43.3724 44.1549 43.3724 52.9122C43.3724 70.4409 51.1582 81.1483 66 85.0005C72.2384 86.6197 80.0086 85.2757 82.5 84.6515C76.7353 90.4005 69.2665 93.0005 60.4687 93.0005C42.8087 92.6317 29 78.2165 29 61.3161C29 46.4625 38.3702 33.9771 53.6584 30.0005Z" fill="#40434C"/>
<path opacity="0.16" d="M83.1484 47.4546C85.53 49.9067 86.4538 53.3266 87.0263 56.6267C87.5267 59.5212 87.825 62.5079 87.1321 65.3656C86.4393 68.2232 84.6207 70.9518 81.8446 72.1824C79.0637 73.413 75.3254 72.7539 73.6559 70.2927C73.093 69.463 72.7899 68.4997 72.6023 67.5272C72.0202 64.5359 72.4868 61.4386 71.9768 58.4381C71.5871 56.1751 70.6538 54.0318 69.6386 51.9577C69.119 50.893 68.5706 49.8283 68.3107 48.6807C68.0509 47.533 68.1135 46.2701 68.7582 45.2699C69.5039 44.1177 70.9232 43.4816 72.3329 43.3526C76.153 42.9977 80.5696 44.8044 83.1484 47.4546Z" fill="white"/>
<defs>
<filter id="filter0_dii" x="37.9108" y="22.157" width="181.932" height="181.932" filterUnits="userSpaceOnUse" color-interpolation-filters="sRGB">
<feFlood flood-opacity="0" result="BackgroundImageFix"/>
<feColorMatrix in="SourceAlpha" type="matrix" values="0 0 0 0 0 0 0 0 0 0 0 0 0 0 0 0 0 0 127 0"/>
<feMorphology radius="2.47384" operator="dilate" in="SourceAlpha" result="effect1_dropShadow"/>
<feOffset dx="-4.12306" dy="4.12306"/>
<feGaussianBlur stdDeviation="8.24613"/>
<feColorMatrix type="matrix" values="0 0 0 0 0 0 0 0 0 0.0231884 0 0 0 0 0.0333333 0 0 0 1 0"/>
<feBlend mode="normal" in2="BackgroundImageFix" result="effect1_dropShadow"/>
<feBlend mode="normal" in="SourceGraphic" in2="effect1_dropShadow" result="shape"/>
<feColorMatrix in="SourceAlpha" type="matrix" values="0 0 0 0 0 0 0 0 0 0 0 0 0 0 0 0 0 0 127 0" result="hardAlpha"/>
<feMorphology radius="4.12306" operator="erode" in="SourceAlpha" result="effect2_innerShadow"/>
<feOffset dx="-0.824613"/>
<feGaussianBlur stdDeviation="4.12306"/>
<feComposite in2="hardAlpha" operator="arithmetic" k2="-1" k3="1"/>
<feColorMatrix type="matrix" values="0 0 0 0 0 0 0 0 0 1 0 0 0 0 0.761589 0 0 0 1 0"/>
<feBlend mode="normal" in2="shape" result="effect2_innerShadow"/>
<feColorMatrix in="SourceAlpha" type="matrix" values="0 0 0 0 0 0 0 0 0 0 0 0 0 0 0 0 0 0 127 0" result="hardAlpha"/>
<feMorphology radius="4.12306" operator="erode" in="SourceAlpha" result="effect3_innerShadow"/>
<feOffset dx="4.12306" dy="-4.12306"/>
<feGaussianBlur stdDeviation="2.06153"/>
<feComposite in2="hardAlpha" operator="arithmetic" k2="-1" k3="1"/>
<feColorMatrix type="matrix" values="0 0 0 0 0.12549 0 0 0 0 0.105882 0 0 0 0 0.231373 0 0 0 1 0"/>
<feBlend mode="normal" in2="effect2_innerShadow" result="effect3_innerShadow"/>
</filter>
<filter id="filter1_i" x="93.5703" y="97.3999" width="80.1022" height="19.6" filterUnits="userSpaceOnUse" color-interpolation-filters="sRGB">
<feFlood flood-opacity="0" result="BackgroundImageFix"/>
<feBlend mode="normal" in="SourceGraphic" in2="BackgroundImageFix" result="shape"/>
<feColorMatrix in="SourceAlpha" type="matrix" values="0 0 0 0 0 0 0 0 0 0 0 0 0 0 0 0 0 0 127 0" result="hardAlpha"/>
<feOffset dx="-1"/>
<feGaussianBlur stdDeviation="0.5"/>
<feComposite in2="hardAlpha" operator="arithmetic" k2="-1" k3="1"/>
<feColorMatrix type="matrix" values="0 0 0 0 0.0666667 0 0 0 0 0.305882 0 0 0 0 0.298039 0 0 0 1 0"/>
<feBlend mode="normal" in2="shape" result="effect1_innerShadow"/>
</filter>
<filter id="filter2_i" x="108.219" y="56.3999" width="53.9621" height="13.28" filterUnits="userSpaceOnUse" color-interpolation-filters="sRGB">
<feFlood flood-opacity="0" result="BackgroundImageFix"/>
<feBlend mode="normal" in="SourceGraphic" in2="BackgroundImageFix" result="shape"/>
<feColorMatrix in="SourceAlpha" type="matrix" values="0 0 0 0 0 0 0 0 0 0 0 0 0 0 0 0 0 0 127 0" result="hardAlpha"/>
<feOffset dx="-0.5" dy="0.5"/>
<feGaussianBlur stdDeviation="0.25"/>
<feComposite in2="hardAlpha" operator="arithmetic" k2="-1" k3="1"/>
<feColorMatrix type="matrix" values="0 0 0 0 0.0666667 0 0 0 0 0.305882 0 0 0 0 0.298039 0 0 0 1 0"/>
<feBlend mode="normal" in2="shape" result="effect1_innerShadow"/>
</filter>
<filter id="filter3_i" x="118.933" y="77.6001" width="32.4139" height="8.7" filterUnits="userSpaceOnUse" color-interpolation-filters="sRGB">
<feFlood flood-opacity="0" result="BackgroundImageFix"/>
<feBlend mode="normal" in="SourceGraphic" in2="BackgroundImageFix" result="shape"/>
<feColorMatrix in="SourceAlpha" type="matrix" values="0 0 0 0 0 0 0 0 0 0 0 0 0 0 0 0 0 0 127 0" result="hardAlpha"/>
<feOffset dx="-0.2" dy="0.3"/>
<feGaussianBlur stdDeviation="0.25"/>
<feComposite in2="hardAlpha" operator="arithmetic" k2="-1" k3="1"/>
<feColorMatrix type="matrix" values="0 0 0 0 0.0666667 0 0 0 0 0.305882 0 0 0 0 0.298039 0 0 0 1 0"/>
<feBlend mode="normal" in2="shape" result="effect1_innerShadow"/>
</filter>
<filter id="filter4_ddd" x="0.908856" y="0.908856" width="128.213" height="128.213" filterUnits="userSpaceOnUse" color-interpolation-filters="sRGB">
<feFlood flood-opacity="0" result="BackgroundImageFix"/>
<feColorMatrix in="SourceAlpha" type="matrix" values="0 0 0 0 0 0 0 0 0 0 0 0 0 0 0 0 0 0 127 0"/>
<feOffset dx="-4.01302" dy="-4.01302"/>
<feGaussianBlur stdDeviation="8.02604"/>
<feColorMatrix type="matrix" values="0 0 0 0 0.262745 0 0 0 0 0.788235 0 0 0 0 0.631373 0 0 0 1 0"/>
<feBlend mode="normal" in2="BackgroundImageFix" result="effect1_dropShadow"/>
<feColorMatrix in="SourceAlpha" type="matrix" values="0 0 0 0 0 0 0 0 0 0 0 0 0 0 0 0 0 0 127 0"/>
<feOffset dx="4.01302" dy="4.01302"/>
<feGaussianBlur stdDeviation="16.0521"/>
<feColorMatrix type="matrix" values="0 0 0 0 0.105882 0 0 0 0 0.384314 0 0 0 0 0.356863 0 0 0 1 0"/>
<feBlend mode="normal" in2="effect1_dropShadow" result="effect2_dropShadow"/>
<feColorMatrix in="SourceAlpha" type="matrix" values="0 0 0 0 0 0 0 0 0 0 0 0 0 0 0 0 0 0 127 0"/>
<feOffset/>
<feGaussianBlur stdDeviation="2.00651"/>
<feColorMatrix type="matrix" values="0 0 0 0 1 0 0 0 0 1 0 0 0 0 1 0 0 0 0.29 0"/>
<feBlend mode="hard-light" in2="effect2_dropShadow" result="effect3_dropShadow"/>
<feBlend mode="normal" in="SourceGraphic" in2="effect3_dropShadow" result="shape"/>
</filter>
<filter id="filter5_i" x="43" y="46" width="34" height="30" filterUnits="userSpaceOnUse" color-interpolation-filters="sRGB">
<feFlood flood-opacity="0" result="BackgroundImageFix"/>
<feBlend mode="normal" in="SourceGraphic" in2="BackgroundImageFix" result="shape"/>
<feColorMatrix in="SourceAlpha" type="matrix" values="0 0 0 0 0 0 0 0 0 0 0 0 0 0 0 0 0 0 127 0" result="hardAlpha"/>
<feOffset dx="-1" dy="1"/>
<feGaussianBlur stdDeviation="0.5"/>
<feComposite in2="hardAlpha" operator="arithmetic" k2="-1" k3="1"/>
<feColorMatrix type="matrix" values="0 0 0 0 0 0 0 0 0 0 0 0 0 0 0 0 0 0 0.61 0"/>
<feBlend mode="normal" in2="shape" result="effect1_innerShadow"/>
</filter>
<linearGradient id="paint0_linear" x1="183.909" y1="58.0883" x2="82.0854" y2="159.912" gradientUnits="userSpaceOnUse">
<stop stop-color="#00A08A"/>
<stop offset="1" stop-color="#00362F"/>
</linearGradient>
<linearGradient id="paint1_linear" x1="91.0226" y1="39.4217" x2="35.0627" y2="73.8194" gradientUnits="userSpaceOnUse">
<stop stop-color="#59FFCE"/>
<stop offset="0.203125" stop-color="#47CEA6"/>
<stop offset="0.540611" stop-color="#209D78"/>
<stop offset="0.776042" stop-color="#117C69"/>
<stop offset="1" stop-color="#005858"/>
</linearGradient>
</defs>
</svg>
