<svg width="18" height="18" viewBox="0 0 18 18" fill="none" xmlns="http://www.w3.org/2000/svg">
<path d="M4.20572 3.28908L11.3814 1.33042L11.0014 0.562323C10.7528 0.0630568 10.1464 -0.143118 9.64711 0.105504L3.22336 3.28908H4.20572Z" fill="white"/>
<path d="M13.6091 1.38701C13.5202 1.38701 13.4313 1.39914 13.3423 1.4234L6.50825 3.28907H14.8987L14.5834 2.13288C14.4621 1.68212 14.0538 1.38701 13.6091 1.38701Z" fill="white"/>
<path d="M15.9523 3.99652H1.01268C0.693313 3.99652 0.408307 4.14407 0.222345 4.37653C0.13745 4.48366 0.0727675 4.60696 0.0363837 4.74238C0.0141492 4.82728 0 4.91622 0 5.00718V16.2679C0 16.8259 0.452776 17.2786 1.01066 17.2786H15.9502C16.5081 17.2786 16.9609 16.8259 16.9609 16.2679V13.4482H10.9636C10.0156 13.4482 9.24551 12.6781 9.24551 11.7301V9.48238C9.24551 9.01747 9.43146 8.59504 9.73265 8.28578C9.99947 8.01086 10.3572 7.8249 10.7575 7.77841C10.8242 7.77034 10.8929 7.76628 10.9616 7.76628H16.9609V5.00718C16.9629 4.44929 16.5101 3.99652 15.9523 3.99652Z" fill="white"/>
<path d="M17.6709 8.73255C17.5699 8.63957 17.4506 8.56883 17.3172 8.52234C17.2141 8.48799 17.105 8.46778 16.9897 8.46778H10.9642C10.4063 8.46778 9.95353 8.92053 9.95353 9.47844V11.7281C9.95353 12.286 10.4063 12.7388 10.9642 12.7388H16.9897C17.105 12.7388 17.2141 12.7186 17.3172 12.6842C17.4506 12.6398 17.5699 12.567 17.6709 12.474C17.8731 12.2901 18.0004 12.0233 18.0004 11.7282V9.47844C18.0004 9.18331 17.8731 8.91647 17.6709 8.73255ZM13.0744 10.8044C13.0744 11.0833 12.8481 11.3097 12.5691 11.3097H12.2336C11.9546 11.3097 11.7282 11.0833 11.7282 10.8044V10.4689C11.7282 10.3072 11.803 10.1636 11.9223 10.0727C12.0092 10.006 12.1164 9.96353 12.2336 9.96353H12.5691C12.8481 9.96353 13.0744 10.1899 13.0744 10.4689V10.8044Z" fill="white"/>
</svg>
