<svg width="17" height="17" viewBox="0 0 17 17" fill="none" xmlns="http://www.w3.org/2000/svg">
<path d="M14.4698 0.380261C15.0462 -0.189867 15.8881 -0.109765 16.3503 0.559175C16.8124 1.22811 16.7198 2.23258 16.1434 2.80271L10.5613 8.32412L16.4991 14.1973C17.0754 14.7674 17.1681 15.7719 16.7059 16.4408C16.2437 17.1098 15.4018 17.1899 14.8254 16.6197L8.5 10.3631L2.17457 16.6197C1.59817 17.1899 0.756261 17.1098 0.294103 16.4408C-0.168054 15.7719 -0.0754473 14.7674 0.500947 14.1973L6.43866 8.32412L0.856563 2.80271C0.280169 2.23258 0.187562 1.22811 0.64972 0.559175C1.11188 -0.109765 1.95379 -0.189867 2.53018 0.380261L8.5 6.28519L14.4698 0.380261Z" fill="white"/>
</svg>
